<svg xmlns="http://www.w3.org/2000/svg" width="180" height="41" viewBox="0 0 192.954 44.257"><g transform="translate(0 0)"><path d="M22.094,44.255A22.114,22.114,0,0,1,0,22.123a22.091,22.091,0,1,1,37.712,15.65A21.921,21.921,0,0,1,22.094,44.255Zm-.307-33.047a10.927,10.927,0,1,0,7.725,3.208A10.85,10.85,0,0,0,21.787,11.208Z" transform="translate(0 0.002)" fill="#054d70" opacity="0.4"/><path d="M37.509,6.284a22.108,22.108,0,1,0-.042,31.729l-7.888-7.9a10.928,10.928,0,1,1-.189-15.7l8.117-8.13Z" transform="translate(0.004 0)" fill="#054d70"/><path d="M111.733,21.855a7.93,7.93,0,0,1-5.927-2.383,8.152,8.152,0,0,1-2.15-5.662,8.1,8.1,0,0,1,2.15-5.634,8.605,8.605,0,0,1,11.882,0,8.087,8.087,0,0,1,2.154,5.634,8.138,8.138,0,0,1-2.154,5.662A7.978,7.978,0,0,1,111.733,21.855Zm0-12.479c-2.676,0-3.9,2.3-3.9,4.434,0,2.629,1.6,4.466,3.9,4.466,2.313,0,3.928-1.836,3.928-4.466C115.661,11.674,114.432,9.375,111.733,9.375ZM93.553,21.855a7.931,7.931,0,0,1-5.927-2.383,8.151,8.151,0,0,1-2.15-5.662,8.1,8.1,0,0,1,2.15-5.634,8.605,8.605,0,0,1,11.882,0,8.088,8.088,0,0,1,2.154,5.634,8.138,8.138,0,0,1-2.154,5.662A7.977,7.977,0,0,1,93.553,21.855Zm0-12.479c-2.677,0-3.9,2.3-3.9,4.434,0,2.629,1.6,4.466,3.9,4.466,2.313,0,3.928-1.836,3.928-4.466C97.481,11.674,96.252,9.375,93.553,9.375ZM57.731,21.855A4.5,4.5,0,0,1,54.5,20.786a4.138,4.138,0,0,1-1.112-3.112V9.692H50.857V6.177h2.534V2h4.055V6.177h3.1V9.692h-3.1v6.9c0,1,.56,1.678,1.393,1.678a2.189,2.189,0,0,0,1.394-.443l.855,3.04A5.077,5.077,0,0,1,57.731,21.855Zm-30.713,0A5.726,5.726,0,0,1,23.442,20.6,4.748,4.748,0,0,1,21.7,16.787a4.522,4.522,0,0,1,1.746-3.781,5.958,5.958,0,0,1,3.575-1.1,6.174,6.174,0,0,1,4.847,1.869V11.656c0-1.559-1.318-2.566-3.358-2.566A6.41,6.41,0,0,0,24.04,10.9L22.52,8.2A10.056,10.056,0,0,1,29.2,5.8a7.888,7.888,0,0,1,4.648,1.247,5.274,5.274,0,0,1,2.035,4.55v9.882H31.864V19.891A6.345,6.345,0,0,1,27.017,21.855Zm1.615-7.285c-1.434,0-2.882.715-2.882,2.312,0,1.324,1.185,2.248,2.882,2.248a4,4,0,0,0,3.231-1.33V15.9A4,4,0,0,0,28.633,14.57ZM11.085,21.855a11.239,11.239,0,0,1-7.859-3.029A10.8,10.8,0,0,1,0,10.927a10.8,10.8,0,0,1,3.227-7.9A11.24,11.24,0,0,1,11.085,0,10.253,10.253,0,0,1,16.83,1.6a10.22,10.22,0,0,1,3.25,3.567l-3.864,1.9a5.815,5.815,0,0,0-5.132-3.073c-3.683,0-6.461,2.982-6.461,6.936s2.778,6.937,6.461,6.937a5.7,5.7,0,0,0,5.132-3.073l3.864,1.868A9.791,9.791,0,0,1,11.085,21.855Zm115.756-.379h-4.022V.348h4.022V12.986l5.8-6.809h4.942l-6.05,6.936,6.239,8.36-5.035,0-4.055-5.891-1.837,1.964v3.928Zm-58.944,0H63.4V.348h4.5v8.3h9.977V.348H82.4V21.474h-4.53V12.606H67.9v8.869Zm-24,0H39.877V6.177H43.9v2.09a6.581,6.581,0,0,1,4.878-2.439V9.755A4.948,4.948,0,0,0,43.9,11.371v10.1Z" transform="translate(55.186 11.519)" fill="#054d70"/></g></svg>