<?xml version="1.0" encoding="UTF-8"?> <svg xmlns="http://www.w3.org/2000/svg" width="164.96" height="37.836" viewBox="0 0 164.96 37.836"><path d="M18.888,37.834A18.906,18.906,0,0,1,0,18.914a18.886,18.886,0,1,1,32.241,13.38A18.741,18.741,0,0,1,18.888,37.834ZM18.626,9.581a9.341,9.341,0,1,0,6.6,2.742A9.278,9.278,0,0,0,18.626,9.581Z" transform="translate(0 0.002)" fill="#fff" opacity="0.4"></path><path d="M32.067,5.372A18.9,18.9,0,1,0,32.031,32.5l-6.744-6.751a9.342,9.342,0,1,1-.162-13.425l6.939-6.95Z" transform="translate(0.004 0)" fill="#fff"></path><path d="M95.523,18.684a6.779,6.779,0,0,1-5.067-2.038,6.969,6.969,0,0,1-1.838-4.84A6.926,6.926,0,0,1,90.456,6.99a7.357,7.357,0,0,1,10.158,0,6.914,6.914,0,0,1,1.841,4.817,6.957,6.957,0,0,1-1.841,4.84A6.82,6.82,0,0,1,95.523,18.684Zm0-10.669c-2.289,0-3.331,1.965-3.331,3.791,0,2.248,1.37,3.818,3.331,3.818,1.977,0,3.358-1.57,3.358-3.818C98.881,9.98,97.83,8.015,95.523,8.015ZM79.98,18.684a6.779,6.779,0,0,1-5.067-2.038,6.969,6.969,0,0,1-1.838-4.84A6.926,6.926,0,0,1,74.913,6.99a7.357,7.357,0,0,1,10.158,0,6.914,6.914,0,0,1,1.841,4.817,6.957,6.957,0,0,1-1.841,4.84A6.82,6.82,0,0,1,79.98,18.684Zm0-10.669c-2.289,0-3.331,1.965-3.331,3.791,0,2.248,1.37,3.818,3.331,3.818,1.977,0,3.358-1.57,3.358-3.818C83.338,9.98,82.287,8.015,79.98,8.015ZM49.355,18.684c-2.427,0-3.71-1.236-3.71-3.574V8.286H43.479V5.28h2.166V1.706h3.466V5.28h2.653V8.286H49.111v5.9c0,.858.479,1.435,1.192,1.435a1.871,1.871,0,0,0,1.192-.379l.731,2.6A4.337,4.337,0,0,1,49.355,18.684Zm-26.257,0a4.895,4.895,0,0,1-3.056-1.069,4.059,4.059,0,0,1-1.493-3.263,3.865,3.865,0,0,1,1.493-3.232,5.094,5.094,0,0,1,3.056-.937,5.28,5.28,0,0,1,4.144,1.6V9.965c0-1.332-1.127-2.193-2.871-2.193a5.482,5.482,0,0,0-3.818,1.543l-1.3-2.3a8.6,8.6,0,0,1,5.713-2.058c2.134,0,5.714.644,5.714,4.955v8.448H27.241V17.006A5.428,5.428,0,0,1,23.1,18.684Zm1.381-6.228c-1.474,0-2.464.794-2.464,1.976,0,1.132,1.013,1.923,2.464,1.923a3.418,3.418,0,0,0,2.762-1.138V13.594A3.416,3.416,0,0,0,24.479,12.456Zm-15,6.228a9.609,9.609,0,0,1-6.719-2.589A9.234,9.234,0,0,1,0,9.342,9.234,9.234,0,0,1,2.758,2.589,9.609,9.609,0,0,1,9.477,0a8.766,8.766,0,0,1,4.912,1.364,8.738,8.738,0,0,1,2.779,3.05l-3.3,1.625A4.971,4.971,0,0,0,9.477,3.412a5.611,5.611,0,0,0-5.523,5.93,5.611,5.611,0,0,0,5.523,5.93,4.873,4.873,0,0,0,4.387-2.626l3.3,1.6A8.37,8.37,0,0,1,9.477,18.684Zm98.963-.324H105V.3h3.439V11.1L113.4,5.28h4.224l-5.171,5.93,5.333,7.147-4.3,0-3.466-5.036L108.44,15v3.358Zm-50.393,0H54.2V.3h3.846V7.393h8.529V.3h3.873v18.06H66.577V10.778H58.047v7.582Zm-20.516,0H34.092V5.28h3.439V7.068A5.624,5.624,0,0,1,41.7,4.982V8.34a4.219,4.219,0,0,0-4.17,1.381v8.637Z" transform="translate(47.18 9.847)" fill="#fff"></path></svg> 