<svg xmlns="http://www.w3.org/2000/svg" width="1237.5" height="18" viewBox="0 0 1237.5 18"><g transform="translate(0 -0.75)" opacity="0.1"><path d="M9.576,32.759c0-7,7.924-8.182,7.924-19.466A18.574,18.574,0,0,0,11.931,0L5.207,6.773c.018.018.037.032.053.049a9.2,9.2,0,0,1,2.664,6.487h0v0h0C7.924,21.228,0,20.322,0,32.776,0,44.822,7.924,44.868,7.924,52.241h0v0h0C7.924,60.16,0,59.253,0,71.707A18.578,18.578,0,0,0,5.57,85l6.724-6.773c-.018-.018-.037-.032-.053-.05a9.2,9.2,0,0,1-2.664-6.486c0-7,7.924-8.182,7.924-19.467,0-12.076-7.924-12.053-7.924-19.465" transform="translate(319.25 0.75) rotate(90)" fill="#3fbbe7"/><path d="M9.576,32.759c0-7,7.924-8.182,7.924-19.466A18.574,18.574,0,0,0,11.931,0L5.207,6.773c.018.018.037.032.053.049a9.2,9.2,0,0,1,2.664,6.487h0v0h0C7.924,21.228,0,20.322,0,32.776,0,44.822,7.924,44.868,7.924,52.241h0v0h0C7.924,60.16,0,59.253,0,71.707A18.578,18.578,0,0,0,5.57,85l6.724-6.773c-.018-.018-.037-.032-.053-.05a9.2,9.2,0,0,1-2.664-6.486c0-7,7.924-8.182,7.924-19.467,0-12.076-7.924-12.053-7.924-19.465" transform="translate(85 0.75) rotate(90)" fill="#3fbbe7"/><path d="M9.576,32.759c0-7,7.924-8.182,7.924-19.466A18.574,18.574,0,0,0,11.931,0L5.207,6.773c.018.018.037.032.053.049a9.2,9.2,0,0,1,2.664,6.487h0v0h0C7.924,21.228,0,20.322,0,32.776,0,44.822,7.924,44.868,7.924,52.241h0v0h0C7.924,60.16,0,59.253,0,71.707A18.578,18.578,0,0,0,5.57,85l6.724-6.773c-.018-.018-.037-.032-.053-.05a9.2,9.2,0,0,1-2.664-6.486c0-7,7.924-8.182,7.924-19.467,0-12.076-7.924-12.053-7.924-19.465" transform="translate(846.25 0.75) rotate(90)" fill="#3fbbe7"/><path d="M9.576,32.759c0-7,7.924-8.182,7.924-19.466A18.574,18.574,0,0,0,11.931,0L5.207,6.773c.018.018.037.032.053.049a9.2,9.2,0,0,1,2.664,6.487h0v0h0C7.924,21.228,0,20.322,0,32.776,0,44.822,7.924,44.868,7.924,52.241h0v0h0C7.924,60.16,0,59.253,0,71.707A18.578,18.578,0,0,0,5.57,85l6.724-6.773c-.018-.018-.037-.032-.053-.05a9.2,9.2,0,0,1-2.664-6.486c0-7,7.924-8.182,7.924-19.467,0-12.076-7.924-12.053-7.924-19.465" transform="translate(475.5 0.75) rotate(90)" fill="#3fbbe7"/><path d="M9.576,32.759c0-7,7.924-8.182,7.924-19.466A18.574,18.574,0,0,0,11.931,0L5.207,6.773c.018.018.037.032.053.049a9.2,9.2,0,0,1,2.664,6.487h0v0h0C7.924,21.228,0,20.322,0,32.776,0,44.822,7.924,44.868,7.924,52.241h0v0h0C7.924,60.16,0,59.253,0,71.707A18.578,18.578,0,0,0,5.57,85l6.724-6.773c-.018-.018-.037-.032-.053-.05a9.2,9.2,0,0,1-2.664-6.486c0-7,7.924-8.182,7.924-19.467,0-12.076-7.924-12.053-7.924-19.465" transform="translate(241.25 0.75) rotate(90)" fill="#3fbbe7"/><path d="M9.576,32.759c0-7,7.924-8.182,7.924-19.466A18.574,18.574,0,0,0,11.931,0L5.207,6.773c.018.018.037.032.053.049a9.2,9.2,0,0,1,2.664,6.487h0v0h0C7.924,21.228,0,20.322,0,32.776,0,44.822,7.924,44.868,7.924,52.241h0v0h0C7.924,60.16,0,59.253,0,71.707A18.578,18.578,0,0,0,5.57,85l6.724-6.773c-.018-.018-.037-.032-.053-.05a9.2,9.2,0,0,1-2.664-6.486c0-7,7.924-8.182,7.924-19.467,0-12.076-7.924-12.053-7.924-19.465" transform="translate(1002.5 0.75) rotate(90)" fill="#3fbbe7"/><path d="M9.576,32.759c0-7,7.924-8.182,7.924-19.466A18.574,18.574,0,0,0,11.931,0L5.207,6.773c.018.018.037.032.053.049a9.2,9.2,0,0,1,2.664,6.487h0v0h0C7.924,21.228,0,20.322,0,32.776,0,44.822,7.924,44.868,7.924,52.241h0v0h0C7.924,60.16,0,59.253,0,71.707A18.578,18.578,0,0,0,5.57,85l6.724-6.773c-.018-.018-.037-.032-.053-.05a9.2,9.2,0,0,1-2.664-6.486c0-7,7.924-8.182,7.924-19.467,0-12.076-7.924-12.053-7.924-19.465" transform="translate(397.75 1.25) rotate(90)" fill="#3fbbe7"/><path d="M9.576,32.759c0-7,7.924-8.182,7.924-19.466A18.574,18.574,0,0,0,11.931,0L5.207,6.773c.018.018.037.032.053.049a9.2,9.2,0,0,1,2.664,6.487h0v0h0C7.924,21.228,0,20.322,0,32.776,0,44.822,7.924,44.868,7.924,52.241h0v0h0C7.924,60.16,0,59.253,0,71.707A18.578,18.578,0,0,0,5.57,85l6.724-6.773c-.018-.018-.037-.032-.053-.05a9.2,9.2,0,0,1-2.664-6.486c0-7,7.924-8.182,7.924-19.467,0-12.076-7.924-12.053-7.924-19.465" transform="translate(163.5 1.25) rotate(90)" fill="#3fbbe7"/><path d="M9.576,32.759c0-7,7.924-8.182,7.924-19.466A18.574,18.574,0,0,0,11.931,0L5.207,6.773c.018.018.037.032.053.049a9.2,9.2,0,0,1,2.664,6.487h0v0h0C7.924,21.228,0,20.322,0,32.776,0,44.822,7.924,44.868,7.924,52.241h0v0h0C7.924,60.16,0,59.253,0,71.707A18.578,18.578,0,0,0,5.57,85l6.724-6.773c-.018-.018-.037-.032-.053-.05a9.2,9.2,0,0,1-2.664-6.486c0-7,7.924-8.182,7.924-19.467,0-12.076-7.924-12.053-7.924-19.465" transform="translate(924.75 1.25) rotate(90)" fill="#3fbbe7"/><path d="M9.576,32.759c0-7,7.924-8.182,7.924-19.466A18.574,18.574,0,0,0,11.931,0L5.207,6.773c.018.018.037.032.053.049a9.2,9.2,0,0,1,2.664,6.487h0v0h0C7.924,21.228,0,20.322,0,32.776,0,44.822,7.924,44.868,7.924,52.241h0v0h0C7.924,60.16,0,59.253,0,71.707A18.578,18.578,0,0,0,5.57,85l6.724-6.773c-.018-.018-.037-.032-.053-.05a9.2,9.2,0,0,1-2.664-6.486c0-7,7.924-8.182,7.924-19.467,0-12.076-7.924-12.053-7.924-19.465" transform="translate(1081.25 0.75) rotate(90)" fill="#3fbbe7"/><path d="M9.576,32.759c0-7,7.924-8.182,7.924-19.466A18.574,18.574,0,0,0,11.931,0L5.207,6.773c.018.018.037.032.053.049a9.2,9.2,0,0,1,2.664,6.487h0v0h0C7.924,21.228,0,20.322,0,32.776,0,44.822,7.924,44.868,7.924,52.241h0v0h0C7.924,60.16,0,59.253,0,71.707A18.578,18.578,0,0,0,5.57,85l6.724-6.773c-.018-.018-.037-.032-.053-.05a9.2,9.2,0,0,1-2.664-6.486c0-7,7.924-8.182,7.924-19.467,0-12.076-7.924-12.053-7.924-19.465" transform="translate(1237.5 0.75) rotate(90)" fill="#3fbbe7"/><path d="M9.576,32.759c0-7,7.924-8.182,7.924-19.466A18.574,18.574,0,0,0,11.931,0L5.207,6.773c.018.018.037.032.053.049a9.2,9.2,0,0,1,2.664,6.487h0v0h0C7.924,21.228,0,20.322,0,32.776,0,44.822,7.924,44.868,7.924,52.241h0v0h0C7.924,60.16,0,59.253,0,71.707A18.578,18.578,0,0,0,5.57,85l6.724-6.773c-.018-.018-.037-.032-.053-.05a9.2,9.2,0,0,1-2.664-6.486c0-7,7.924-8.182,7.924-19.467,0-12.076-7.924-12.053-7.924-19.465" transform="translate(1159.75 1.25) rotate(90)" fill="#3fbbe7"/></g></svg>