<?xml version="1.0" encoding="UTF-8"?> <svg xmlns="http://www.w3.org/2000/svg" width="776.819" height="437" viewBox="0 0 776.819 437"><path d="M386,12.225C386-39.478,0,81.932,0,205.447c0,119.47,174.789,119.928,174.789,193.047v0C174.789,477.031,0,468.033,0,591.549c0,51.695,47.116,98.388,122.851,131.838l148.323-67.176c-.387-.175-.81-.316-1.178-.491-37.674-17.071-58.821-40.209-58.766-64.329,0-69.382,174.77-81.142,174.77-193.063,0-119.77-174.77-119.537-174.77-193.047C211.23,135.9,386,124.138,386,12.225Z" transform="translate(751.321 25.5) rotate(90)" fill="#7fe8ad" stroke="#7fe8ad" stroke-miterlimit="10" stroke-width="51" opacity="0.067"></path></svg> 