<?xml version="1.0" encoding="UTF-8"?> <svg xmlns="http://www.w3.org/2000/svg" width="575.5" height="409" viewBox="0 0 575.5 409"><g transform="translate(0)"><ellipse cx="205" cy="204.5" rx="205" ry="204.5" transform="translate(165.5)" fill="#3fbbe7" opacity="0.05"></ellipse><ellipse cx="119" cy="118.5" rx="119" ry="118.5" transform="translate(252.5 86)" fill="#fff"></ellipse><g transform="translate(378.5 50.5) rotate(90)"><path d="M4.98,16.457c0-3.514,4.12-4.11,4.12-9.779A9.178,9.178,0,0,0,6.2,0l-3.5,3.4.028.024A4.54,4.54,0,0,1,4.121,6.686h0C4.121,10.664,0,10.209,0,16.465c0,6.051,4.121,6.075,4.121,9.778h0C4.121,30.221,0,29.766,0,36.022A9.18,9.18,0,0,0,2.9,42.7l3.5-3.4c-.009-.009-.019-.016-.028-.025A4.54,4.54,0,0,1,4.98,36.014c0-3.514,4.12-4.11,4.12-9.779,0-6.067-4.12-6.055-4.12-9.778" transform="translate(0 101.5)" fill="#fff"></path><path d="M4.98,16.457c0-3.514,4.12-4.11,4.12-9.779A9.178,9.178,0,0,0,6.2,0l-3.5,3.4.028.024A4.54,4.54,0,0,1,4.121,6.686h0C4.121,10.664,0,10.209,0,16.465c0,6.051,4.121,6.075,4.121,9.778h0C4.121,30.221,0,29.766,0,36.022A9.18,9.18,0,0,0,2.9,42.7l3.5-3.4c-.009-.009-.019-.016-.028-.025A4.54,4.54,0,0,1,4.98,36.014c0-3.514,4.12-4.11,4.12-9.779,0-6.067-4.12-6.055-4.12-9.778" fill="#fff"></path><path d="M4.98,16.457c0-3.514,4.12-4.11,4.12-9.779A9.178,9.178,0,0,0,6.2,0l-3.5,3.4.028.024A4.54,4.54,0,0,1,4.121,6.686h0C4.121,10.664,0,10.209,0,16.465c0,6.051,4.121,6.075,4.121,9.778h0C4.121,30.221,0,29.766,0,36.022A9.18,9.18,0,0,0,2.9,42.7l3.5-3.4c-.009-.009-.019-.016-.028-.025A4.54,4.54,0,0,1,4.98,36.014c0-3.514,4.12-4.11,4.12-9.779,0-6.067-4.12-6.055-4.12-9.778" transform="translate(0 151.9)" fill="#fff"></path><path d="M4.98,16.457c0-3.514,4.12-4.11,4.12-9.779A9.178,9.178,0,0,0,6.2,0l-3.5,3.4.028.024A4.54,4.54,0,0,1,4.121,6.686h0C4.121,10.664,0,10.209,0,16.465c0,6.051,4.121,6.075,4.121,9.778h0C4.121,30.221,0,29.766,0,36.022A9.18,9.18,0,0,0,2.9,42.7l3.5-3.4c-.009-.009-.019-.016-.028-.025A4.54,4.54,0,0,1,4.98,36.014c0-3.514,4.12-4.11,4.12-9.779,0-6.067-4.12-6.055-4.12-9.778" transform="translate(0 50.4)" fill="#fff"></path></g><g transform="translate(404.5 24.5) rotate(90)"><path d="M4.6,16.457c0-3.514,3.8-4.11,3.8-9.779A9.55,9.55,0,0,0,5.727,0L2.5,3.4l.026.024A4.732,4.732,0,0,1,3.8,6.686h0c0,3.978-3.8,3.523-3.8,9.779,0,6.051,3.8,6.075,3.8,9.778h0c0,3.978-3.8,3.522-3.8,9.779A9.552,9.552,0,0,0,2.673,42.7L5.9,39.3c-.008-.009-.018-.016-.026-.025A4.732,4.732,0,0,1,4.6,36.014c0-3.514,3.8-4.11,3.8-9.779,0-6.067-3.8-6.055-3.8-9.778" transform="translate(0 101.5)" fill="#fff"></path><path d="M4.6,16.457c0-3.514,3.8-4.11,3.8-9.779A9.55,9.55,0,0,0,5.727,0L2.5,3.4l.026.024A4.732,4.732,0,0,1,3.8,6.686h0c0,3.978-3.8,3.523-3.8,9.779,0,6.051,3.8,6.075,3.8,9.778h0c0,3.978-3.8,3.522-3.8,9.779A9.552,9.552,0,0,0,2.673,42.7L5.9,39.3c-.008-.009-.018-.016-.026-.025A4.732,4.732,0,0,1,4.6,36.014c0-3.514,3.8-4.11,3.8-9.779,0-6.067-3.8-6.055-3.8-9.778" fill="#fff"></path><path d="M4.6,16.457c0-3.514,3.8-4.11,3.8-9.779A9.55,9.55,0,0,0,5.727,0L2.5,3.4l.026.024A4.732,4.732,0,0,1,3.8,6.686h0c0,3.978-3.8,3.523-3.8,9.779,0,6.051,3.8,6.075,3.8,9.778h0c0,3.978-3.8,3.522-3.8,9.779A9.552,9.552,0,0,0,2.673,42.7L5.9,39.3c-.008-.009-.018-.016-.026-.025A4.732,4.732,0,0,1,4.6,36.014c0-3.514,3.8-4.11,3.8-9.779,0-6.067-3.8-6.055-3.8-9.778" transform="translate(0 151.9)" fill="#fff"></path><path d="M4.6,16.457c0-3.514,3.8-4.11,3.8-9.779A9.55,9.55,0,0,0,5.727,0L2.5,3.4l.026.024A4.732,4.732,0,0,1,3.8,6.686h0c0,3.978-3.8,3.523-3.8,9.779,0,6.051,3.8,6.075,3.8,9.778h0c0,3.978-3.8,3.522-3.8,9.779A9.552,9.552,0,0,0,2.673,42.7L5.9,39.3c-.008-.009-.018-.016-.026-.025A4.732,4.732,0,0,1,4.6,36.014c0-3.514,3.8-4.11,3.8-9.779,0-6.067-3.8-6.055-3.8-9.778" transform="translate(0 50.4)" fill="#fff"></path></g><g transform="translate(0 209)" opacity="0.152"><path d="M5.751,11.5A5.75,5.75,0,1,1,11.5,5.749,5.759,5.759,0,0,1,5.751,11.5ZM5.666,2.917a2.832,2.832,0,1,0,2.005.831A2.821,2.821,0,0,0,5.666,2.917Z" fill="#7fe8ad"></path><path d="M5.751,11.5A5.75,5.75,0,1,1,11.5,5.749,5.759,5.759,0,0,1,5.751,11.5ZM5.666,2.917a2.832,2.832,0,1,0,2.005.831A2.821,2.821,0,0,0,5.666,2.917Z" transform="translate(232.5)" fill="#7fe8ad"></path><path d="M5.751,11.5A5.75,5.75,0,1,1,11.5,5.749,5.759,5.759,0,0,1,5.751,11.5ZM5.666,2.917a2.832,2.832,0,1,0,2.005.831A2.821,2.821,0,0,0,5.666,2.917Z" transform="translate(116.5)" fill="#7fe8ad"></path><path d="M5.751,11.5A5.75,5.75,0,1,1,11.5,5.749,5.759,5.759,0,0,1,5.751,11.5ZM5.666,2.917a2.832,2.832,0,1,0,2.005.831A2.821,2.821,0,0,0,5.666,2.917Z" transform="translate(23.5)" fill="#7fe8ad"></path><path d="M5.751,11.5A5.75,5.75,0,1,1,11.5,5.749,5.759,5.759,0,0,1,5.751,11.5ZM5.666,2.917a2.832,2.832,0,1,0,2.005.831A2.821,2.821,0,0,0,5.666,2.917Z" transform="translate(255.5)" fill="#7fe8ad"></path><path d="M5.751,11.5A5.75,5.75,0,1,1,11.5,5.749,5.759,5.759,0,0,1,5.751,11.5ZM5.666,2.917a2.832,2.832,0,1,0,2.005.831A2.821,2.821,0,0,0,5.666,2.917Z" transform="translate(139)" fill="#7fe8ad"></path><path d="M5.751,11.5A5.75,5.75,0,1,1,11.5,5.749,5.759,5.759,0,0,1,5.751,11.5ZM5.666,2.917a2.832,2.832,0,1,0,2.005.831A2.821,2.821,0,0,0,5.666,2.917Z" transform="translate(46.5)" fill="#7fe8ad"></path><path d="M5.751,11.5A5.75,5.75,0,1,1,11.5,5.749,5.759,5.759,0,0,1,5.751,11.5ZM5.666,2.917a2.832,2.832,0,1,0,2.005.831A2.821,2.821,0,0,0,5.666,2.917Z" transform="translate(279)" fill="#7fe8ad"></path><path d="M5.751,11.5A5.75,5.75,0,1,1,11.5,5.749,5.759,5.759,0,0,1,5.751,11.5ZM5.666,2.917a2.832,2.832,0,1,0,2.005.831A2.821,2.821,0,0,0,5.666,2.917Z" transform="translate(162.5)" fill="#7fe8ad"></path><path d="M5.751,11.5A5.75,5.75,0,1,1,11.5,5.749,5.759,5.759,0,0,1,5.751,11.5ZM5.666,2.917a2.832,2.832,0,1,0,2.005.831A2.821,2.821,0,0,0,5.666,2.917Z" transform="translate(70)" fill="#7fe8ad"></path><path d="M5.751,11.5A5.75,5.75,0,1,1,11.5,5.749,5.759,5.759,0,0,1,5.751,11.5ZM5.666,2.917a2.832,2.832,0,1,0,2.005.831A2.821,2.821,0,0,0,5.666,2.917Z" transform="translate(185.5)" fill="#7fe8ad"></path><path d="M5.751,11.5A5.75,5.75,0,1,1,11.5,5.749,5.759,5.759,0,0,1,5.751,11.5ZM5.666,2.917a2.832,2.832,0,1,0,2.005.831A2.821,2.821,0,0,0,5.666,2.917Z" transform="translate(93.5)" fill="#7fe8ad"></path><path d="M5.751,11.5A5.75,5.75,0,1,1,11.5,5.749,5.759,5.759,0,0,1,5.751,11.5ZM5.666,2.917a2.832,2.832,0,1,0,2.005.831A2.821,2.821,0,0,0,5.666,2.917Z" transform="translate(209)" fill="#7fe8ad"></path><path d="M5.751,11.5A5.75,5.75,0,1,1,11.5,5.749,5.759,5.759,0,0,1,5.751,11.5ZM5.666,2.917a2.832,2.832,0,1,0,2.005.831A2.821,2.821,0,0,0,5.666,2.917Z" transform="translate(11.5 22.5)" fill="#7fe8ad"></path><path d="M5.751,11.5A5.75,5.75,0,1,1,11.5,5.749,5.759,5.759,0,0,1,5.751,11.5ZM5.666,2.917a2.832,2.832,0,1,0,2.005.831A2.821,2.821,0,0,0,5.666,2.917Z" transform="translate(0 45)" fill="#7fe8ad"></path><path d="M5.751,11.5A5.75,5.75,0,1,1,11.5,5.749,5.759,5.759,0,0,1,5.751,11.5ZM5.666,2.917a2.832,2.832,0,1,0,2.005.831A2.821,2.821,0,0,0,5.666,2.917Z" transform="translate(244 22.5)" fill="#7fe8ad"></path><path d="M5.751,11.5A5.75,5.75,0,1,1,11.5,5.749,5.759,5.759,0,0,1,5.751,11.5ZM5.666,2.917a2.832,2.832,0,1,0,2.005.831A2.821,2.821,0,0,0,5.666,2.917Z" transform="translate(232.5 45)" fill="#7fe8ad"></path><path d="M5.751,11.5A5.75,5.75,0,1,1,11.5,5.749,5.759,5.759,0,0,1,5.751,11.5ZM5.666,2.917a2.832,2.832,0,1,0,2.005.831A2.821,2.821,0,0,0,5.666,2.917Z" transform="translate(128.5 22.5)" fill="#7fe8ad"></path><path d="M5.751,11.5A5.75,5.75,0,1,1,11.5,5.749,5.759,5.759,0,0,1,5.751,11.5ZM5.666,2.917a2.832,2.832,0,1,0,2.005.831A2.821,2.821,0,0,0,5.666,2.917Z" transform="translate(116.5 45)" fill="#7fe8ad"></path><path d="M5.751,11.5A5.75,5.75,0,1,1,11.5,5.749,5.759,5.759,0,0,1,5.751,11.5ZM5.666,2.917a2.832,2.832,0,1,0,2.005.831A2.821,2.821,0,0,0,5.666,2.917Z" transform="translate(35 22.5)" fill="#7fe8ad"></path><path d="M5.751,11.5A5.75,5.75,0,1,1,11.5,5.749,5.759,5.759,0,0,1,5.751,11.5ZM5.666,2.917a2.832,2.832,0,1,0,2.005.831A2.821,2.821,0,0,0,5.666,2.917Z" transform="translate(23.5 45)" fill="#7fe8ad"></path><path d="M5.751,11.5A5.75,5.75,0,1,1,11.5,5.749,5.759,5.759,0,0,1,5.751,11.5ZM5.666,2.917a2.832,2.832,0,1,0,2.005.831A2.821,2.821,0,0,0,5.666,2.917Z" transform="translate(267.5 22.5)" fill="#7fe8ad"></path><path d="M5.751,11.5A5.75,5.75,0,1,1,11.5,5.749,5.759,5.759,0,0,1,5.751,11.5ZM5.666,2.917a2.832,2.832,0,1,0,2.005.831A2.821,2.821,0,0,0,5.666,2.917Z" transform="translate(255.5 45)" fill="#7fe8ad"></path><path d="M5.751,11.5A5.75,5.75,0,1,1,11.5,5.749,5.759,5.759,0,0,1,5.751,11.5ZM5.666,2.917a2.832,2.832,0,1,0,2.005.831A2.821,2.821,0,0,0,5.666,2.917Z" transform="translate(150.5 22.5)" fill="#7fe8ad"></path><path d="M5.751,11.5A5.75,5.75,0,1,1,11.5,5.749,5.759,5.759,0,0,1,5.751,11.5ZM5.666,2.917a2.832,2.832,0,1,0,2.005.831A2.821,2.821,0,0,0,5.666,2.917Z" transform="translate(139 45)" fill="#7fe8ad"></path><path d="M5.751,11.5A5.75,5.75,0,1,1,11.5,5.749,5.759,5.759,0,0,1,5.751,11.5ZM5.666,2.917a2.832,2.832,0,1,0,2.005.831A2.821,2.821,0,0,0,5.666,2.917Z" transform="translate(58.5 22.5)" fill="#7fe8ad"></path><path d="M5.751,11.5A5.75,5.75,0,1,1,11.5,5.749,5.759,5.759,0,0,1,5.751,11.5ZM5.666,2.917a2.832,2.832,0,1,0,2.005.831A2.821,2.821,0,0,0,5.666,2.917Z" transform="translate(46.5 45)" fill="#7fe8ad"></path><path d="M5.751,11.5A5.75,5.75,0,1,1,11.5,5.749,5.759,5.759,0,0,1,5.751,11.5ZM5.666,2.917a2.832,2.832,0,1,0,2.005.831A2.821,2.821,0,0,0,5.666,2.917Z" transform="translate(279 45)" fill="#7fe8ad"></path><path d="M5.751,11.5A5.75,5.75,0,1,1,11.5,5.749,5.759,5.759,0,0,1,5.751,11.5ZM5.666,2.917a2.832,2.832,0,1,0,2.005.831A2.821,2.821,0,0,0,5.666,2.917Z" transform="translate(174 22.5)" fill="#7fe8ad"></path><path d="M5.751,11.5A5.75,5.75,0,1,1,11.5,5.749,5.759,5.759,0,0,1,5.751,11.5ZM5.666,2.917a2.832,2.832,0,1,0,2.005.831A2.821,2.821,0,0,0,5.666,2.917Z" transform="translate(162.5 45)" fill="#7fe8ad"></path><path d="M5.751,11.5A5.75,5.75,0,1,1,11.5,5.749,5.759,5.759,0,0,1,5.751,11.5ZM5.666,2.917a2.832,2.832,0,1,0,2.005.831A2.821,2.821,0,0,0,5.666,2.917Z" transform="translate(81.5 22.5)" fill="#7fe8ad"></path><path d="M5.751,11.5A5.75,5.75,0,1,1,11.5,5.749,5.759,5.759,0,0,1,5.751,11.5ZM5.666,2.917a2.832,2.832,0,1,0,2.005.831A2.821,2.821,0,0,0,5.666,2.917Z" transform="translate(70 45)" fill="#7fe8ad"></path><path d="M5.751,11.5A5.75,5.75,0,1,1,11.5,5.749,5.759,5.759,0,0,1,5.751,11.5ZM5.666,2.917a2.832,2.832,0,1,0,2.005.831A2.821,2.821,0,0,0,5.666,2.917Z" transform="translate(197.5 22.5)" fill="#7fe8ad"></path><path d="M5.751,11.5A5.75,5.75,0,1,1,11.5,5.749,5.759,5.759,0,0,1,5.751,11.5ZM5.666,2.917a2.832,2.832,0,1,0,2.005.831A2.821,2.821,0,0,0,5.666,2.917Z" transform="translate(185.5 45)" fill="#7fe8ad"></path><path d="M5.751,11.5A5.75,5.75,0,1,1,11.5,5.749,5.759,5.759,0,0,1,5.751,11.5ZM5.666,2.917a2.832,2.832,0,1,0,2.005.831A2.821,2.821,0,0,0,5.666,2.917Z" transform="translate(105 22.5)" fill="#7fe8ad"></path><path d="M5.751,11.5A5.75,5.75,0,1,1,11.5,5.749,5.759,5.759,0,0,1,5.751,11.5ZM5.666,2.917a2.832,2.832,0,1,0,2.005.831A2.821,2.821,0,0,0,5.666,2.917Z" transform="translate(93.5 45)" fill="#7fe8ad"></path><path d="M5.751,11.5A5.75,5.75,0,1,1,11.5,5.749,5.759,5.759,0,0,1,5.751,11.5ZM5.666,2.917a2.832,2.832,0,1,0,2.005.831A2.821,2.821,0,0,0,5.666,2.917Z" transform="translate(220.5 22.5)" fill="#7fe8ad"></path><path d="M5.751,11.5A5.75,5.75,0,1,1,11.5,5.749,5.759,5.759,0,0,1,5.751,11.5ZM5.666,2.917a2.832,2.832,0,1,0,2.005.831A2.821,2.821,0,0,0,5.666,2.917Z" transform="translate(209 45)" fill="#7fe8ad"></path></g><g transform="translate(12 275)" opacity="0.152"><path d="M5.751,11.5A5.75,5.75,0,1,1,11.5,5.749,5.759,5.759,0,0,1,5.751,11.5ZM5.666,2.917a2.832,2.832,0,1,0,2.005.831A2.821,2.821,0,0,0,5.666,2.917Z" fill="#7fe8ad"></path><path d="M5.751,11.5A5.75,5.75,0,1,1,11.5,5.749,5.759,5.759,0,0,1,5.751,11.5ZM5.666,2.917a2.832,2.832,0,1,0,2.005.831A2.821,2.821,0,0,0,5.666,2.917Z" transform="translate(232.5)" fill="#7fe8ad"></path><path d="M5.751,11.5A5.75,5.75,0,1,1,11.5,5.749,5.759,5.759,0,0,1,5.751,11.5ZM5.666,2.917a2.832,2.832,0,1,0,2.005.831A2.821,2.821,0,0,0,5.666,2.917Z" transform="translate(116.5)" fill="#7fe8ad"></path><path d="M5.751,11.5A5.75,5.75,0,1,1,11.5,5.749,5.759,5.759,0,0,1,5.751,11.5ZM5.666,2.917a2.832,2.832,0,1,0,2.005.831A2.821,2.821,0,0,0,5.666,2.917Z" transform="translate(23.5)" fill="#7fe8ad"></path><path d="M5.751,11.5A5.75,5.75,0,1,1,11.5,5.749,5.759,5.759,0,0,1,5.751,11.5ZM5.666,2.917a2.832,2.832,0,1,0,2.005.831A2.821,2.821,0,0,0,5.666,2.917Z" transform="translate(255.5)" fill="#7fe8ad"></path><path d="M5.751,11.5A5.75,5.75,0,1,1,11.5,5.749,5.759,5.759,0,0,1,5.751,11.5ZM5.666,2.917a2.832,2.832,0,1,0,2.005.831A2.821,2.821,0,0,0,5.666,2.917Z" transform="translate(139)" fill="#7fe8ad"></path><path d="M5.751,11.5A5.75,5.75,0,1,1,11.5,5.749,5.759,5.759,0,0,1,5.751,11.5ZM5.666,2.917a2.832,2.832,0,1,0,2.005.831A2.821,2.821,0,0,0,5.666,2.917Z" transform="translate(46.5)" fill="#7fe8ad"></path><path d="M5.751,11.5A5.75,5.75,0,1,1,11.5,5.749,5.759,5.759,0,0,1,5.751,11.5ZM5.666,2.917a2.832,2.832,0,1,0,2.005.831A2.821,2.821,0,0,0,5.666,2.917Z" transform="translate(279)" fill="#7fe8ad"></path><path d="M5.751,11.5A5.75,5.75,0,1,1,11.5,5.749,5.759,5.759,0,0,1,5.751,11.5ZM5.666,2.917a2.832,2.832,0,1,0,2.005.831A2.821,2.821,0,0,0,5.666,2.917Z" transform="translate(162.5)" fill="#7fe8ad"></path><path d="M5.751,11.5A5.75,5.75,0,1,1,11.5,5.749,5.759,5.759,0,0,1,5.751,11.5ZM5.666,2.917a2.832,2.832,0,1,0,2.005.831A2.821,2.821,0,0,0,5.666,2.917Z" transform="translate(70)" fill="#7fe8ad"></path><path d="M5.751,11.5A5.75,5.75,0,1,1,11.5,5.749,5.759,5.759,0,0,1,5.751,11.5ZM5.666,2.917a2.832,2.832,0,1,0,2.005.831A2.821,2.821,0,0,0,5.666,2.917Z" transform="translate(185.5)" fill="#7fe8ad"></path><path d="M5.751,11.5A5.75,5.75,0,1,1,11.5,5.749,5.759,5.759,0,0,1,5.751,11.5ZM5.666,2.917a2.832,2.832,0,1,0,2.005.831A2.821,2.821,0,0,0,5.666,2.917Z" transform="translate(93.5)" fill="#7fe8ad"></path><path d="M5.751,11.5A5.75,5.75,0,1,1,11.5,5.749,5.759,5.759,0,0,1,5.751,11.5ZM5.666,2.917a2.832,2.832,0,1,0,2.005.831A2.821,2.821,0,0,0,5.666,2.917Z" transform="translate(209)" fill="#7fe8ad"></path><path d="M5.751,11.5A5.75,5.75,0,1,1,11.5,5.749,5.759,5.759,0,0,1,5.751,11.5ZM5.666,2.917a2.832,2.832,0,1,0,2.005.831A2.821,2.821,0,0,0,5.666,2.917Z" transform="translate(11.5 22.5)" fill="#7fe8ad"></path><path d="M5.751,11.5A5.75,5.75,0,1,1,11.5,5.749,5.759,5.759,0,0,1,5.751,11.5ZM5.666,2.917a2.832,2.832,0,1,0,2.005.831A2.821,2.821,0,0,0,5.666,2.917Z" transform="translate(0 45)" fill="#7fe8ad"></path><path d="M5.751,11.5A5.75,5.75,0,1,1,11.5,5.749,5.759,5.759,0,0,1,5.751,11.5ZM5.666,2.917a2.832,2.832,0,1,0,2.005.831A2.821,2.821,0,0,0,5.666,2.917Z" transform="translate(244 22.5)" fill="#7fe8ad"></path><path d="M5.751,11.5A5.75,5.75,0,1,1,11.5,5.749,5.759,5.759,0,0,1,5.751,11.5ZM5.666,2.917a2.832,2.832,0,1,0,2.005.831A2.821,2.821,0,0,0,5.666,2.917Z" transform="translate(232.5 45)" fill="#7fe8ad"></path><path d="M5.751,11.5A5.75,5.75,0,1,1,11.5,5.749,5.759,5.759,0,0,1,5.751,11.5ZM5.666,2.917a2.832,2.832,0,1,0,2.005.831A2.821,2.821,0,0,0,5.666,2.917Z" transform="translate(128.5 22.5)" fill="#7fe8ad"></path><path d="M5.751,11.5A5.75,5.75,0,1,1,11.5,5.749,5.759,5.759,0,0,1,5.751,11.5ZM5.666,2.917a2.832,2.832,0,1,0,2.005.831A2.821,2.821,0,0,0,5.666,2.917Z" transform="translate(116.5 45)" fill="#7fe8ad"></path><path d="M5.751,11.5A5.75,5.75,0,1,1,11.5,5.749,5.759,5.759,0,0,1,5.751,11.5ZM5.666,2.917a2.832,2.832,0,1,0,2.005.831A2.821,2.821,0,0,0,5.666,2.917Z" transform="translate(35 22.5)" fill="#7fe8ad"></path><path d="M5.751,11.5A5.75,5.75,0,1,1,11.5,5.749,5.759,5.759,0,0,1,5.751,11.5ZM5.666,2.917a2.832,2.832,0,1,0,2.005.831A2.821,2.821,0,0,0,5.666,2.917Z" transform="translate(23.5 45)" fill="#7fe8ad"></path><path d="M5.751,11.5A5.75,5.75,0,1,1,11.5,5.749,5.759,5.759,0,0,1,5.751,11.5ZM5.666,2.917a2.832,2.832,0,1,0,2.005.831A2.821,2.821,0,0,0,5.666,2.917Z" transform="translate(267.5 22.5)" fill="#7fe8ad"></path><path d="M5.751,11.5A5.75,5.75,0,1,1,11.5,5.749,5.759,5.759,0,0,1,5.751,11.5ZM5.666,2.917a2.832,2.832,0,1,0,2.005.831A2.821,2.821,0,0,0,5.666,2.917Z" transform="translate(255.5 45)" fill="#7fe8ad"></path><path d="M5.751,11.5A5.75,5.75,0,1,1,11.5,5.749,5.759,5.759,0,0,1,5.751,11.5ZM5.666,2.917a2.832,2.832,0,1,0,2.005.831A2.821,2.821,0,0,0,5.666,2.917Z" transform="translate(150.5 22.5)" fill="#7fe8ad"></path><path d="M5.751,11.5A5.75,5.75,0,1,1,11.5,5.749,5.759,5.759,0,0,1,5.751,11.5ZM5.666,2.917a2.832,2.832,0,1,0,2.005.831A2.821,2.821,0,0,0,5.666,2.917Z" transform="translate(139 45)" fill="#7fe8ad"></path><path d="M5.751,11.5A5.75,5.75,0,1,1,11.5,5.749,5.759,5.759,0,0,1,5.751,11.5ZM5.666,2.917a2.832,2.832,0,1,0,2.005.831A2.821,2.821,0,0,0,5.666,2.917Z" transform="translate(58.5 22.5)" fill="#7fe8ad"></path><path d="M5.751,11.5A5.75,5.75,0,1,1,11.5,5.749,5.759,5.759,0,0,1,5.751,11.5ZM5.666,2.917a2.832,2.832,0,1,0,2.005.831A2.821,2.821,0,0,0,5.666,2.917Z" transform="translate(46.5 45)" fill="#7fe8ad"></path><path d="M5.751,11.5A5.75,5.75,0,1,1,11.5,5.749,5.759,5.759,0,0,1,5.751,11.5ZM5.666,2.917a2.832,2.832,0,1,0,2.005.831A2.821,2.821,0,0,0,5.666,2.917Z" transform="translate(279 45)" fill="#7fe8ad"></path><path d="M5.751,11.5A5.75,5.75,0,1,1,11.5,5.749,5.759,5.759,0,0,1,5.751,11.5ZM5.666,2.917a2.832,2.832,0,1,0,2.005.831A2.821,2.821,0,0,0,5.666,2.917Z" transform="translate(174 22.5)" fill="#7fe8ad"></path><path d="M5.751,11.5A5.75,5.75,0,1,1,11.5,5.749,5.759,5.759,0,0,1,5.751,11.5ZM5.666,2.917a2.832,2.832,0,1,0,2.005.831A2.821,2.821,0,0,0,5.666,2.917Z" transform="translate(162.5 45)" fill="#7fe8ad"></path><path d="M5.751,11.5A5.75,5.75,0,1,1,11.5,5.749,5.759,5.759,0,0,1,5.751,11.5ZM5.666,2.917a2.832,2.832,0,1,0,2.005.831A2.821,2.821,0,0,0,5.666,2.917Z" transform="translate(81.5 22.5)" fill="#7fe8ad"></path><path d="M5.751,11.5A5.75,5.75,0,1,1,11.5,5.749,5.759,5.759,0,0,1,5.751,11.5ZM5.666,2.917a2.832,2.832,0,1,0,2.005.831A2.821,2.821,0,0,0,5.666,2.917Z" transform="translate(70 45)" fill="#7fe8ad"></path><path d="M5.751,11.5A5.75,5.75,0,1,1,11.5,5.749,5.759,5.759,0,0,1,5.751,11.5ZM5.666,2.917a2.832,2.832,0,1,0,2.005.831A2.821,2.821,0,0,0,5.666,2.917Z" transform="translate(197.5 22.5)" fill="#7fe8ad"></path><path d="M5.751,11.5A5.75,5.75,0,1,1,11.5,5.749,5.759,5.759,0,0,1,5.751,11.5ZM5.666,2.917a2.832,2.832,0,1,0,2.005.831A2.821,2.821,0,0,0,5.666,2.917Z" transform="translate(185.5 45)" fill="#7fe8ad"></path><path d="M5.751,11.5A5.75,5.75,0,1,1,11.5,5.749,5.759,5.759,0,0,1,5.751,11.5ZM5.666,2.917a2.832,2.832,0,1,0,2.005.831A2.821,2.821,0,0,0,5.666,2.917Z" transform="translate(105 22.5)" fill="#7fe8ad"></path><path d="M5.751,11.5A5.75,5.75,0,1,1,11.5,5.749,5.759,5.759,0,0,1,5.751,11.5ZM5.666,2.917a2.832,2.832,0,1,0,2.005.831A2.821,2.821,0,0,0,5.666,2.917Z" transform="translate(93.5 45)" fill="#7fe8ad"></path><path d="M5.751,11.5A5.75,5.75,0,1,1,11.5,5.749,5.759,5.759,0,0,1,5.751,11.5ZM5.666,2.917a2.832,2.832,0,1,0,2.005.831A2.821,2.821,0,0,0,5.666,2.917Z" transform="translate(220.5 22.5)" fill="#7fe8ad"></path><path d="M5.751,11.5A5.75,5.75,0,1,1,11.5,5.749,5.759,5.759,0,0,1,5.751,11.5ZM5.666,2.917a2.832,2.832,0,1,0,2.005.831A2.821,2.821,0,0,0,5.666,2.917Z" transform="translate(209 45)" fill="#7fe8ad"></path></g></g></svg> 