<?xml version="1.0" encoding="UTF-8"?> <svg xmlns="http://www.w3.org/2000/svg" xmlns:xlink="http://www.w3.org/1999/xlink" width="680.766" height="478" viewBox="0 0 680.766 478"><defs><clipPath id="a"><rect width="326" height="251" fill="none"></rect></clipPath><clipPath id="b"><path d="M0,0H15.146V4.2H0Z" transform="translate(0.689 0.565)" fill="none"></path></clipPath><clipPath id="c"><path d="M0,0H15.146V4.2H0Z" transform="translate(0.502 0.565)" fill="none"></path></clipPath><clipPath id="d"><path d="M0,0H15.146V4.2H0Z" transform="translate(0.313 0.565)" fill="none"></path></clipPath><clipPath id="e"><path d="M0,0H15.146V4.2H0Z" transform="translate(0.126 0.565)" fill="none"></path></clipPath><clipPath id="f"><path d="M0,0H15.146V4.2H0Z" transform="translate(0.938 0.565)" fill="none"></path></clipPath><clipPath id="g"><path d="M0,0H15.146V4.2H0Z" transform="translate(0.75 0.565)" fill="none"></path></clipPath><clipPath id="h"><path d="M0,0H15.146V4.2H0Z" transform="translate(0.562 0.565)" fill="none"></path></clipPath><clipPath id="i"><path d="M0,0H15.146V4.2H0Z" transform="translate(0.375 0.565)" fill="none"></path></clipPath><clipPath id="j"><path d="M0,0H15.146V4.2H0Z" transform="translate(0.187 0.565)" fill="none"></path></clipPath><clipPath id="k"><path d="M0,0H15.146V4.2H0Z" transform="translate(0.999 0.565)" fill="none"></path></clipPath><clipPath id="l"><path d="M0,0H15.146V4.2H0Z" transform="translate(0.811 0.565)" fill="none"></path></clipPath><clipPath id="m"><path d="M0,0H15.146V4.2H0Z" transform="translate(0.623 0.565)" fill="none"></path></clipPath><clipPath id="n"><path d="M0,0H15.146V4.2H0Z" transform="translate(0.435 0.565)" fill="none"></path></clipPath><clipPath id="o"><path d="M0,0H15.146V4.2H0Z" transform="translate(0.247 0.565)" fill="none"></path></clipPath><clipPath id="p"><path d="M0,0H15.146V4.2H0Z" transform="translate(0.059 0.565)" fill="none"></path></clipPath><clipPath id="q"><path d="M0,0H15.146V4.2H0Z" transform="translate(0.872 0.565)" fill="none"></path></clipPath><clipPath id="r"><path d="M0,0H15.146V4.2H0Z" transform="translate(0.684 0.565)" fill="none"></path></clipPath><clipPath id="s"><path d="M0,0H15.146V4.2H0Z" transform="translate(0.496 0.565)" fill="none"></path></clipPath></defs><g transform="translate(1.766 23.984)"><g transform="translate(272 52.516)"><rect width="326" height="251" fill="none"></rect><g clip-path="url(#a)"><g transform="translate(-208 -48)" opacity="0.22"><g transform="translate(14 0.435)"><path d="M0,0H15.146V4.2H0Z" transform="translate(0.689 0.565)" fill="none"></path><g clip-path="url(#b)"><path d="M13.217,4.2l1.929-1.922A13.642,13.642,0,0,0,7.556,0,13.641,13.641,0,0,0,0,2.257L1.942,4.2A11.183,11.183,0,0,1,7.563,2.7h.01A11.218,11.218,0,0,1,13.217,4.2" transform="translate(0.689 0.565)" fill="#f66c69"></path></g></g><g transform="translate(44 0.435)"><path d="M0,0H15.146V4.2H0Z" transform="translate(0.502 0.565)" fill="none"></path><g clip-path="url(#c)"><path d="M13.217,4.2l1.929-1.922A13.642,13.642,0,0,0,7.556,0,13.641,13.641,0,0,0,0,2.257L1.942,4.2A11.183,11.183,0,0,1,7.563,2.7h.01A11.218,11.218,0,0,1,13.217,4.2" transform="translate(0.502 0.565)" fill="#f66c69"></path></g></g><g transform="translate(74 0.435)"><path d="M0,0H15.146V4.2H0Z" transform="translate(0.313 0.565)" fill="none"></path><g clip-path="url(#d)"><path d="M13.217,4.2l1.929-1.922A13.642,13.642,0,0,0,7.556,0,13.641,13.641,0,0,0,0,2.257L1.942,4.2A11.183,11.183,0,0,1,7.563,2.7h.01A11.218,11.218,0,0,1,13.217,4.2" transform="translate(0.313 0.565)" fill="#f66c69"></path></g></g><g transform="translate(104 0.435)"><path d="M0,0H15.146V4.2H0Z" transform="translate(0.126 0.565)" fill="none"></path><g clip-path="url(#e)"><path d="M13.217,4.2l1.929-1.922A13.642,13.642,0,0,0,7.556,0,13.641,13.641,0,0,0,0,2.257L1.942,4.2A11.183,11.183,0,0,1,7.563,2.7h.01A11.218,11.218,0,0,1,13.217,4.2" transform="translate(0.126 0.565)" fill="#f66c69"></path></g></g><g transform="translate(133 0.435)"><path d="M0,0H15.146V4.2H0Z" transform="translate(0.938 0.565)" fill="none"></path><g clip-path="url(#f)"><path d="M13.217,4.2l1.929-1.922A13.642,13.642,0,0,0,7.556,0,13.641,13.641,0,0,0,0,2.257L1.942,4.2A11.183,11.183,0,0,1,7.563,2.7h.01A11.218,11.218,0,0,1,13.217,4.2" transform="translate(0.938 0.565)" fill="#f66c69"></path></g></g><g transform="translate(163 0.435)"><path d="M0,0H15.146V4.2H0Z" transform="translate(0.75 0.565)" fill="none"></path><g clip-path="url(#g)"><path d="M13.217,4.2l1.929-1.922A13.642,13.642,0,0,0,7.556,0,13.641,13.641,0,0,0,0,2.257L1.942,4.2A11.183,11.183,0,0,1,7.563,2.7h.01A11.218,11.218,0,0,1,13.217,4.2" transform="translate(0.75 0.565)" fill="#f66c69"></path></g></g><g transform="translate(193 0.435)"><path d="M0,0H15.146V4.2H0Z" transform="translate(0.562 0.565)" fill="none"></path><g clip-path="url(#h)"><path d="M13.217,4.2l1.929-1.922A13.642,13.642,0,0,0,7.556,0,13.641,13.641,0,0,0,0,2.257L1.942,4.2A11.183,11.183,0,0,1,7.563,2.7h.01A11.218,11.218,0,0,1,13.217,4.2" transform="translate(0.562 0.565)" fill="#f66c69"></path></g></g><g transform="translate(223 0.435)"><path d="M0,0H15.146V4.2H0Z" transform="translate(0.375 0.565)" fill="none"></path><g clip-path="url(#i)"><path d="M13.217,4.2l1.929-1.922A13.642,13.642,0,0,0,7.556,0,13.641,13.641,0,0,0,0,2.257L1.942,4.2A11.183,11.183,0,0,1,7.563,2.7h.01A11.218,11.218,0,0,1,13.217,4.2" transform="translate(0.375 0.565)" fill="#f66c69"></path></g></g><g transform="translate(253 0.435)"><path d="M0,0H15.146V4.2H0Z" transform="translate(0.187 0.565)" fill="none"></path><g clip-path="url(#j)"><path d="M13.217,4.2l1.929-1.922A13.642,13.642,0,0,0,7.556,0,13.641,13.641,0,0,0,0,2.257L1.942,4.2A11.183,11.183,0,0,1,7.563,2.7h.01A11.218,11.218,0,0,1,13.217,4.2" transform="translate(0.187 0.565)" fill="#f66c69"></path></g></g><g transform="translate(282 0.435)"><path d="M0,0H15.146V4.2H0Z" transform="translate(0.999 0.565)" fill="none"></path><g clip-path="url(#k)"><path d="M13.217,4.2l1.929-1.922A13.642,13.642,0,0,0,7.556,0,13.641,13.641,0,0,0,0,2.257L1.942,4.2A11.183,11.183,0,0,1,7.563,2.7h.01A11.218,11.218,0,0,1,13.217,4.2" transform="translate(0.999 0.565)" fill="#f66c69"></path></g></g><g transform="translate(312 0.435)"><path d="M0,0H15.146V4.2H0Z" transform="translate(0.811 0.565)" fill="none"></path><g clip-path="url(#l)"><path d="M13.217,4.2l1.929-1.922A13.642,13.642,0,0,0,7.556,0,13.641,13.641,0,0,0,0,2.257L1.942,4.2A11.183,11.183,0,0,1,7.563,2.7h.01A11.218,11.218,0,0,1,13.217,4.2" transform="translate(0.811 0.565)" fill="#f66c69"></path></g></g><g transform="translate(342 0.435)"><path d="M0,0H15.146V4.2H0Z" transform="translate(0.623 0.565)" fill="none"></path><g clip-path="url(#m)"><path d="M13.217,4.2l1.929-1.922A13.642,13.642,0,0,0,7.556,0,13.641,13.641,0,0,0,0,2.257L1.942,4.2A11.183,11.183,0,0,1,7.563,2.7h.01A11.218,11.218,0,0,1,13.217,4.2" transform="translate(0.623 0.565)" fill="#f66c69"></path></g></g><g transform="translate(372 0.435)"><path d="M0,0H15.146V4.2H0Z" transform="translate(0.435 0.565)" fill="none"></path><g clip-path="url(#n)"><path d="M13.217,4.2l1.929-1.922A13.642,13.642,0,0,0,7.556,0,13.641,13.641,0,0,0,0,2.257L1.942,4.2A11.183,11.183,0,0,1,7.563,2.7h.01A11.218,11.218,0,0,1,13.217,4.2" transform="translate(0.435 0.565)" fill="#f66c69"></path></g></g><g transform="translate(402 0.435)"><path d="M0,0H15.146V4.2H0Z" transform="translate(0.247 0.565)" fill="none"></path><g clip-path="url(#o)"><path d="M13.217,4.2l1.929-1.922A13.642,13.642,0,0,0,7.556,0,13.641,13.641,0,0,0,0,2.257L1.942,4.2A11.183,11.183,0,0,1,7.563,2.7h.01A11.218,11.218,0,0,1,13.217,4.2" transform="translate(0.247 0.565)" fill="#f66c69"></path></g></g><g transform="translate(432 0.435)"><path d="M0,0H15.146V4.2H0Z" transform="translate(0.059 0.565)" fill="none"></path><g clip-path="url(#p)"><path d="M13.217,4.2l1.929-1.922A13.642,13.642,0,0,0,7.556,0,13.641,13.641,0,0,0,0,2.257L1.942,4.2A11.183,11.183,0,0,1,7.563,2.7h.01A11.218,11.218,0,0,1,13.217,4.2" transform="translate(0.059 0.565)" fill="#f66c69"></path></g></g><g transform="translate(461 0.435)"><path d="M0,0H15.146V4.2H0Z" transform="translate(0.872 0.565)" fill="none"></path><g clip-path="url(#q)"><path d="M13.217,4.2l1.929-1.922A13.642,13.642,0,0,0,7.556,0,13.641,13.641,0,0,0,0,2.257L1.942,4.2A11.183,11.183,0,0,1,7.563,2.7h.01A11.218,11.218,0,0,1,13.217,4.2" transform="translate(0.872 0.565)" fill="#f66c69"></path></g></g><g transform="translate(491 0.435)"><path d="M0,0H15.146V4.2H0Z" transform="translate(0.684 0.565)" fill="none"></path><g clip-path="url(#r)"><path d="M13.217,4.2l1.929-1.922A13.642,13.642,0,0,0,7.556,0,13.641,13.641,0,0,0,0,2.257L1.942,4.2A11.183,11.183,0,0,1,7.563,2.7h.01A11.218,11.218,0,0,1,13.217,4.2" transform="translate(0.684 0.565)" fill="#f66c69"></path></g></g><g transform="translate(521 0.435)"><path d="M0,0H15.146V4.2H0Z" transform="translate(0.496 0.565)" fill="none"></path><g clip-path="url(#s)"><path d="M13.217,4.2l1.929-1.922A13.642,13.642,0,0,0,7.556,0,13.641,13.641,0,0,0,0,2.257L1.942,4.2A11.183,11.183,0,0,1,7.563,2.7h.01A11.218,11.218,0,0,1,13.217,4.2" transform="translate(0.496 0.565)" fill="#f66c69"></path></g></g><path d="M13.217,4.2l1.929-1.922A13.642,13.642,0,0,0,7.556,0,13.641,13.641,0,0,0,0,2.257L1.942,4.2A11.183,11.183,0,0,1,7.563,2.7h.01A11.218,11.218,0,0,1,13.217,4.2" transform="translate(0 15.139)" fill="#f66c69"></path><path d="M13.217,4.2l1.929-1.922A13.642,13.642,0,0,0,7.556,0,13.641,13.641,0,0,0,0,2.257L1.942,4.2A11.183,11.183,0,0,1,7.563,2.7h.01A11.218,11.218,0,0,1,13.217,4.2" transform="translate(29.813 15.139)" fill="#f66c69"></path><path d="M13.217,4.2l1.929-1.922A13.642,13.642,0,0,0,7.556,0,13.641,13.641,0,0,0,0,2.257L1.942,4.2A11.183,11.183,0,0,1,7.563,2.7h.01A11.218,11.218,0,0,1,13.217,4.2" transform="translate(59.625 15.139)" fill="#f66c69"></path><path d="M13.217,4.2l1.929-1.922A13.642,13.642,0,0,0,7.556,0,13.641,13.641,0,0,0,0,2.257L1.942,4.2A11.183,11.183,0,0,1,7.563,2.7h.01A11.218,11.218,0,0,1,13.217,4.2" transform="translate(89.437 15.139)" fill="#f66c69"></path><path d="M13.217,4.2l1.929-1.922A13.642,13.642,0,0,0,7.556,0,13.641,13.641,0,0,0,0,2.257L1.942,4.2A11.183,11.183,0,0,1,7.563,2.7h.01A11.218,11.218,0,0,1,13.217,4.2" transform="translate(119.249 15.139)" fill="#f66c69"></path><path d="M13.217,4.2l1.929-1.922A13.642,13.642,0,0,0,7.556,0,13.641,13.641,0,0,0,0,2.257L1.942,4.2A11.183,11.183,0,0,1,7.563,2.7h.01A11.218,11.218,0,0,1,13.217,4.2" transform="translate(149.061 15.139)" fill="#f66c69"></path><path d="M13.217,4.2l1.929-1.922A13.642,13.642,0,0,0,7.556,0,13.641,13.641,0,0,0,0,2.257L1.942,4.2A11.183,11.183,0,0,1,7.563,2.7h.01A11.218,11.218,0,0,1,13.217,4.2" transform="translate(178.873 15.139)" fill="#f66c69"></path><path d="M13.217,4.2l1.929-1.922A13.642,13.642,0,0,0,7.556,0,13.641,13.641,0,0,0,0,2.257L1.942,4.2A11.183,11.183,0,0,1,7.563,2.7h.01A11.218,11.218,0,0,1,13.217,4.2" transform="translate(208.685 15.139)" fill="#f66c69"></path><path d="M13.217,4.2l1.929-1.922A13.642,13.642,0,0,0,7.556,0,13.641,13.641,0,0,0,0,2.257L1.942,4.2A11.183,11.183,0,0,1,7.563,2.7h.01A11.218,11.218,0,0,1,13.217,4.2" transform="translate(238.497 15.139)" fill="#f66c69"></path><path d="M13.217,4.2l1.929-1.922A13.642,13.642,0,0,0,7.556,0,13.641,13.641,0,0,0,0,2.257L1.942,4.2A11.183,11.183,0,0,1,7.563,2.7h.01A11.218,11.218,0,0,1,13.217,4.2" transform="translate(268.31 15.139)" fill="#f66c69"></path><path d="M13.217,4.2l1.929-1.922A13.642,13.642,0,0,0,7.556,0,13.641,13.641,0,0,0,0,2.257L1.942,4.2A11.183,11.183,0,0,1,7.563,2.7h.01A11.218,11.218,0,0,1,13.217,4.2" transform="translate(298.122 15.139)" fill="#f66c69"></path><path d="M13.217,4.2l1.929-1.922A13.642,13.642,0,0,0,7.556,0,13.641,13.641,0,0,0,0,2.257L1.942,4.2A11.183,11.183,0,0,1,7.563,2.7h.01A11.218,11.218,0,0,1,13.217,4.2" transform="translate(327.934 15.139)" fill="#f66c69"></path><path d="M13.217,4.2l1.929-1.922A13.642,13.642,0,0,0,7.556,0,13.641,13.641,0,0,0,0,2.257L1.942,4.2A11.183,11.183,0,0,1,7.563,2.7h.01A11.218,11.218,0,0,1,13.217,4.2" transform="translate(357.746 15.139)" fill="#f66c69"></path><path d="M13.217,4.2l1.929-1.922A13.642,13.642,0,0,0,7.556,0,13.641,13.641,0,0,0,0,2.257L1.942,4.2A11.183,11.183,0,0,1,7.563,2.7h.01A11.218,11.218,0,0,1,13.217,4.2" transform="translate(387.558 15.139)" fill="#f66c69"></path><path d="M13.217,4.2l1.929-1.922A13.642,13.642,0,0,0,7.556,0,13.641,13.641,0,0,0,0,2.257L1.942,4.2A11.183,11.183,0,0,1,7.563,2.7h.01A11.218,11.218,0,0,1,13.217,4.2" transform="translate(417.37 15.139)" fill="#f66c69"></path><path d="M13.217,4.2l1.929-1.922A13.642,13.642,0,0,0,7.556,0,13.641,13.641,0,0,0,0,2.257L1.942,4.2A11.183,11.183,0,0,1,7.563,2.7h.01A11.218,11.218,0,0,1,13.217,4.2" transform="translate(447.182 15.139)" fill="#f66c69"></path><path d="M13.217,4.2l1.929-1.922A13.642,13.642,0,0,0,7.556,0,13.641,13.641,0,0,0,0,2.257L1.942,4.2A11.183,11.183,0,0,1,7.563,2.7h.01A11.218,11.218,0,0,1,13.217,4.2" transform="translate(476.994 15.139)" fill="#f66c69"></path><path d="M13.217,4.2l1.929-1.922A13.642,13.642,0,0,0,7.556,0,13.641,13.641,0,0,0,0,2.257L1.942,4.2A11.183,11.183,0,0,1,7.563,2.7h.01A11.218,11.218,0,0,1,13.217,4.2" transform="translate(506.807 15.139)" fill="#f66c69"></path><path d="M13.217,4.2l1.929-1.922A13.642,13.642,0,0,0,7.556,0,13.641,13.641,0,0,0,0,2.257L1.942,4.2A11.183,11.183,0,0,1,7.563,2.7h.01A11.218,11.218,0,0,1,13.217,4.2" transform="translate(14.689 29.279)" fill="#f66c69"></path><path d="M13.217,4.2l1.929-1.922A13.642,13.642,0,0,0,7.556,0,13.641,13.641,0,0,0,0,2.257L1.942,4.2A11.183,11.183,0,0,1,7.563,2.7h.01A11.218,11.218,0,0,1,13.217,4.2" transform="translate(44.501 29.279)" fill="#f66c69"></path><path d="M13.217,4.2l1.929-1.922A13.642,13.642,0,0,0,7.556,0,13.641,13.641,0,0,0,0,2.257L1.942,4.2A11.183,11.183,0,0,1,7.563,2.7h.01A11.218,11.218,0,0,1,13.217,4.2" transform="translate(74.313 29.279)" fill="#f66c69"></path><path d="M13.217,4.2l1.929-1.922A13.642,13.642,0,0,0,7.556,0,13.641,13.641,0,0,0,0,2.257L1.942,4.2A11.183,11.183,0,0,1,7.563,2.7h.01A11.218,11.218,0,0,1,13.217,4.2" transform="translate(104.126 29.279)" fill="#f66c69"></path><path d="M13.217,4.2l1.929-1.922A13.642,13.642,0,0,0,7.556,0,13.641,13.641,0,0,0,0,2.257L1.942,4.2A11.183,11.183,0,0,1,7.563,2.7h.01A11.218,11.218,0,0,1,13.217,4.2" transform="translate(133.938 29.279)" fill="#f66c69"></path><path d="M13.217,4.2l1.929-1.922A13.642,13.642,0,0,0,7.556,0,13.641,13.641,0,0,0,0,2.257L1.942,4.2A11.183,11.183,0,0,1,7.563,2.7h.01A11.218,11.218,0,0,1,13.217,4.2" transform="translate(163.75 29.279)" fill="#f66c69"></path><path d="M13.217,4.2l1.929-1.922A13.642,13.642,0,0,0,7.556,0,13.641,13.641,0,0,0,0,2.257L1.942,4.2A11.183,11.183,0,0,1,7.563,2.7h.01A11.218,11.218,0,0,1,13.217,4.2" transform="translate(193.562 29.279)" fill="#f66c69"></path><path d="M13.217,4.2l1.929-1.922A13.642,13.642,0,0,0,7.556,0,13.641,13.641,0,0,0,0,2.257L1.942,4.2A11.183,11.183,0,0,1,7.563,2.7h.01A11.218,11.218,0,0,1,13.217,4.2" transform="translate(223.375 29.279)" fill="#f66c69"></path><path d="M13.217,4.2l1.929-1.922A13.642,13.642,0,0,0,7.556,0,13.641,13.641,0,0,0,0,2.257L1.942,4.2A11.183,11.183,0,0,1,7.563,2.7h.01A11.218,11.218,0,0,1,13.217,4.2" transform="translate(253.187 29.279)" fill="#f66c69"></path><path d="M13.217,4.2l1.929-1.922A13.642,13.642,0,0,0,7.556,0,13.641,13.641,0,0,0,0,2.257L1.942,4.2A11.183,11.183,0,0,1,7.563,2.7h.01A11.218,11.218,0,0,1,13.217,4.2" transform="translate(282.999 29.279)" fill="#f66c69"></path><path d="M13.217,4.2l1.929-1.922A13.642,13.642,0,0,0,7.556,0,13.641,13.641,0,0,0,0,2.257L1.942,4.2A11.183,11.183,0,0,1,7.563,2.7h.01A11.218,11.218,0,0,1,13.217,4.2" transform="translate(312.811 29.279)" fill="#f66c69"></path><path d="M13.217,4.2l1.929-1.922A13.642,13.642,0,0,0,7.556,0,13.641,13.641,0,0,0,0,2.257L1.942,4.2A11.183,11.183,0,0,1,7.563,2.7h.01A11.218,11.218,0,0,1,13.217,4.2" transform="translate(342.623 29.279)" fill="#f66c69"></path><path d="M13.217,4.2l1.929-1.922A13.642,13.642,0,0,0,7.556,0,13.641,13.641,0,0,0,0,2.257L1.942,4.2A11.183,11.183,0,0,1,7.563,2.7h.01A11.218,11.218,0,0,1,13.217,4.2" transform="translate(372.435 29.279)" fill="#f66c69"></path><path d="M13.217,4.2l1.929-1.922A13.642,13.642,0,0,0,7.556,0,13.641,13.641,0,0,0,0,2.257L1.942,4.2A11.183,11.183,0,0,1,7.563,2.7h.01A11.218,11.218,0,0,1,13.217,4.2" transform="translate(402.247 29.279)" fill="#f66c69"></path><path d="M13.217,4.2l1.929-1.922A13.642,13.642,0,0,0,7.556,0,13.641,13.641,0,0,0,0,2.257L1.942,4.2A11.183,11.183,0,0,1,7.563,2.7h.01A11.218,11.218,0,0,1,13.217,4.2" transform="translate(432.059 29.279)" fill="#f66c69"></path><path d="M13.217,4.2l1.929-1.922A13.642,13.642,0,0,0,7.556,0,13.641,13.641,0,0,0,0,2.257L1.942,4.2A11.183,11.183,0,0,1,7.563,2.7h.01A11.218,11.218,0,0,1,13.217,4.2" transform="translate(461.872 29.279)" fill="#f66c69"></path><path d="M13.217,4.2l1.929-1.922A13.642,13.642,0,0,0,7.556,0,13.641,13.641,0,0,0,0,2.257L1.942,4.2A11.183,11.183,0,0,1,7.563,2.7h.01A11.218,11.218,0,0,1,13.217,4.2" transform="translate(491.684 29.279)" fill="#f66c69"></path><path d="M13.217,4.2l1.929-1.922A13.642,13.642,0,0,0,7.556,0,13.641,13.641,0,0,0,0,2.257L1.942,4.2A11.183,11.183,0,0,1,7.563,2.7h.01A11.218,11.218,0,0,1,13.217,4.2" transform="translate(521.496 29.279)" fill="#f66c69"></path><path d="M13.217,4.2l1.929-1.922A13.642,13.642,0,0,0,7.556,0,13.641,13.641,0,0,0,0,2.257L1.942,4.2A11.183,11.183,0,0,1,7.563,2.7h.01A11.218,11.218,0,0,1,13.217,4.2" transform="translate(0 43.419)" fill="#f66c69"></path><path d="M13.217,4.2l1.929-1.922A13.642,13.642,0,0,0,7.556,0,13.641,13.641,0,0,0,0,2.257L1.942,4.2A11.183,11.183,0,0,1,7.563,2.7h.01A11.218,11.218,0,0,1,13.217,4.2" transform="translate(29.813 43.419)" fill="#f66c69"></path><path d="M13.217,4.2l1.929-1.922A13.642,13.642,0,0,0,7.556,0,13.641,13.641,0,0,0,0,2.257L1.942,4.2A11.183,11.183,0,0,1,7.563,2.7h.01A11.218,11.218,0,0,1,13.217,4.2" transform="translate(59.625 43.419)" fill="#f66c69"></path><path d="M13.217,4.2l1.929-1.922A13.642,13.642,0,0,0,7.556,0,13.641,13.641,0,0,0,0,2.257L1.942,4.2A11.183,11.183,0,0,1,7.563,2.7h.01A11.218,11.218,0,0,1,13.217,4.2" transform="translate(89.437 43.419)" fill="#f66c69"></path><path d="M13.217,4.2l1.929-1.922A13.642,13.642,0,0,0,7.556,0,13.641,13.641,0,0,0,0,2.257L1.942,4.2A11.183,11.183,0,0,1,7.563,2.7h.01A11.218,11.218,0,0,1,13.217,4.2" transform="translate(119.249 43.419)" fill="#f66c69"></path><path d="M13.217,4.2l1.929-1.922A13.642,13.642,0,0,0,7.556,0,13.641,13.641,0,0,0,0,2.257L1.942,4.2A11.183,11.183,0,0,1,7.563,2.7h.01A11.218,11.218,0,0,1,13.217,4.2" transform="translate(149.061 43.419)" fill="#f66c69"></path><path d="M13.217,4.2l1.929-1.922A13.642,13.642,0,0,0,7.556,0,13.641,13.641,0,0,0,0,2.257L1.942,4.2A11.183,11.183,0,0,1,7.563,2.7h.01A11.218,11.218,0,0,1,13.217,4.2" transform="translate(178.873 43.419)" fill="#f66c69"></path><path d="M13.217,4.2l1.929-1.922A13.642,13.642,0,0,0,7.556,0,13.641,13.641,0,0,0,0,2.257L1.942,4.2A11.183,11.183,0,0,1,7.563,2.7h.01A11.218,11.218,0,0,1,13.217,4.2" transform="translate(208.685 43.419)" fill="#f66c69"></path><path d="M13.217,4.2l1.929-1.922A13.642,13.642,0,0,0,7.556,0,13.641,13.641,0,0,0,0,2.257L1.942,4.2A11.183,11.183,0,0,1,7.563,2.7h.01A11.218,11.218,0,0,1,13.217,4.2" transform="translate(238.497 43.419)" fill="#f66c69"></path><path d="M13.217,4.2l1.929-1.922A13.642,13.642,0,0,0,7.556,0,13.641,13.641,0,0,0,0,2.257L1.942,4.2A11.183,11.183,0,0,1,7.563,2.7h.01A11.218,11.218,0,0,1,13.217,4.2" transform="translate(268.31 43.419)" fill="#f66c69"></path><path d="M13.217,4.2l1.929-1.922A13.642,13.642,0,0,0,7.556,0,13.641,13.641,0,0,0,0,2.257L1.942,4.2A11.183,11.183,0,0,1,7.563,2.7h.01A11.218,11.218,0,0,1,13.217,4.2" transform="translate(298.122 43.419)" fill="#f66c69"></path><path d="M13.217,4.2l1.929-1.922A13.642,13.642,0,0,0,7.556,0,13.641,13.641,0,0,0,0,2.257L1.942,4.2A11.183,11.183,0,0,1,7.563,2.7h.01A11.218,11.218,0,0,1,13.217,4.2" transform="translate(327.934 43.419)" fill="#f66c69"></path><path d="M13.217,4.2l1.929-1.922A13.642,13.642,0,0,0,7.556,0,13.641,13.641,0,0,0,0,2.257L1.942,4.2A11.183,11.183,0,0,1,7.563,2.7h.01A11.218,11.218,0,0,1,13.217,4.2" transform="translate(357.746 43.419)" fill="#f66c69"></path><path d="M13.217,4.2l1.929-1.922A13.642,13.642,0,0,0,7.556,0,13.641,13.641,0,0,0,0,2.257L1.942,4.2A11.183,11.183,0,0,1,7.563,2.7h.01A11.218,11.218,0,0,1,13.217,4.2" transform="translate(387.558 43.419)" fill="#f66c69"></path><path d="M13.217,4.2l1.929-1.922A13.642,13.642,0,0,0,7.556,0,13.641,13.641,0,0,0,0,2.257L1.942,4.2A11.183,11.183,0,0,1,7.563,2.7h.01A11.218,11.218,0,0,1,13.217,4.2" transform="translate(417.37 43.419)" fill="#f66c69"></path><path d="M13.217,4.2l1.929-1.922A13.642,13.642,0,0,0,7.556,0,13.641,13.641,0,0,0,0,2.257L1.942,4.2A11.183,11.183,0,0,1,7.563,2.7h.01A11.218,11.218,0,0,1,13.217,4.2" transform="translate(447.182 43.419)" fill="#f66c69"></path><path d="M13.217,4.2l1.929-1.922A13.642,13.642,0,0,0,7.556,0,13.641,13.641,0,0,0,0,2.257L1.942,4.2A11.183,11.183,0,0,1,7.563,2.7h.01A11.218,11.218,0,0,1,13.217,4.2" transform="translate(476.994 43.419)" fill="#f66c69"></path><path d="M13.217,4.2l1.929-1.922A13.642,13.642,0,0,0,7.556,0,13.641,13.641,0,0,0,0,2.257L1.942,4.2A11.183,11.183,0,0,1,7.563,2.7h.01A11.218,11.218,0,0,1,13.217,4.2" transform="translate(506.807 43.419)" fill="#f66c69"></path><path d="M13.217,4.2l1.929-1.922A13.642,13.642,0,0,0,7.556,0,13.641,13.641,0,0,0,0,2.257L1.942,4.2A11.183,11.183,0,0,1,7.563,2.7h.01A11.218,11.218,0,0,1,13.217,4.2" transform="translate(14.689 57.558)" fill="#f66c69"></path><path d="M13.217,4.2l1.929-1.922A13.642,13.642,0,0,0,7.556,0,13.641,13.641,0,0,0,0,2.257L1.942,4.2A11.183,11.183,0,0,1,7.563,2.7h.01A11.218,11.218,0,0,1,13.217,4.2" transform="translate(44.501 57.558)" fill="#f66c69"></path><path d="M13.217,4.2l1.929-1.922A13.642,13.642,0,0,0,7.556,0,13.641,13.641,0,0,0,0,2.257L1.942,4.2A11.183,11.183,0,0,1,7.563,2.7h.01A11.218,11.218,0,0,1,13.217,4.2" transform="translate(74.313 57.558)" fill="#f66c69"></path><path d="M13.217,4.2l1.929-1.922A13.642,13.642,0,0,0,7.556,0,13.641,13.641,0,0,0,0,2.257L1.942,4.2A11.183,11.183,0,0,1,7.563,2.7h.01A11.218,11.218,0,0,1,13.217,4.2" transform="translate(104.126 57.558)" fill="#f66c69"></path><path d="M13.217,4.2l1.929-1.922A13.642,13.642,0,0,0,7.556,0,13.641,13.641,0,0,0,0,2.257L1.942,4.2A11.183,11.183,0,0,1,7.563,2.7h.01A11.218,11.218,0,0,1,13.217,4.2" transform="translate(133.938 57.558)" fill="#f66c69"></path><path d="M13.217,4.2l1.929-1.922A13.642,13.642,0,0,0,7.556,0,13.641,13.641,0,0,0,0,2.257L1.942,4.2A11.183,11.183,0,0,1,7.563,2.7h.01A11.218,11.218,0,0,1,13.217,4.2" transform="translate(163.75 57.558)" fill="#f66c69"></path><path d="M13.217,4.2l1.929-1.922A13.642,13.642,0,0,0,7.556,0,13.641,13.641,0,0,0,0,2.257L1.942,4.2A11.183,11.183,0,0,1,7.563,2.7h.01A11.218,11.218,0,0,1,13.217,4.2" transform="translate(193.562 57.558)" fill="#f66c69"></path><path d="M13.217,4.2l1.929-1.922A13.642,13.642,0,0,0,7.556,0,13.641,13.641,0,0,0,0,2.257L1.942,4.2A11.183,11.183,0,0,1,7.563,2.7h.01A11.218,11.218,0,0,1,13.217,4.2" transform="translate(223.375 57.558)" fill="#f66c69"></path><path d="M13.217,4.2l1.929-1.922A13.642,13.642,0,0,0,7.556,0,13.641,13.641,0,0,0,0,2.257L1.942,4.2A11.183,11.183,0,0,1,7.563,2.7h.01A11.218,11.218,0,0,1,13.217,4.2" transform="translate(253.187 57.558)" fill="#f66c69"></path><path d="M13.217,4.2l1.929-1.922A13.642,13.642,0,0,0,7.556,0,13.641,13.641,0,0,0,0,2.257L1.942,4.2A11.183,11.183,0,0,1,7.563,2.7h.01A11.218,11.218,0,0,1,13.217,4.2" transform="translate(282.999 57.558)" fill="#f66c69"></path><path d="M13.217,4.2l1.929-1.922A13.642,13.642,0,0,0,7.556,0,13.641,13.641,0,0,0,0,2.257L1.942,4.2A11.183,11.183,0,0,1,7.563,2.7h.01A11.218,11.218,0,0,1,13.217,4.2" transform="translate(312.811 57.558)" fill="#f66c69"></path><path d="M13.217,4.2l1.929-1.922A13.642,13.642,0,0,0,7.556,0,13.641,13.641,0,0,0,0,2.257L1.942,4.2A11.183,11.183,0,0,1,7.563,2.7h.01A11.218,11.218,0,0,1,13.217,4.2" transform="translate(342.623 57.558)" fill="#f66c69"></path><path d="M13.217,4.2l1.929-1.922A13.642,13.642,0,0,0,7.556,0,13.641,13.641,0,0,0,0,2.257L1.942,4.2A11.183,11.183,0,0,1,7.563,2.7h.01A11.218,11.218,0,0,1,13.217,4.2" transform="translate(372.435 57.558)" fill="#f66c69"></path><path d="M13.217,4.2l1.929-1.922A13.642,13.642,0,0,0,7.556,0,13.641,13.641,0,0,0,0,2.257L1.942,4.2A11.183,11.183,0,0,1,7.563,2.7h.01A11.218,11.218,0,0,1,13.217,4.2" transform="translate(402.247 57.558)" fill="#f66c69"></path><path d="M13.217,4.2l1.929-1.922A13.642,13.642,0,0,0,7.556,0,13.641,13.641,0,0,0,0,2.257L1.942,4.2A11.183,11.183,0,0,1,7.563,2.7h.01A11.218,11.218,0,0,1,13.217,4.2" transform="translate(432.059 57.558)" fill="#f66c69"></path><path d="M13.217,4.2l1.929-1.922A13.642,13.642,0,0,0,7.556,0,13.641,13.641,0,0,0,0,2.257L1.942,4.2A11.183,11.183,0,0,1,7.563,2.7h.01A11.218,11.218,0,0,1,13.217,4.2" transform="translate(461.872 57.558)" fill="#f66c69"></path><path d="M13.217,4.2l1.929-1.922A13.642,13.642,0,0,0,7.556,0,13.641,13.641,0,0,0,0,2.257L1.942,4.2A11.183,11.183,0,0,1,7.563,2.7h.01A11.218,11.218,0,0,1,13.217,4.2" transform="translate(491.684 57.558)" fill="#f66c69"></path><path d="M13.217,4.2l1.929-1.922A13.642,13.642,0,0,0,7.556,0,13.641,13.641,0,0,0,0,2.257L1.942,4.2A11.183,11.183,0,0,1,7.563,2.7h.01A11.218,11.218,0,0,1,13.217,4.2" transform="translate(521.496 57.558)" fill="#f66c69"></path><path d="M13.217,4.2l1.929-1.922A13.642,13.642,0,0,0,7.556,0,13.641,13.641,0,0,0,0,2.257L1.942,4.2A11.183,11.183,0,0,1,7.563,2.7h.01A11.218,11.218,0,0,1,13.217,4.2" transform="translate(0 71.698)" fill="#f66c69"></path><path d="M13.217,4.2l1.929-1.922A13.642,13.642,0,0,0,7.556,0,13.641,13.641,0,0,0,0,2.257L1.942,4.2A11.183,11.183,0,0,1,7.563,2.7h.01A11.218,11.218,0,0,1,13.217,4.2" transform="translate(29.813 71.698)" fill="#f66c69"></path><path d="M13.217,4.2l1.929-1.922A13.642,13.642,0,0,0,7.556,0,13.641,13.641,0,0,0,0,2.257L1.942,4.2A11.183,11.183,0,0,1,7.563,2.7h.01A11.218,11.218,0,0,1,13.217,4.2" transform="translate(59.625 71.698)" fill="#f66c69"></path><path d="M13.217,4.2l1.929-1.922A13.642,13.642,0,0,0,7.556,0,13.641,13.641,0,0,0,0,2.257L1.942,4.2A11.183,11.183,0,0,1,7.563,2.7h.01A11.218,11.218,0,0,1,13.217,4.2" transform="translate(89.437 71.698)" fill="#f66c69"></path><path d="M13.217,4.2l1.929-1.922A13.642,13.642,0,0,0,7.556,0,13.641,13.641,0,0,0,0,2.257L1.942,4.2A11.183,11.183,0,0,1,7.563,2.7h.01A11.218,11.218,0,0,1,13.217,4.2" transform="translate(119.249 71.698)" fill="#f66c69"></path><path d="M13.217,4.2l1.929-1.922A13.642,13.642,0,0,0,7.556,0,13.641,13.641,0,0,0,0,2.257L1.942,4.2A11.183,11.183,0,0,1,7.563,2.7h.01A11.218,11.218,0,0,1,13.217,4.2" transform="translate(149.061 71.698)" fill="#f66c69"></path><path d="M13.217,4.2l1.929-1.922A13.642,13.642,0,0,0,7.556,0,13.641,13.641,0,0,0,0,2.257L1.942,4.2A11.183,11.183,0,0,1,7.563,2.7h.01A11.218,11.218,0,0,1,13.217,4.2" transform="translate(178.873 71.698)" fill="#f66c69"></path><path d="M13.217,4.2l1.929-1.922A13.642,13.642,0,0,0,7.556,0,13.641,13.641,0,0,0,0,2.257L1.942,4.2A11.183,11.183,0,0,1,7.563,2.7h.01A11.218,11.218,0,0,1,13.217,4.2" transform="translate(208.685 71.698)" fill="#f66c69"></path><path d="M13.217,4.2l1.929-1.922A13.642,13.642,0,0,0,7.556,0,13.641,13.641,0,0,0,0,2.257L1.942,4.2A11.183,11.183,0,0,1,7.563,2.7h.01A11.218,11.218,0,0,1,13.217,4.2" transform="translate(238.497 71.698)" fill="#f66c69"></path><path d="M13.217,4.2l1.929-1.922A13.642,13.642,0,0,0,7.556,0,13.641,13.641,0,0,0,0,2.257L1.942,4.2A11.183,11.183,0,0,1,7.563,2.7h.01A11.218,11.218,0,0,1,13.217,4.2" transform="translate(268.31 71.698)" fill="#f66c69"></path><path d="M13.217,4.2l1.929-1.922A13.642,13.642,0,0,0,7.556,0,13.641,13.641,0,0,0,0,2.257L1.942,4.2A11.183,11.183,0,0,1,7.563,2.7h.01A11.218,11.218,0,0,1,13.217,4.2" transform="translate(298.122 71.698)" fill="#f66c69"></path><path d="M13.217,4.2l1.929-1.922A13.642,13.642,0,0,0,7.556,0,13.641,13.641,0,0,0,0,2.257L1.942,4.2A11.183,11.183,0,0,1,7.563,2.7h.01A11.218,11.218,0,0,1,13.217,4.2" transform="translate(327.934 71.698)" fill="#f66c69"></path><path d="M13.217,4.2l1.929-1.922A13.642,13.642,0,0,0,7.556,0,13.641,13.641,0,0,0,0,2.257L1.942,4.2A11.183,11.183,0,0,1,7.563,2.7h.01A11.218,11.218,0,0,1,13.217,4.2" transform="translate(357.746 71.698)" fill="#f66c69"></path><path d="M13.217,4.2l1.929-1.922A13.642,13.642,0,0,0,7.556,0,13.641,13.641,0,0,0,0,2.257L1.942,4.2A11.183,11.183,0,0,1,7.563,2.7h.01A11.218,11.218,0,0,1,13.217,4.2" transform="translate(387.558 71.698)" fill="#f66c69"></path><path d="M13.217,4.2l1.929-1.922A13.642,13.642,0,0,0,7.556,0,13.641,13.641,0,0,0,0,2.257L1.942,4.2A11.183,11.183,0,0,1,7.563,2.7h.01A11.218,11.218,0,0,1,13.217,4.2" transform="translate(417.37 71.698)" fill="#f66c69"></path><path d="M13.217,4.2l1.929-1.922A13.642,13.642,0,0,0,7.556,0,13.641,13.641,0,0,0,0,2.257L1.942,4.2A11.183,11.183,0,0,1,7.563,2.7h.01A11.218,11.218,0,0,1,13.217,4.2" transform="translate(447.182 71.698)" fill="#f66c69"></path><path d="M13.217,4.2l1.929-1.922A13.642,13.642,0,0,0,7.556,0,13.641,13.641,0,0,0,0,2.257L1.942,4.2A11.183,11.183,0,0,1,7.563,2.7h.01A11.218,11.218,0,0,1,13.217,4.2" transform="translate(476.994 71.698)" fill="#f66c69"></path><path d="M13.217,4.2l1.929-1.922A13.642,13.642,0,0,0,7.556,0,13.641,13.641,0,0,0,0,2.257L1.942,4.2A11.183,11.183,0,0,1,7.563,2.7h.01A11.218,11.218,0,0,1,13.217,4.2" transform="translate(506.807 71.698)" fill="#f66c69"></path><path d="M13.217,4.2l1.929-1.922A13.642,13.642,0,0,0,7.556,0,13.641,13.641,0,0,0,0,2.257L1.942,4.2A11.183,11.183,0,0,1,7.563,2.7h.01A11.218,11.218,0,0,1,13.217,4.2" transform="translate(14.689 85.838)" fill="#f66c69"></path><path d="M13.217,4.2l1.929-1.922A13.642,13.642,0,0,0,7.556,0,13.641,13.641,0,0,0,0,2.257L1.942,4.2A11.183,11.183,0,0,1,7.563,2.7h.01A11.218,11.218,0,0,1,13.217,4.2" transform="translate(44.501 85.838)" fill="#f66c69"></path><path d="M13.217,4.2l1.929-1.922A13.642,13.642,0,0,0,7.556,0,13.641,13.641,0,0,0,0,2.257L1.942,4.2A11.183,11.183,0,0,1,7.563,2.7h.01A11.218,11.218,0,0,1,13.217,4.2" transform="translate(74.313 85.838)" fill="#f66c69"></path><path d="M13.217,4.2l1.929-1.922A13.642,13.642,0,0,0,7.556,0,13.641,13.641,0,0,0,0,2.257L1.942,4.2A11.183,11.183,0,0,1,7.563,2.7h.01A11.218,11.218,0,0,1,13.217,4.2" transform="translate(104.126 85.838)" fill="#f66c69"></path><path d="M13.217,4.2l1.929-1.922A13.642,13.642,0,0,0,7.556,0,13.641,13.641,0,0,0,0,2.257L1.942,4.2A11.183,11.183,0,0,1,7.563,2.7h.01A11.218,11.218,0,0,1,13.217,4.2" transform="translate(133.938 85.838)" fill="#f66c69"></path><path d="M13.217,4.2l1.929-1.922A13.642,13.642,0,0,0,7.556,0,13.641,13.641,0,0,0,0,2.257L1.942,4.2A11.183,11.183,0,0,1,7.563,2.7h.01A11.218,11.218,0,0,1,13.217,4.2" transform="translate(163.75 85.838)" fill="#f66c69"></path><path d="M13.217,4.2l1.929-1.922A13.642,13.642,0,0,0,7.556,0,13.641,13.641,0,0,0,0,2.257L1.942,4.2A11.183,11.183,0,0,1,7.563,2.7h.01A11.218,11.218,0,0,1,13.217,4.2" transform="translate(193.562 85.838)" fill="#f66c69"></path><path d="M13.217,4.2l1.929-1.922A13.642,13.642,0,0,0,7.556,0,13.641,13.641,0,0,0,0,2.257L1.942,4.2A11.183,11.183,0,0,1,7.563,2.7h.01A11.218,11.218,0,0,1,13.217,4.2" transform="translate(223.375 85.838)" fill="#f66c69"></path><path d="M13.217,4.2l1.929-1.922A13.642,13.642,0,0,0,7.556,0,13.641,13.641,0,0,0,0,2.257L1.942,4.2A11.183,11.183,0,0,1,7.563,2.7h.01A11.218,11.218,0,0,1,13.217,4.2" transform="translate(253.187 85.838)" fill="#f66c69"></path><path d="M13.217,4.2l1.929-1.922A13.642,13.642,0,0,0,7.556,0,13.641,13.641,0,0,0,0,2.257L1.942,4.2A11.183,11.183,0,0,1,7.563,2.7h.01A11.218,11.218,0,0,1,13.217,4.2" transform="translate(282.999 85.838)" fill="#f66c69"></path><path d="M13.217,4.2l1.929-1.922A13.642,13.642,0,0,0,7.556,0,13.641,13.641,0,0,0,0,2.257L1.942,4.2A11.183,11.183,0,0,1,7.563,2.7h.01A11.218,11.218,0,0,1,13.217,4.2" transform="translate(312.811 85.838)" fill="#f66c69"></path><path d="M13.217,4.2l1.929-1.922A13.642,13.642,0,0,0,7.556,0,13.641,13.641,0,0,0,0,2.257L1.942,4.2A11.183,11.183,0,0,1,7.563,2.7h.01A11.218,11.218,0,0,1,13.217,4.2" transform="translate(342.623 85.838)" fill="#f66c69"></path><path d="M13.217,4.2l1.929-1.922A13.642,13.642,0,0,0,7.556,0,13.641,13.641,0,0,0,0,2.257L1.942,4.2A11.183,11.183,0,0,1,7.563,2.7h.01A11.218,11.218,0,0,1,13.217,4.2" transform="translate(372.435 85.838)" fill="#f66c69"></path><path d="M13.217,4.2l1.929-1.922A13.642,13.642,0,0,0,7.556,0,13.641,13.641,0,0,0,0,2.257L1.942,4.2A11.183,11.183,0,0,1,7.563,2.7h.01A11.218,11.218,0,0,1,13.217,4.2" transform="translate(402.247 85.838)" fill="#f66c69"></path><path d="M13.217,4.2l1.929-1.922A13.642,13.642,0,0,0,7.556,0,13.641,13.641,0,0,0,0,2.257L1.942,4.2A11.183,11.183,0,0,1,7.563,2.7h.01A11.218,11.218,0,0,1,13.217,4.2" transform="translate(432.059 85.838)" fill="#f66c69"></path><path d="M13.217,4.2l1.929-1.922A13.642,13.642,0,0,0,7.556,0,13.641,13.641,0,0,0,0,2.257L1.942,4.2A11.183,11.183,0,0,1,7.563,2.7h.01A11.218,11.218,0,0,1,13.217,4.2" transform="translate(461.872 85.838)" fill="#f66c69"></path><path d="M13.217,4.2l1.929-1.922A13.642,13.642,0,0,0,7.556,0,13.641,13.641,0,0,0,0,2.257L1.942,4.2A11.183,11.183,0,0,1,7.563,2.7h.01A11.218,11.218,0,0,1,13.217,4.2" transform="translate(491.684 85.838)" fill="#f66c69"></path><path d="M13.217,4.2l1.929-1.922A13.642,13.642,0,0,0,7.556,0,13.641,13.641,0,0,0,0,2.257L1.942,4.2A11.183,11.183,0,0,1,7.563,2.7h.01A11.218,11.218,0,0,1,13.217,4.2" transform="translate(521.496 85.838)" fill="#f66c69"></path><path d="M13.217,4.2l1.929-1.922A13.642,13.642,0,0,0,7.556,0,13.641,13.641,0,0,0,0,2.257L1.942,4.2A11.183,11.183,0,0,1,7.563,2.7h.01A11.218,11.218,0,0,1,13.217,4.2" transform="translate(14.689 114.117)" fill="#f66c69"></path><path d="M13.217,4.2l1.929-1.922A13.642,13.642,0,0,0,7.556,0,13.641,13.641,0,0,0,0,2.257L1.942,4.2A11.183,11.183,0,0,1,7.563,2.7h.01A11.218,11.218,0,0,1,13.217,4.2" transform="translate(44.501 114.117)" fill="#f66c69"></path><path d="M13.217,4.2l1.929-1.922A13.642,13.642,0,0,0,7.556,0,13.641,13.641,0,0,0,0,2.257L1.942,4.2A11.183,11.183,0,0,1,7.563,2.7h.01A11.218,11.218,0,0,1,13.217,4.2" transform="translate(74.313 114.117)" fill="#f66c69"></path><path d="M13.217,4.2l1.929-1.922A13.642,13.642,0,0,0,7.556,0,13.641,13.641,0,0,0,0,2.257L1.942,4.2A11.183,11.183,0,0,1,7.563,2.7h.01A11.218,11.218,0,0,1,13.217,4.2" transform="translate(104.126 114.117)" fill="#f66c69"></path><path d="M13.217,4.2l1.929-1.922A13.642,13.642,0,0,0,7.556,0,13.641,13.641,0,0,0,0,2.257L1.942,4.2A11.183,11.183,0,0,1,7.563,2.7h.01A11.218,11.218,0,0,1,13.217,4.2" transform="translate(133.938 114.117)" fill="#f66c69"></path><path d="M13.217,4.2l1.929-1.922A13.642,13.642,0,0,0,7.556,0,13.641,13.641,0,0,0,0,2.257L1.942,4.2A11.183,11.183,0,0,1,7.563,2.7h.01A11.218,11.218,0,0,1,13.217,4.2" transform="translate(163.75 114.117)" fill="#f66c69"></path><path d="M13.217,4.2l1.929-1.922A13.642,13.642,0,0,0,7.556,0,13.641,13.641,0,0,0,0,2.257L1.942,4.2A11.183,11.183,0,0,1,7.563,2.7h.01A11.218,11.218,0,0,1,13.217,4.2" transform="translate(193.562 114.117)" fill="#f66c69"></path><path d="M13.217,4.2l1.929-1.922A13.642,13.642,0,0,0,7.556,0,13.641,13.641,0,0,0,0,2.257L1.942,4.2A11.183,11.183,0,0,1,7.563,2.7h.01A11.218,11.218,0,0,1,13.217,4.2" transform="translate(223.375 114.117)" fill="#f66c69"></path><path d="M13.217,4.2l1.929-1.922A13.642,13.642,0,0,0,7.556,0,13.641,13.641,0,0,0,0,2.257L1.942,4.2A11.183,11.183,0,0,1,7.563,2.7h.01A11.218,11.218,0,0,1,13.217,4.2" transform="translate(253.187 114.117)" fill="#f66c69"></path><path d="M13.217,4.2l1.929-1.922A13.642,13.642,0,0,0,7.556,0,13.641,13.641,0,0,0,0,2.257L1.942,4.2A11.183,11.183,0,0,1,7.563,2.7h.01A11.218,11.218,0,0,1,13.217,4.2" transform="translate(282.999 114.117)" fill="#f66c69"></path><path d="M13.217,4.2l1.929-1.922A13.642,13.642,0,0,0,7.556,0,13.641,13.641,0,0,0,0,2.257L1.942,4.2A11.183,11.183,0,0,1,7.563,2.7h.01A11.218,11.218,0,0,1,13.217,4.2" transform="translate(312.811 114.117)" fill="#f66c69"></path><path d="M13.217,4.2l1.929-1.922A13.642,13.642,0,0,0,7.556,0,13.641,13.641,0,0,0,0,2.257L1.942,4.2A11.183,11.183,0,0,1,7.563,2.7h.01A11.218,11.218,0,0,1,13.217,4.2" transform="translate(342.623 114.117)" fill="#f66c69"></path><path d="M13.217,4.2l1.929-1.922A13.642,13.642,0,0,0,7.556,0,13.641,13.641,0,0,0,0,2.257L1.942,4.2A11.183,11.183,0,0,1,7.563,2.7h.01A11.218,11.218,0,0,1,13.217,4.2" transform="translate(372.435 114.117)" fill="#f66c69"></path><path d="M13.217,4.2l1.929-1.922A13.642,13.642,0,0,0,7.556,0,13.641,13.641,0,0,0,0,2.257L1.942,4.2A11.183,11.183,0,0,1,7.563,2.7h.01A11.218,11.218,0,0,1,13.217,4.2" transform="translate(402.247 114.117)" fill="#f66c69"></path><path d="M13.217,4.2l1.929-1.922A13.642,13.642,0,0,0,7.556,0,13.641,13.641,0,0,0,0,2.257L1.942,4.2A11.183,11.183,0,0,1,7.563,2.7h.01A11.218,11.218,0,0,1,13.217,4.2" transform="translate(432.059 114.117)" fill="#f66c69"></path><path d="M13.217,4.2l1.929-1.922A13.642,13.642,0,0,0,7.556,0,13.641,13.641,0,0,0,0,2.257L1.942,4.2A11.183,11.183,0,0,1,7.563,2.7h.01A11.218,11.218,0,0,1,13.217,4.2" transform="translate(461.872 114.117)" fill="#f66c69"></path><path d="M13.217,4.2l1.929-1.922A13.642,13.642,0,0,0,7.556,0,13.641,13.641,0,0,0,0,2.257L1.942,4.2A11.183,11.183,0,0,1,7.563,2.7h.01A11.218,11.218,0,0,1,13.217,4.2" transform="translate(491.684 114.117)" fill="#f66c69"></path><path d="M13.217,4.2l1.929-1.922A13.642,13.642,0,0,0,7.556,0,13.641,13.641,0,0,0,0,2.257L1.942,4.2A11.183,11.183,0,0,1,7.563,2.7h.01A11.218,11.218,0,0,1,13.217,4.2" transform="translate(521.496 114.117)" fill="#f66c69"></path><path d="M13.217,4.2l1.929-1.922A13.642,13.642,0,0,0,7.556,0,13.641,13.641,0,0,0,0,2.257L1.942,4.2A11.183,11.183,0,0,1,7.563,2.7h.01A11.218,11.218,0,0,1,13.217,4.2" transform="translate(0 99.977)" fill="#f66c69"></path><path d="M13.217,4.2l1.929-1.922A13.642,13.642,0,0,0,7.556,0,13.641,13.641,0,0,0,0,2.257L1.942,4.2A11.183,11.183,0,0,1,7.563,2.7h.01A11.218,11.218,0,0,1,13.217,4.2" transform="translate(29.813 99.977)" fill="#f66c69"></path><path d="M13.217,4.2l1.929-1.922A13.642,13.642,0,0,0,7.556,0,13.641,13.641,0,0,0,0,2.257L1.942,4.2A11.183,11.183,0,0,1,7.563,2.7h.01A11.218,11.218,0,0,1,13.217,4.2" transform="translate(59.625 99.977)" fill="#f66c69"></path><path d="M13.217,4.2l1.929-1.922A13.642,13.642,0,0,0,7.556,0,13.641,13.641,0,0,0,0,2.257L1.942,4.2A11.183,11.183,0,0,1,7.563,2.7h.01A11.218,11.218,0,0,1,13.217,4.2" transform="translate(89.437 99.977)" fill="#f66c69"></path><path d="M13.217,4.2l1.929-1.922A13.642,13.642,0,0,0,7.556,0,13.641,13.641,0,0,0,0,2.257L1.942,4.2A11.183,11.183,0,0,1,7.563,2.7h.01A11.218,11.218,0,0,1,13.217,4.2" transform="translate(119.249 99.977)" fill="#f66c69"></path><path d="M13.217,4.2l1.929-1.922A13.642,13.642,0,0,0,7.556,0,13.641,13.641,0,0,0,0,2.257L1.942,4.2A11.183,11.183,0,0,1,7.563,2.7h.01A11.218,11.218,0,0,1,13.217,4.2" transform="translate(149.061 99.977)" fill="#f66c69"></path><path d="M13.217,4.2l1.929-1.922A13.642,13.642,0,0,0,7.556,0,13.641,13.641,0,0,0,0,2.257L1.942,4.2A11.183,11.183,0,0,1,7.563,2.7h.01A11.218,11.218,0,0,1,13.217,4.2" transform="translate(178.873 99.977)" fill="#f66c69"></path><path d="M13.217,4.2l1.929-1.922A13.642,13.642,0,0,0,7.556,0,13.641,13.641,0,0,0,0,2.257L1.942,4.2A11.183,11.183,0,0,1,7.563,2.7h.01A11.218,11.218,0,0,1,13.217,4.2" transform="translate(208.685 99.977)" fill="#f66c69"></path><path d="M13.217,4.2l1.929-1.922A13.642,13.642,0,0,0,7.556,0,13.641,13.641,0,0,0,0,2.257L1.942,4.2A11.183,11.183,0,0,1,7.563,2.7h.01A11.218,11.218,0,0,1,13.217,4.2" transform="translate(238.497 99.977)" fill="#f66c69"></path><path d="M13.217,4.2l1.929-1.922A13.642,13.642,0,0,0,7.556,0,13.641,13.641,0,0,0,0,2.257L1.942,4.2A11.183,11.183,0,0,1,7.563,2.7h.01A11.218,11.218,0,0,1,13.217,4.2" transform="translate(268.31 99.977)" fill="#f66c69"></path><path d="M13.217,4.2l1.929-1.922A13.642,13.642,0,0,0,7.556,0,13.641,13.641,0,0,0,0,2.257L1.942,4.2A11.183,11.183,0,0,1,7.563,2.7h.01A11.218,11.218,0,0,1,13.217,4.2" transform="translate(298.122 99.977)" fill="#f66c69"></path><path d="M13.217,4.2l1.929-1.922A13.642,13.642,0,0,0,7.556,0,13.641,13.641,0,0,0,0,2.257L1.942,4.2A11.183,11.183,0,0,1,7.563,2.7h.01A11.218,11.218,0,0,1,13.217,4.2" transform="translate(327.934 99.977)" fill="#f66c69"></path><path d="M13.217,4.2l1.929-1.922A13.642,13.642,0,0,0,7.556,0,13.641,13.641,0,0,0,0,2.257L1.942,4.2A11.183,11.183,0,0,1,7.563,2.7h.01A11.218,11.218,0,0,1,13.217,4.2" transform="translate(357.746 99.977)" fill="#f66c69"></path><path d="M13.217,4.2l1.929-1.922A13.642,13.642,0,0,0,7.556,0,13.641,13.641,0,0,0,0,2.257L1.942,4.2A11.183,11.183,0,0,1,7.563,2.7h.01A11.218,11.218,0,0,1,13.217,4.2" transform="translate(387.558 99.977)" fill="#f66c69"></path><path d="M13.217,4.2l1.929-1.922A13.642,13.642,0,0,0,7.556,0,13.641,13.641,0,0,0,0,2.257L1.942,4.2A11.183,11.183,0,0,1,7.563,2.7h.01A11.218,11.218,0,0,1,13.217,4.2" transform="translate(417.37 99.977)" fill="#f66c69"></path><path d="M13.217,4.2l1.929-1.922A13.642,13.642,0,0,0,7.556,0,13.641,13.641,0,0,0,0,2.257L1.942,4.2A11.183,11.183,0,0,1,7.563,2.7h.01A11.218,11.218,0,0,1,13.217,4.2" transform="translate(447.182 99.977)" fill="#f66c69"></path><path d="M13.217,4.2l1.929-1.922A13.642,13.642,0,0,0,7.556,0,13.641,13.641,0,0,0,0,2.257L1.942,4.2A11.183,11.183,0,0,1,7.563,2.7h.01A11.218,11.218,0,0,1,13.217,4.2" transform="translate(476.994 99.977)" fill="#f66c69"></path><path d="M13.217,4.2l1.929-1.922A13.642,13.642,0,0,0,7.556,0,13.641,13.641,0,0,0,0,2.257L1.942,4.2A11.183,11.183,0,0,1,7.563,2.7h.01A11.218,11.218,0,0,1,13.217,4.2" transform="translate(506.807 99.977)" fill="#f66c69"></path><path d="M13.217,4.2l1.929-1.922A13.642,13.642,0,0,0,7.556,0,13.641,13.641,0,0,0,0,2.257L1.942,4.2A11.183,11.183,0,0,1,7.563,2.7h.01A11.218,11.218,0,0,1,13.217,4.2" transform="translate(0 128.257)" fill="#f66c69"></path><path d="M13.217,4.2l1.929-1.922A13.642,13.642,0,0,0,7.556,0,13.641,13.641,0,0,0,0,2.257L1.942,4.2A11.183,11.183,0,0,1,7.563,2.7h.01A11.218,11.218,0,0,1,13.217,4.2" transform="translate(29.813 128.257)" fill="#f66c69"></path><path d="M13.217,4.2l1.929-1.922A13.642,13.642,0,0,0,7.556,0,13.641,13.641,0,0,0,0,2.257L1.942,4.2A11.183,11.183,0,0,1,7.563,2.7h.01A11.218,11.218,0,0,1,13.217,4.2" transform="translate(59.625 128.257)" fill="#f66c69"></path><path d="M13.217,4.2l1.929-1.922A13.642,13.642,0,0,0,7.556,0,13.641,13.641,0,0,0,0,2.257L1.942,4.2A11.183,11.183,0,0,1,7.563,2.7h.01A11.218,11.218,0,0,1,13.217,4.2" transform="translate(89.437 128.257)" fill="#f66c69"></path><path d="M13.217,4.2l1.929-1.922A13.642,13.642,0,0,0,7.556,0,13.641,13.641,0,0,0,0,2.257L1.942,4.2A11.183,11.183,0,0,1,7.563,2.7h.01A11.218,11.218,0,0,1,13.217,4.2" transform="translate(119.249 128.257)" fill="#f66c69"></path><path d="M13.217,4.2l1.929-1.922A13.642,13.642,0,0,0,7.556,0,13.641,13.641,0,0,0,0,2.257L1.942,4.2A11.183,11.183,0,0,1,7.563,2.7h.01A11.218,11.218,0,0,1,13.217,4.2" transform="translate(149.061 128.257)" fill="#f66c69"></path><path d="M13.217,4.2l1.929-1.922A13.642,13.642,0,0,0,7.556,0,13.641,13.641,0,0,0,0,2.257L1.942,4.2A11.183,11.183,0,0,1,7.563,2.7h.01A11.218,11.218,0,0,1,13.217,4.2" transform="translate(178.873 128.257)" fill="#f66c69"></path><path d="M13.217,4.2l1.929-1.922A13.642,13.642,0,0,0,7.556,0,13.641,13.641,0,0,0,0,2.257L1.942,4.2A11.183,11.183,0,0,1,7.563,2.7h.01A11.218,11.218,0,0,1,13.217,4.2" transform="translate(208.685 128.257)" fill="#f66c69"></path><path d="M13.217,4.2l1.929-1.922A13.642,13.642,0,0,0,7.556,0,13.641,13.641,0,0,0,0,2.257L1.942,4.2A11.183,11.183,0,0,1,7.563,2.7h.01A11.218,11.218,0,0,1,13.217,4.2" transform="translate(238.497 128.257)" fill="#f66c69"></path><path d="M13.217,4.2l1.929-1.922A13.642,13.642,0,0,0,7.556,0,13.641,13.641,0,0,0,0,2.257L1.942,4.2A11.183,11.183,0,0,1,7.563,2.7h.01A11.218,11.218,0,0,1,13.217,4.2" transform="translate(268.31 128.257)" fill="#f66c69"></path><path d="M13.217,4.2l1.929-1.922A13.642,13.642,0,0,0,7.556,0,13.641,13.641,0,0,0,0,2.257L1.942,4.2A11.183,11.183,0,0,1,7.563,2.7h.01A11.218,11.218,0,0,1,13.217,4.2" transform="translate(298.122 128.257)" fill="#f66c69"></path><path d="M13.217,4.2l1.929-1.922A13.642,13.642,0,0,0,7.556,0,13.641,13.641,0,0,0,0,2.257L1.942,4.2A11.183,11.183,0,0,1,7.563,2.7h.01A11.218,11.218,0,0,1,13.217,4.2" transform="translate(327.934 128.257)" fill="#f66c69"></path><path d="M13.217,4.2l1.929-1.922A13.642,13.642,0,0,0,7.556,0,13.641,13.641,0,0,0,0,2.257L1.942,4.2A11.183,11.183,0,0,1,7.563,2.7h.01A11.218,11.218,0,0,1,13.217,4.2" transform="translate(357.746 128.257)" fill="#f66c69"></path><path d="M13.217,4.2l1.929-1.922A13.642,13.642,0,0,0,7.556,0,13.641,13.641,0,0,0,0,2.257L1.942,4.2A11.183,11.183,0,0,1,7.563,2.7h.01A11.218,11.218,0,0,1,13.217,4.2" transform="translate(387.558 128.257)" fill="#f66c69"></path><path d="M13.217,4.2l1.929-1.922A13.642,13.642,0,0,0,7.556,0,13.641,13.641,0,0,0,0,2.257L1.942,4.2A11.183,11.183,0,0,1,7.563,2.7h.01A11.218,11.218,0,0,1,13.217,4.2" transform="translate(417.37 128.257)" fill="#f66c69"></path><path d="M13.217,4.2l1.929-1.922A13.642,13.642,0,0,0,7.556,0,13.641,13.641,0,0,0,0,2.257L1.942,4.2A11.183,11.183,0,0,1,7.563,2.7h.01A11.218,11.218,0,0,1,13.217,4.2" transform="translate(447.182 128.257)" fill="#f66c69"></path><path d="M13.217,4.2l1.929-1.922A13.642,13.642,0,0,0,7.556,0,13.641,13.641,0,0,0,0,2.257L1.942,4.2A11.183,11.183,0,0,1,7.563,2.7h.01A11.218,11.218,0,0,1,13.217,4.2" transform="translate(476.994 128.257)" fill="#f66c69"></path><path d="M13.217,4.2l1.929-1.922A13.642,13.642,0,0,0,7.556,0,13.641,13.641,0,0,0,0,2.257L1.942,4.2A11.183,11.183,0,0,1,7.563,2.7h.01A11.218,11.218,0,0,1,13.217,4.2" transform="translate(506.807 128.257)" fill="#f66c69"></path><path d="M13.217,4.2l1.929-1.922A13.642,13.642,0,0,0,7.556,0,13.641,13.641,0,0,0,0,2.257L1.942,4.2A11.183,11.183,0,0,1,7.563,2.7h.01A11.218,11.218,0,0,1,13.217,4.2" transform="translate(14.689 142.396)" fill="#f66c69"></path><path d="M13.217,4.2l1.929-1.922A13.642,13.642,0,0,0,7.556,0,13.641,13.641,0,0,0,0,2.257L1.942,4.2A11.183,11.183,0,0,1,7.563,2.7h.01A11.218,11.218,0,0,1,13.217,4.2" transform="translate(44.501 142.396)" fill="#f66c69"></path><path d="M13.217,4.2l1.929-1.922A13.642,13.642,0,0,0,7.556,0,13.641,13.641,0,0,0,0,2.257L1.942,4.2A11.183,11.183,0,0,1,7.563,2.7h.01A11.218,11.218,0,0,1,13.217,4.2" transform="translate(74.313 142.396)" fill="#f66c69"></path><path d="M13.217,4.2l1.929-1.922A13.642,13.642,0,0,0,7.556,0,13.641,13.641,0,0,0,0,2.257L1.942,4.2A11.183,11.183,0,0,1,7.563,2.7h.01A11.218,11.218,0,0,1,13.217,4.2" transform="translate(104.126 142.396)" fill="#f66c69"></path><path d="M13.217,4.2l1.929-1.922A13.642,13.642,0,0,0,7.556,0,13.641,13.641,0,0,0,0,2.257L1.942,4.2A11.183,11.183,0,0,1,7.563,2.7h.01A11.218,11.218,0,0,1,13.217,4.2" transform="translate(133.938 142.396)" fill="#f66c69"></path><path d="M13.217,4.2l1.929-1.922A13.642,13.642,0,0,0,7.556,0,13.641,13.641,0,0,0,0,2.257L1.942,4.2A11.183,11.183,0,0,1,7.563,2.7h.01A11.218,11.218,0,0,1,13.217,4.2" transform="translate(163.75 142.396)" fill="#f66c69"></path><path d="M13.217,4.2l1.929-1.922A13.642,13.642,0,0,0,7.556,0,13.641,13.641,0,0,0,0,2.257L1.942,4.2A11.183,11.183,0,0,1,7.563,2.7h.01A11.218,11.218,0,0,1,13.217,4.2" transform="translate(193.562 142.396)" fill="#f66c69"></path><path d="M13.217,4.2l1.929-1.922A13.642,13.642,0,0,0,7.556,0,13.641,13.641,0,0,0,0,2.257L1.942,4.2A11.183,11.183,0,0,1,7.563,2.7h.01A11.218,11.218,0,0,1,13.217,4.2" transform="translate(223.375 142.396)" fill="#f66c69"></path><path d="M13.217,4.2l1.929-1.922A13.642,13.642,0,0,0,7.556,0,13.641,13.641,0,0,0,0,2.257L1.942,4.2A11.183,11.183,0,0,1,7.563,2.7h.01A11.218,11.218,0,0,1,13.217,4.2" transform="translate(253.187 142.396)" fill="#f66c69"></path><path d="M13.217,4.2l1.929-1.922A13.642,13.642,0,0,0,7.556,0,13.641,13.641,0,0,0,0,2.257L1.942,4.2A11.183,11.183,0,0,1,7.563,2.7h.01A11.218,11.218,0,0,1,13.217,4.2" transform="translate(282.999 142.396)" fill="#f66c69"></path><path d="M13.217,4.2l1.929-1.922A13.642,13.642,0,0,0,7.556,0,13.641,13.641,0,0,0,0,2.257L1.942,4.2A11.183,11.183,0,0,1,7.563,2.7h.01A11.218,11.218,0,0,1,13.217,4.2" transform="translate(312.811 142.396)" fill="#f66c69"></path><path d="M13.217,4.2l1.929-1.922A13.642,13.642,0,0,0,7.556,0,13.641,13.641,0,0,0,0,2.257L1.942,4.2A11.183,11.183,0,0,1,7.563,2.7h.01A11.218,11.218,0,0,1,13.217,4.2" transform="translate(342.623 142.396)" fill="#f66c69"></path><path d="M13.217,4.2l1.929-1.922A13.642,13.642,0,0,0,7.556,0,13.641,13.641,0,0,0,0,2.257L1.942,4.2A11.183,11.183,0,0,1,7.563,2.7h.01A11.218,11.218,0,0,1,13.217,4.2" transform="translate(372.435 142.396)" fill="#f66c69"></path><path d="M13.217,4.2l1.929-1.922A13.642,13.642,0,0,0,7.556,0,13.641,13.641,0,0,0,0,2.257L1.942,4.2A11.183,11.183,0,0,1,7.563,2.7h.01A11.218,11.218,0,0,1,13.217,4.2" transform="translate(402.247 142.396)" fill="#f66c69"></path><path d="M13.217,4.2l1.929-1.922A13.642,13.642,0,0,0,7.556,0,13.641,13.641,0,0,0,0,2.257L1.942,4.2A11.183,11.183,0,0,1,7.563,2.7h.01A11.218,11.218,0,0,1,13.217,4.2" transform="translate(432.059 142.396)" fill="#f66c69"></path><path d="M13.217,4.2l1.929-1.922A13.642,13.642,0,0,0,7.556,0,13.641,13.641,0,0,0,0,2.257L1.942,4.2A11.183,11.183,0,0,1,7.563,2.7h.01A11.218,11.218,0,0,1,13.217,4.2" transform="translate(461.872 142.396)" fill="#f66c69"></path><path d="M13.217,4.2l1.929-1.922A13.642,13.642,0,0,0,7.556,0,13.641,13.641,0,0,0,0,2.257L1.942,4.2A11.183,11.183,0,0,1,7.563,2.7h.01A11.218,11.218,0,0,1,13.217,4.2" transform="translate(491.684 142.396)" fill="#f66c69"></path><path d="M13.217,4.2l1.929-1.922A13.642,13.642,0,0,0,7.556,0,13.641,13.641,0,0,0,0,2.257L1.942,4.2A11.183,11.183,0,0,1,7.563,2.7h.01A11.218,11.218,0,0,1,13.217,4.2" transform="translate(521.496 142.396)" fill="#f66c69"></path><path d="M13.217,4.2l1.929-1.922A13.642,13.642,0,0,0,7.556,0,13.641,13.641,0,0,0,0,2.257L1.942,4.2A11.183,11.183,0,0,1,7.563,2.7h.01A11.218,11.218,0,0,1,13.217,4.2" transform="translate(0 156.536)" fill="#f66c69"></path><path d="M13.217,4.2l1.929-1.922A13.642,13.642,0,0,0,7.556,0,13.641,13.641,0,0,0,0,2.257L1.942,4.2A11.183,11.183,0,0,1,7.563,2.7h.01A11.218,11.218,0,0,1,13.217,4.2" transform="translate(29.813 156.536)" fill="#f66c69"></path><path d="M13.217,4.2l1.929-1.922A13.642,13.642,0,0,0,7.556,0,13.641,13.641,0,0,0,0,2.257L1.942,4.2A11.183,11.183,0,0,1,7.563,2.7h.01A11.218,11.218,0,0,1,13.217,4.2" transform="translate(59.625 156.536)" fill="#f66c69"></path><path d="M13.217,4.2l1.929-1.922A13.642,13.642,0,0,0,7.556,0,13.641,13.641,0,0,0,0,2.257L1.942,4.2A11.183,11.183,0,0,1,7.563,2.7h.01A11.218,11.218,0,0,1,13.217,4.2" transform="translate(89.437 156.536)" fill="#f66c69"></path><path d="M13.217,4.2l1.929-1.922A13.642,13.642,0,0,0,7.556,0,13.641,13.641,0,0,0,0,2.257L1.942,4.2A11.183,11.183,0,0,1,7.563,2.7h.01A11.218,11.218,0,0,1,13.217,4.2" transform="translate(119.249 156.536)" fill="#f66c69"></path><path d="M13.217,4.2l1.929-1.922A13.642,13.642,0,0,0,7.556,0,13.641,13.641,0,0,0,0,2.257L1.942,4.2A11.183,11.183,0,0,1,7.563,2.7h.01A11.218,11.218,0,0,1,13.217,4.2" transform="translate(149.061 156.536)" fill="#f66c69"></path><path d="M13.217,4.2l1.929-1.922A13.642,13.642,0,0,0,7.556,0,13.641,13.641,0,0,0,0,2.257L1.942,4.2A11.183,11.183,0,0,1,7.563,2.7h.01A11.218,11.218,0,0,1,13.217,4.2" transform="translate(178.873 156.536)" fill="#f66c69"></path><path d="M13.217,4.2l1.929-1.922A13.642,13.642,0,0,0,7.556,0,13.641,13.641,0,0,0,0,2.257L1.942,4.2A11.183,11.183,0,0,1,7.563,2.7h.01A11.218,11.218,0,0,1,13.217,4.2" transform="translate(208.685 156.536)" fill="#f66c69"></path><path d="M13.217,4.2l1.929-1.922A13.642,13.642,0,0,0,7.556,0,13.641,13.641,0,0,0,0,2.257L1.942,4.2A11.183,11.183,0,0,1,7.563,2.7h.01A11.218,11.218,0,0,1,13.217,4.2" transform="translate(238.497 156.536)" fill="#f66c69"></path><path d="M13.217,4.2l1.929-1.922A13.642,13.642,0,0,0,7.556,0,13.641,13.641,0,0,0,0,2.257L1.942,4.2A11.183,11.183,0,0,1,7.563,2.7h.01A11.218,11.218,0,0,1,13.217,4.2" transform="translate(268.31 156.536)" fill="#f66c69"></path><path d="M13.217,4.2l1.929-1.922A13.642,13.642,0,0,0,7.556,0,13.641,13.641,0,0,0,0,2.257L1.942,4.2A11.183,11.183,0,0,1,7.563,2.7h.01A11.218,11.218,0,0,1,13.217,4.2" transform="translate(298.122 156.536)" fill="#f66c69"></path><path d="M13.217,4.2l1.929-1.922A13.642,13.642,0,0,0,7.556,0,13.641,13.641,0,0,0,0,2.257L1.942,4.2A11.183,11.183,0,0,1,7.563,2.7h.01A11.218,11.218,0,0,1,13.217,4.2" transform="translate(327.934 156.536)" fill="#f66c69"></path><path d="M13.217,4.2l1.929-1.922A13.642,13.642,0,0,0,7.556,0,13.641,13.641,0,0,0,0,2.257L1.942,4.2A11.183,11.183,0,0,1,7.563,2.7h.01A11.218,11.218,0,0,1,13.217,4.2" transform="translate(357.746 156.536)" fill="#f66c69"></path><path d="M13.217,4.2l1.929-1.922A13.642,13.642,0,0,0,7.556,0,13.641,13.641,0,0,0,0,2.257L1.942,4.2A11.183,11.183,0,0,1,7.563,2.7h.01A11.218,11.218,0,0,1,13.217,4.2" transform="translate(387.558 156.536)" fill="#f66c69"></path><path d="M13.217,4.2l1.929-1.922A13.642,13.642,0,0,0,7.556,0,13.641,13.641,0,0,0,0,2.257L1.942,4.2A11.183,11.183,0,0,1,7.563,2.7h.01A11.218,11.218,0,0,1,13.217,4.2" transform="translate(417.37 156.536)" fill="#f66c69"></path><path d="M13.217,4.2l1.929-1.922A13.642,13.642,0,0,0,7.556,0,13.641,13.641,0,0,0,0,2.257L1.942,4.2A11.183,11.183,0,0,1,7.563,2.7h.01A11.218,11.218,0,0,1,13.217,4.2" transform="translate(447.182 156.536)" fill="#f66c69"></path><path d="M13.217,4.2l1.929-1.922A13.642,13.642,0,0,0,7.556,0,13.641,13.641,0,0,0,0,2.257L1.942,4.2A11.183,11.183,0,0,1,7.563,2.7h.01A11.218,11.218,0,0,1,13.217,4.2" transform="translate(476.994 156.536)" fill="#f66c69"></path><path d="M13.217,4.2l1.929-1.922A13.642,13.642,0,0,0,7.556,0,13.641,13.641,0,0,0,0,2.257L1.942,4.2A11.183,11.183,0,0,1,7.563,2.7h.01A11.218,11.218,0,0,1,13.217,4.2" transform="translate(506.807 156.536)" fill="#f66c69"></path><path d="M13.217,4.2l1.929-1.922A13.642,13.642,0,0,0,7.556,0,13.641,13.641,0,0,0,0,2.257L1.942,4.2a11.184,11.184,0,0,1,5.621-1.5h.01A11.229,11.229,0,0,1,13.217,4.2" transform="translate(14.689 170.676)" fill="#f66c69"></path><path d="M13.217,4.2l1.929-1.922A13.642,13.642,0,0,0,7.556,0,13.641,13.641,0,0,0,0,2.257L1.942,4.2a11.184,11.184,0,0,1,5.621-1.5h.01A11.229,11.229,0,0,1,13.217,4.2" transform="translate(44.501 170.676)" fill="#f66c69"></path><path d="M13.217,4.2l1.929-1.922A13.642,13.642,0,0,0,7.556,0,13.641,13.641,0,0,0,0,2.257L1.942,4.2a11.184,11.184,0,0,1,5.621-1.5h.01A11.229,11.229,0,0,1,13.217,4.2" transform="translate(74.313 170.676)" fill="#f66c69"></path><path d="M13.217,4.2l1.929-1.922A13.642,13.642,0,0,0,7.556,0,13.641,13.641,0,0,0,0,2.257L1.942,4.2a11.184,11.184,0,0,1,5.621-1.5h.01A11.229,11.229,0,0,1,13.217,4.2" transform="translate(104.126 170.676)" fill="#f66c69"></path><path d="M13.217,4.2l1.929-1.922A13.642,13.642,0,0,0,7.556,0,13.641,13.641,0,0,0,0,2.257L1.942,4.2a11.184,11.184,0,0,1,5.621-1.5h.01A11.229,11.229,0,0,1,13.217,4.2" transform="translate(133.938 170.676)" fill="#f66c69"></path><path d="M13.217,4.2l1.929-1.922A13.642,13.642,0,0,0,7.556,0,13.641,13.641,0,0,0,0,2.257L1.942,4.2a11.184,11.184,0,0,1,5.621-1.5h.01A11.229,11.229,0,0,1,13.217,4.2" transform="translate(163.75 170.676)" fill="#f66c69"></path><path d="M13.217,4.2l1.929-1.922A13.642,13.642,0,0,0,7.556,0,13.641,13.641,0,0,0,0,2.257L1.942,4.2a11.184,11.184,0,0,1,5.621-1.5h.01A11.229,11.229,0,0,1,13.217,4.2" transform="translate(193.562 170.676)" fill="#f66c69"></path><path d="M13.217,4.2l1.929-1.922A13.642,13.642,0,0,0,7.556,0,13.641,13.641,0,0,0,0,2.257L1.942,4.2a11.184,11.184,0,0,1,5.621-1.5h.01A11.229,11.229,0,0,1,13.217,4.2" transform="translate(223.375 170.676)" fill="#f66c69"></path><path d="M13.217,4.2l1.929-1.922A13.642,13.642,0,0,0,7.556,0,13.641,13.641,0,0,0,0,2.257L1.942,4.2a11.184,11.184,0,0,1,5.621-1.5h.01A11.229,11.229,0,0,1,13.217,4.2" transform="translate(253.187 170.676)" fill="#f66c69"></path><path d="M13.217,4.2l1.929-1.922A13.642,13.642,0,0,0,7.556,0,13.641,13.641,0,0,0,0,2.257L1.942,4.2a11.184,11.184,0,0,1,5.621-1.5h.01A11.229,11.229,0,0,1,13.217,4.2" transform="translate(282.999 170.676)" fill="#f66c69"></path><path d="M13.217,4.2l1.929-1.922A13.642,13.642,0,0,0,7.556,0,13.641,13.641,0,0,0,0,2.257L1.942,4.2a11.184,11.184,0,0,1,5.621-1.5h.01A11.229,11.229,0,0,1,13.217,4.2" transform="translate(312.811 170.676)" fill="#f66c69"></path><path d="M13.217,4.2l1.929-1.922A13.642,13.642,0,0,0,7.556,0,13.641,13.641,0,0,0,0,2.257L1.942,4.2a11.184,11.184,0,0,1,5.621-1.5h.01A11.229,11.229,0,0,1,13.217,4.2" transform="translate(342.623 170.676)" fill="#f66c69"></path><path d="M13.217,4.2l1.929-1.922A13.642,13.642,0,0,0,7.556,0,13.641,13.641,0,0,0,0,2.257L1.942,4.2a11.184,11.184,0,0,1,5.621-1.5h.01A11.229,11.229,0,0,1,13.217,4.2" transform="translate(372.435 170.676)" fill="#f66c69"></path><path d="M13.217,4.2l1.929-1.922A13.642,13.642,0,0,0,7.556,0,13.641,13.641,0,0,0,0,2.257L1.942,4.2a11.184,11.184,0,0,1,5.621-1.5h.01A11.229,11.229,0,0,1,13.217,4.2" transform="translate(402.247 170.676)" fill="#f66c69"></path><path d="M13.217,4.2l1.929-1.922A13.642,13.642,0,0,0,7.556,0,13.641,13.641,0,0,0,0,2.257L1.942,4.2a11.184,11.184,0,0,1,5.621-1.5h.01A11.229,11.229,0,0,1,13.217,4.2" transform="translate(432.059 170.676)" fill="#f66c69"></path><path d="M13.217,4.2l1.929-1.922A13.642,13.642,0,0,0,7.556,0,13.641,13.641,0,0,0,0,2.257L1.942,4.2a11.184,11.184,0,0,1,5.621-1.5h.01A11.229,11.229,0,0,1,13.217,4.2" transform="translate(461.872 170.676)" fill="#f66c69"></path><path d="M13.217,4.2l1.929-1.922A13.642,13.642,0,0,0,7.556,0,13.641,13.641,0,0,0,0,2.257L1.942,4.2a11.184,11.184,0,0,1,5.621-1.5h.01A11.229,11.229,0,0,1,13.217,4.2" transform="translate(491.684 170.676)" fill="#f66c69"></path><path d="M13.217,4.2l1.929-1.922A13.642,13.642,0,0,0,7.556,0,13.641,13.641,0,0,0,0,2.257L1.942,4.2a11.184,11.184,0,0,1,5.621-1.5h.01A11.229,11.229,0,0,1,13.217,4.2" transform="translate(521.496 170.676)" fill="#f66c69"></path><path d="M13.217,4.2l1.929-1.922A13.642,13.642,0,0,0,7.556,0,13.641,13.641,0,0,0,0,2.257L1.942,4.2a11.184,11.184,0,0,1,5.621-1.5h.01A11.229,11.229,0,0,1,13.217,4.2" transform="translate(0 184.815)" fill="#f66c69"></path><path d="M13.217,4.2l1.929-1.922A13.642,13.642,0,0,0,7.556,0,13.641,13.641,0,0,0,0,2.257L1.942,4.2a11.184,11.184,0,0,1,5.621-1.5h.01A11.229,11.229,0,0,1,13.217,4.2" transform="translate(29.813 184.815)" fill="#f66c69"></path><path d="M13.217,4.2l1.929-1.922A13.642,13.642,0,0,0,7.556,0,13.641,13.641,0,0,0,0,2.257L1.942,4.2a11.184,11.184,0,0,1,5.621-1.5h.01A11.229,11.229,0,0,1,13.217,4.2" transform="translate(59.625 184.815)" fill="#f66c69"></path><path d="M13.217,4.2l1.929-1.922A13.642,13.642,0,0,0,7.556,0,13.641,13.641,0,0,0,0,2.257L1.942,4.2a11.184,11.184,0,0,1,5.621-1.5h.01A11.229,11.229,0,0,1,13.217,4.2" transform="translate(89.437 184.815)" fill="#f66c69"></path><path d="M13.217,4.2l1.929-1.922A13.642,13.642,0,0,0,7.556,0,13.641,13.641,0,0,0,0,2.257L1.942,4.2a11.184,11.184,0,0,1,5.621-1.5h.01A11.229,11.229,0,0,1,13.217,4.2" transform="translate(119.249 184.815)" fill="#f66c69"></path><path d="M13.217,4.2l1.929-1.922A13.642,13.642,0,0,0,7.556,0,13.641,13.641,0,0,0,0,2.257L1.942,4.2a11.184,11.184,0,0,1,5.621-1.5h.01A11.229,11.229,0,0,1,13.217,4.2" transform="translate(149.061 184.815)" fill="#f66c69"></path><path d="M13.217,4.2l1.929-1.922A13.642,13.642,0,0,0,7.556,0,13.641,13.641,0,0,0,0,2.257L1.942,4.2a11.184,11.184,0,0,1,5.621-1.5h.01A11.229,11.229,0,0,1,13.217,4.2" transform="translate(178.873 184.815)" fill="#f66c69"></path><path d="M13.217,4.2l1.929-1.922A13.642,13.642,0,0,0,7.556,0,13.641,13.641,0,0,0,0,2.257L1.942,4.2a11.184,11.184,0,0,1,5.621-1.5h.01A11.229,11.229,0,0,1,13.217,4.2" transform="translate(208.685 184.815)" fill="#f66c69"></path><path d="M13.217,4.2l1.929-1.922A13.642,13.642,0,0,0,7.556,0,13.641,13.641,0,0,0,0,2.257L1.942,4.2a11.184,11.184,0,0,1,5.621-1.5h.01A11.229,11.229,0,0,1,13.217,4.2" transform="translate(238.497 184.815)" fill="#f66c69"></path><path d="M13.217,4.2l1.929-1.922A13.642,13.642,0,0,0,7.556,0,13.641,13.641,0,0,0,0,2.257L1.942,4.2a11.184,11.184,0,0,1,5.621-1.5h.01A11.229,11.229,0,0,1,13.217,4.2" transform="translate(268.31 184.815)" fill="#f66c69"></path><path d="M13.217,4.2l1.929-1.922A13.642,13.642,0,0,0,7.556,0,13.641,13.641,0,0,0,0,2.257L1.942,4.2a11.184,11.184,0,0,1,5.621-1.5h.01A11.229,11.229,0,0,1,13.217,4.2" transform="translate(298.122 184.815)" fill="#f66c69"></path><path d="M13.217,4.2l1.929-1.922A13.642,13.642,0,0,0,7.556,0,13.641,13.641,0,0,0,0,2.257L1.942,4.2a11.184,11.184,0,0,1,5.621-1.5h.01A11.229,11.229,0,0,1,13.217,4.2" transform="translate(327.934 184.815)" fill="#f66c69"></path><path d="M13.217,4.2l1.929-1.922A13.642,13.642,0,0,0,7.556,0,13.641,13.641,0,0,0,0,2.257L1.942,4.2a11.184,11.184,0,0,1,5.621-1.5h.01A11.229,11.229,0,0,1,13.217,4.2" transform="translate(357.746 184.815)" fill="#f66c69"></path><path d="M13.217,4.2l1.929-1.922A13.642,13.642,0,0,0,7.556,0,13.641,13.641,0,0,0,0,2.257L1.942,4.2a11.184,11.184,0,0,1,5.621-1.5h.01A11.229,11.229,0,0,1,13.217,4.2" transform="translate(387.558 184.815)" fill="#f66c69"></path><path d="M13.217,4.2l1.929-1.922A13.642,13.642,0,0,0,7.556,0,13.641,13.641,0,0,0,0,2.257L1.942,4.2a11.184,11.184,0,0,1,5.621-1.5h.01A11.229,11.229,0,0,1,13.217,4.2" transform="translate(417.37 184.815)" fill="#f66c69"></path><path d="M13.217,4.2l1.929-1.922A13.642,13.642,0,0,0,7.556,0,13.641,13.641,0,0,0,0,2.257L1.942,4.2a11.184,11.184,0,0,1,5.621-1.5h.01A11.229,11.229,0,0,1,13.217,4.2" transform="translate(447.182 184.815)" fill="#f66c69"></path><path d="M13.217,4.2l1.929-1.922A13.642,13.642,0,0,0,7.556,0,13.641,13.641,0,0,0,0,2.257L1.942,4.2a11.184,11.184,0,0,1,5.621-1.5h.01A11.229,11.229,0,0,1,13.217,4.2" transform="translate(476.994 184.815)" fill="#f66c69"></path><path d="M13.217,4.2l1.929-1.922A13.642,13.642,0,0,0,7.556,0,13.641,13.641,0,0,0,0,2.257L1.942,4.2a11.184,11.184,0,0,1,5.621-1.5h.01A11.229,11.229,0,0,1,13.217,4.2" transform="translate(506.807 184.815)" fill="#f66c69"></path><path d="M13.217,4.2l1.929-1.922A13.642,13.642,0,0,0,7.556,0,13.641,13.641,0,0,0,0,2.257L1.942,4.2a11.184,11.184,0,0,1,5.621-1.5h.01A11.229,11.229,0,0,1,13.217,4.2" transform="translate(14.689 198.955)" fill="#f66c69"></path><path d="M13.217,4.2l1.929-1.922A13.642,13.642,0,0,0,7.556,0,13.641,13.641,0,0,0,0,2.257L1.942,4.2a11.184,11.184,0,0,1,5.621-1.5h.01A11.229,11.229,0,0,1,13.217,4.2" transform="translate(44.501 198.955)" fill="#f66c69"></path><path d="M13.217,4.2l1.929-1.922A13.642,13.642,0,0,0,7.556,0,13.641,13.641,0,0,0,0,2.257L1.942,4.2a11.184,11.184,0,0,1,5.621-1.5h.01A11.229,11.229,0,0,1,13.217,4.2" transform="translate(74.313 198.955)" fill="#f66c69"></path><path d="M13.217,4.2l1.929-1.922A13.642,13.642,0,0,0,7.556,0,13.641,13.641,0,0,0,0,2.257L1.942,4.2a11.184,11.184,0,0,1,5.621-1.5h.01A11.229,11.229,0,0,1,13.217,4.2" transform="translate(104.126 198.955)" fill="#f66c69"></path><path d="M13.217,4.2l1.929-1.922A13.642,13.642,0,0,0,7.556,0,13.641,13.641,0,0,0,0,2.257L1.942,4.2a11.184,11.184,0,0,1,5.621-1.5h.01A11.229,11.229,0,0,1,13.217,4.2" transform="translate(133.938 198.955)" fill="#f66c69"></path><path d="M13.217,4.2l1.929-1.922A13.642,13.642,0,0,0,7.556,0,13.641,13.641,0,0,0,0,2.257L1.942,4.2a11.184,11.184,0,0,1,5.621-1.5h.01A11.229,11.229,0,0,1,13.217,4.2" transform="translate(163.75 198.955)" fill="#f66c69"></path><path d="M13.217,4.2l1.929-1.922A13.642,13.642,0,0,0,7.556,0,13.641,13.641,0,0,0,0,2.257L1.942,4.2a11.184,11.184,0,0,1,5.621-1.5h.01A11.229,11.229,0,0,1,13.217,4.2" transform="translate(193.562 198.955)" fill="#f66c69"></path><path d="M13.217,4.2l1.929-1.922A13.642,13.642,0,0,0,7.556,0,13.641,13.641,0,0,0,0,2.257L1.942,4.2a11.184,11.184,0,0,1,5.621-1.5h.01A11.229,11.229,0,0,1,13.217,4.2" transform="translate(223.375 198.955)" fill="#f66c69"></path><path d="M13.217,4.2l1.929-1.922A13.642,13.642,0,0,0,7.556,0,13.641,13.641,0,0,0,0,2.257L1.942,4.2a11.184,11.184,0,0,1,5.621-1.5h.01A11.229,11.229,0,0,1,13.217,4.2" transform="translate(253.187 198.955)" fill="#f66c69"></path><path d="M13.217,4.2l1.929-1.922A13.642,13.642,0,0,0,7.556,0,13.641,13.641,0,0,0,0,2.257L1.942,4.2a11.184,11.184,0,0,1,5.621-1.5h.01A11.229,11.229,0,0,1,13.217,4.2" transform="translate(282.999 198.955)" fill="#f66c69"></path><path d="M13.217,4.2l1.929-1.922A13.642,13.642,0,0,0,7.556,0,13.641,13.641,0,0,0,0,2.257L1.942,4.2a11.184,11.184,0,0,1,5.621-1.5h.01A11.229,11.229,0,0,1,13.217,4.2" transform="translate(312.811 198.955)" fill="#f66c69"></path><path d="M13.217,4.2l1.929-1.922A13.642,13.642,0,0,0,7.556,0,13.641,13.641,0,0,0,0,2.257L1.942,4.2a11.184,11.184,0,0,1,5.621-1.5h.01A11.229,11.229,0,0,1,13.217,4.2" transform="translate(342.623 198.955)" fill="#f66c69"></path><path d="M13.217,4.2l1.929-1.922A13.642,13.642,0,0,0,7.556,0,13.641,13.641,0,0,0,0,2.257L1.942,4.2a11.184,11.184,0,0,1,5.621-1.5h.01A11.229,11.229,0,0,1,13.217,4.2" transform="translate(372.435 198.955)" fill="#f66c69"></path><path d="M13.217,4.2l1.929-1.922A13.642,13.642,0,0,0,7.556,0,13.641,13.641,0,0,0,0,2.257L1.942,4.2a11.184,11.184,0,0,1,5.621-1.5h.01A11.229,11.229,0,0,1,13.217,4.2" transform="translate(402.247 198.955)" fill="#f66c69"></path><path d="M13.217,4.2l1.929-1.922A13.642,13.642,0,0,0,7.556,0,13.641,13.641,0,0,0,0,2.257L1.942,4.2a11.184,11.184,0,0,1,5.621-1.5h.01A11.229,11.229,0,0,1,13.217,4.2" transform="translate(432.059 198.955)" fill="#f66c69"></path><path d="M13.217,4.2l1.929-1.922A13.642,13.642,0,0,0,7.556,0,13.641,13.641,0,0,0,0,2.257L1.942,4.2a11.184,11.184,0,0,1,5.621-1.5h.01A11.229,11.229,0,0,1,13.217,4.2" transform="translate(461.872 198.955)" fill="#f66c69"></path><path d="M13.217,4.2l1.929-1.922A13.642,13.642,0,0,0,7.556,0,13.641,13.641,0,0,0,0,2.257L1.942,4.2a11.184,11.184,0,0,1,5.621-1.5h.01A11.229,11.229,0,0,1,13.217,4.2" transform="translate(491.684 198.955)" fill="#f66c69"></path><path d="M13.217,4.2l1.929-1.922A13.642,13.642,0,0,0,7.556,0,13.641,13.641,0,0,0,0,2.257L1.942,4.2a11.184,11.184,0,0,1,5.621-1.5h.01A11.229,11.229,0,0,1,13.217,4.2" transform="translate(521.496 198.955)" fill="#f66c69"></path><path d="M13.217,4.2l1.929-1.922A13.642,13.642,0,0,0,7.556,0,13.641,13.641,0,0,0,0,2.257L1.942,4.2a11.184,11.184,0,0,1,5.621-1.5h.01A11.229,11.229,0,0,1,13.217,4.2" transform="translate(0 213.094)" fill="#f66c69"></path><path d="M13.217,4.2l1.929-1.922A13.642,13.642,0,0,0,7.556,0,13.641,13.641,0,0,0,0,2.257L1.942,4.2a11.184,11.184,0,0,1,5.621-1.5h.01A11.229,11.229,0,0,1,13.217,4.2" transform="translate(29.813 213.094)" fill="#f66c69"></path><path d="M13.217,4.2l1.929-1.922A13.642,13.642,0,0,0,7.556,0,13.641,13.641,0,0,0,0,2.257L1.942,4.2a11.184,11.184,0,0,1,5.621-1.5h.01A11.229,11.229,0,0,1,13.217,4.2" transform="translate(59.625 213.094)" fill="#f66c69"></path><path d="M13.217,4.2l1.929-1.922A13.642,13.642,0,0,0,7.556,0,13.641,13.641,0,0,0,0,2.257L1.942,4.2a11.184,11.184,0,0,1,5.621-1.5h.01A11.229,11.229,0,0,1,13.217,4.2" transform="translate(89.437 213.094)" fill="#f66c69"></path><path d="M13.217,4.2l1.929-1.922A13.642,13.642,0,0,0,7.556,0,13.641,13.641,0,0,0,0,2.257L1.942,4.2a11.184,11.184,0,0,1,5.621-1.5h.01A11.229,11.229,0,0,1,13.217,4.2" transform="translate(119.249 213.094)" fill="#f66c69"></path><path d="M13.217,4.2l1.929-1.922A13.642,13.642,0,0,0,7.556,0,13.641,13.641,0,0,0,0,2.257L1.942,4.2a11.184,11.184,0,0,1,5.621-1.5h.01A11.229,11.229,0,0,1,13.217,4.2" transform="translate(149.061 213.094)" fill="#f66c69"></path><path d="M13.217,4.2l1.929-1.922A13.642,13.642,0,0,0,7.556,0,13.641,13.641,0,0,0,0,2.257L1.942,4.2a11.184,11.184,0,0,1,5.621-1.5h.01A11.229,11.229,0,0,1,13.217,4.2" transform="translate(178.873 213.094)" fill="#f66c69"></path><path d="M13.217,4.2l1.929-1.922A13.642,13.642,0,0,0,7.556,0,13.641,13.641,0,0,0,0,2.257L1.942,4.2a11.184,11.184,0,0,1,5.621-1.5h.01A11.229,11.229,0,0,1,13.217,4.2" transform="translate(208.685 213.094)" fill="#f66c69"></path><path d="M13.217,4.2l1.929-1.922A13.642,13.642,0,0,0,7.556,0,13.641,13.641,0,0,0,0,2.257L1.942,4.2a11.184,11.184,0,0,1,5.621-1.5h.01A11.229,11.229,0,0,1,13.217,4.2" transform="translate(238.497 213.094)" fill="#f66c69"></path><path d="M13.217,4.2l1.929-1.922A13.642,13.642,0,0,0,7.556,0,13.641,13.641,0,0,0,0,2.257L1.942,4.2a11.184,11.184,0,0,1,5.621-1.5h.01A11.229,11.229,0,0,1,13.217,4.2" transform="translate(268.31 213.094)" fill="#f66c69"></path><path d="M13.217,4.2l1.929-1.922A13.642,13.642,0,0,0,7.556,0,13.641,13.641,0,0,0,0,2.257L1.942,4.2a11.184,11.184,0,0,1,5.621-1.5h.01A11.229,11.229,0,0,1,13.217,4.2" transform="translate(298.122 213.094)" fill="#f66c69"></path><path d="M13.217,4.2l1.929-1.922A13.642,13.642,0,0,0,7.556,0,13.641,13.641,0,0,0,0,2.257L1.942,4.2a11.184,11.184,0,0,1,5.621-1.5h.01A11.229,11.229,0,0,1,13.217,4.2" transform="translate(327.934 213.094)" fill="#f66c69"></path><path d="M13.217,4.2l1.929-1.922A13.642,13.642,0,0,0,7.556,0,13.641,13.641,0,0,0,0,2.257L1.942,4.2a11.184,11.184,0,0,1,5.621-1.5h.01A11.229,11.229,0,0,1,13.217,4.2" transform="translate(357.746 213.094)" fill="#f66c69"></path><path d="M13.217,4.2l1.929-1.922A13.642,13.642,0,0,0,7.556,0,13.641,13.641,0,0,0,0,2.257L1.942,4.2a11.184,11.184,0,0,1,5.621-1.5h.01A11.229,11.229,0,0,1,13.217,4.2" transform="translate(387.558 213.094)" fill="#f66c69"></path><path d="M13.217,4.2l1.929-1.922A13.642,13.642,0,0,0,7.556,0,13.641,13.641,0,0,0,0,2.257L1.942,4.2a11.184,11.184,0,0,1,5.621-1.5h.01A11.229,11.229,0,0,1,13.217,4.2" transform="translate(417.37 213.094)" fill="#f66c69"></path><path d="M13.217,4.2l1.929-1.922A13.642,13.642,0,0,0,7.556,0,13.641,13.641,0,0,0,0,2.257L1.942,4.2a11.184,11.184,0,0,1,5.621-1.5h.01A11.229,11.229,0,0,1,13.217,4.2" transform="translate(447.182 213.094)" fill="#f66c69"></path><path d="M13.217,4.2l1.929-1.922A13.642,13.642,0,0,0,7.556,0,13.641,13.641,0,0,0,0,2.257L1.942,4.2a11.184,11.184,0,0,1,5.621-1.5h.01A11.229,11.229,0,0,1,13.217,4.2" transform="translate(476.994 213.094)" fill="#f66c69"></path><path d="M13.217,4.2l1.929-1.922A13.642,13.642,0,0,0,7.556,0,13.641,13.641,0,0,0,0,2.257L1.942,4.2a11.184,11.184,0,0,1,5.621-1.5h.01A11.229,11.229,0,0,1,13.217,4.2" transform="translate(506.807 213.094)" fill="#f66c69"></path></g></g></g><path d="M18.059,62.05C18.059,48.8,33,46.553,33,25.179A35.259,35.259,0,0,0,22.5,0L9.818,12.83c.033.033.069.06.1.092a17.458,17.458,0,0,1,5.024,12.288v0C14.943,40.209,0,38.492,0,62.081,0,84.9,14.943,84.986,14.943,98.95v0c0,15-14.943,13.281-14.943,36.871A35.266,35.266,0,0,0,10.5,161l12.68-12.83c-.033-.033-.069-.06-.1-.094a17.458,17.458,0,0,1-5.024-12.286C18.059,122.54,33,120.294,33,98.919c0-22.874-14.941-22.83-14.941-36.869" transform="translate(594 168.516) rotate(90)" fill="#3fbbe7" opacity="0.075"></path><path d="M18.059,62.05C18.059,48.8,33,46.553,33,25.179A35.259,35.259,0,0,0,22.5,0L9.818,12.83c.033.033.069.06.1.092a17.458,17.458,0,0,1,5.024,12.288v0C14.943,40.209,0,38.492,0,62.081,0,84.9,14.943,84.986,14.943,98.95v0c0,15-14.943,13.281-14.943,36.871A35.266,35.266,0,0,0,10.5,161l12.68-12.83c-.033-.033-.069-.06-.1-.094a17.458,17.458,0,0,1-5.024-12.286C18.059,122.54,33,120.294,33,98.919c0-22.874-14.941-22.83-14.941-36.869" transform="translate(679 106.516) rotate(90)" fill="#3fbbe7" opacity="0.075"></path><path d="M423.6,64.57c0-31.893-68.053-33.192-151.832-53.82,0,0-100.31-10.854-99.883-10.746s-26.95,16.68,14.746,27.215,6.786-13.7,6.725,1.175C193.354,76.838,0,71.294,0,147.483c0,73.695,193.354,73.977,193.354,119.08v0C193.354,315.008,0,309.458,0,385.648c0,31.888,52.12,60.69,135.9,81.324s131.944-42.887,131.944-42.887c-.428-.108-67.827-76.056-68.234-76.164-41.676-10.53,34,52.508,34.057,37.629C233.666,342.753,427,335.5,427,266.46c0-73.879-193.334-73.736-193.334-119.08C233.666,104.583,423.6,133.6,423.6,64.57Z" transform="translate(494.972 1.516) rotate(90)" fill="#7fe8ad" stroke="#7fe8ad" stroke-miterlimit="10" stroke-width="51" opacity="0.05"></path></g></svg> 