<?xml version="1.0" encoding="UTF-8"?>
<svg width="582px" height="510px" viewBox="0 0 582 510" version="1.1" xmlns="http://www.w3.org/2000/svg" xmlns:xlink="http://www.w3.org/1999/xlink">
    <!-- Generator: Sketch 59 (86127) - https://sketch.com -->
    <title>Group 2</title>
    <desc>Created with Sketch.</desc>
    <g id="Page-1" stroke="none" stroke-width="1" fill="none" fill-rule="evenodd">
        <g id="CartHook_v9" transform="translate(-858.000000, -161.000000)">
            <g id="Header" transform="translate(150.000000, 135.000000)">
                <g id="Image" transform="translate(476.000000, 0.000000)">
                    <g id="Group-2" transform="translate(258.000000, 51.000000)">
                        <path d="M545,13.5269144 C545,-25.1125548 488.995566,-60.0075037 398.937634,-85 L222.564154,-34.7973026 C223.023745,-34.6666798 179.143756,-47.2002488 223.964812,-34.4365349 C268.785868,-21.672821 293.91017,-4.38084989 293.844514,13.645097 L293.844514,13.6388768 L293.844514,13.6513171 C293.844514,72.3382765 86,65.6205324 86,157.927313 C86,247.211109 293.844514,247.553217 293.844514,302.197089 L293.844514,302.20331 L293.844514,302.197089 C293.844514,360.890269 86,354.166305 86,446.473086 C86,485.106335 142.02632,520.001284 232.084251,545 L408.457731,494.797303 C407.99814,494.66668 407.494779,494.560938 407.057073,494.430315 C362.257903,481.672821 337.111715,464.38085 337.177371,446.354903 C337.177371,394.50387 545,385.714822 545,302.072687 C545,212.564966 337.177371,212.73913 337.177371,157.802911 C337.177371,105.951878 545,97.1628293 545,13.5269144 Z" id="Big-Squiggle" stroke="#3FBBE7" stroke-width="51" fill="#3FBBE7" opacity="0.0672433036" transform="translate(315.500000, 230.000000) rotate(-270.000000) translate(-315.500000, -230.000000) "></path>
                        <g id="Circles" opacity="0.151506696" transform="translate(187.000000, 372.000000)" fill="#7FE8AD">
                            <path d="M8.49999986,5.7506837 C8.50102471,4.99986919 8.20304977,4.27914196 7.67148989,3.74782786 C7.13993,3.21617186 6.41896766,2.91735042 5.66683782,2.91666662 C4.91436548,2.91735042 4.19340314,3.21617186 3.66184325,3.74782786 C3.13028337,4.27914196 2.83230843,4.99986919 2.83333329,5.7506837 C2.83265093,6.50149822 3.13062587,7.22154165 3.66218575,7.75285575 C4.19374564,8.28416984 4.91436548,8.58299129 5.66683782,8.58333319 C7.22932248,8.58333319 8.49999986,7.31727392 8.49999986,5.7499999 L8.49999986,5.7506837 Z M0.000343519425,5.74948548 C0.000343519425,2.57415079 2.57433457,0 5.75017166,0 C8.92532171,0 11.5,2.57415079 11.5,5.74948548 C11.5,8.92550607 8.92600875,11.5 5.7508587,11.5 C2.57433457,11.4993139 0,8.92482017 0,5.74879959 L0.000343519425,5.74948548 Z" id="Fill-1"></path>
                            <path d="M241,5.7506837 C241.001025,4.99986919 240.70305,4.27914196 240.17149,3.74782786 C239.63993,3.21617186 238.918968,2.91735042 238.166838,2.91666662 C237.414365,2.91735042 236.693403,3.21617186 236.161843,3.74782786 C235.630283,4.27914196 235.332308,4.99986919 235.333333,5.7506837 C235.332651,6.50149822 235.630626,7.22154165 236.162186,7.75285575 C236.693746,8.28416984 237.414365,8.58299129 238.166838,8.58333319 C239.729322,8.58333319 241,7.31727392 241,5.7499999 L241,5.7506837 Z M232.500344,5.74948548 C232.500344,2.57415079 235.074335,0 238.250172,0 C241.425322,0 244,2.57415079 244,5.74948548 C244,8.92550607 241.426009,11.5 238.250859,11.5 C235.074335,11.4993139 232.5,8.92482017 232.5,5.74879959 L232.500344,5.74948548 Z" id="Fill-1"></path>
                            <path d="M125,5.7506837 C125.001025,4.99986919 124.70305,4.27914196 124.17149,3.74782786 C123.63993,3.21617186 122.918968,2.91735042 122.166838,2.91666662 C121.414365,2.91735042 120.693403,3.21617186 120.161843,3.74782786 C119.630283,4.27914196 119.332308,4.99986919 119.333333,5.7506837 C119.332651,6.50149822 119.630626,7.22154165 120.162186,7.75285575 C120.693746,8.28416984 121.414365,8.58299129 122.166838,8.58333319 C123.729322,8.58333319 125,7.31727392 125,5.7499999 L125,5.7506837 Z M116.500344,5.74948548 C116.500344,2.57415079 119.074335,0 122.250172,0 C125.425322,0 128,2.57415079 128,5.74948548 C128,8.92550607 125.426009,11.5 122.250859,11.5 C119.074335,11.4993139 116.5,8.92482017 116.5,5.74879959 L116.500344,5.74948548 Z" id="Fill-1"></path>
                            <path d="M31.9999999,5.7506837 C32.0010247,4.99986919 31.7030498,4.27914196 31.1714899,3.74782786 C30.63993,3.21617186 29.9189677,2.91735042 29.1668378,2.91666662 C28.4143655,2.91735042 27.6934031,3.21617186 27.1618433,3.74782786 C26.6302834,4.27914196 26.3323084,4.99986919 26.3333333,5.7506837 C26.3326509,6.50149822 26.6306259,7.22154165 27.1621858,7.75285575 C27.6937456,8.28416984 28.4143655,8.58299129 29.1668378,8.58333319 C30.7293225,8.58333319 31.9999999,7.31727392 31.9999999,5.7499999 L31.9999999,5.7506837 Z M23.5003435,5.74948548 C23.5003435,2.57415079 26.0743346,0 29.2501717,0 C32.4253217,0 35,2.57415079 35,5.74948548 C35,8.92550607 32.4260087,11.5 29.2508587,11.5 C26.0743346,11.4993139 23.5,8.92482017 23.5,5.74879959 L23.5003435,5.74948548 Z" id="Fill-1"></path>
                            <path d="M264,5.7506837 C264.001025,4.99986919 263.70305,4.27914196 263.17149,3.74782786 C262.63993,3.21617186 261.918968,2.91735042 261.166838,2.91666662 C260.414365,2.91735042 259.693403,3.21617186 259.161843,3.74782786 C258.630283,4.27914196 258.332308,4.99986919 258.333333,5.7506837 C258.332651,6.50149822 258.630626,7.22154165 259.162186,7.75285575 C259.693746,8.28416984 260.414365,8.58299129 261.166838,8.58333319 C262.729322,8.58333319 264,7.31727392 264,5.7499999 L264,5.7506837 Z M255.500344,5.74948548 C255.500344,2.57415079 258.074335,0 261.250172,0 C264.425322,0 267,2.57415079 267,5.74948548 C267,8.92550607 264.426009,11.5 261.250859,11.5 C258.074335,11.4993139 255.5,8.92482017 255.5,5.74879959 L255.500344,5.74948548 Z" id="Fill-1"></path>
                            <path d="M147.5,5.7506837 C147.501025,4.99986919 147.20305,4.27914196 146.67149,3.74782786 C146.13993,3.21617186 145.418968,2.91735042 144.666838,2.91666662 C143.914365,2.91735042 143.193403,3.21617186 142.661843,3.74782786 C142.130283,4.27914196 141.832308,4.99986919 141.833333,5.7506837 C141.832651,6.50149822 142.130626,7.22154165 142.662186,7.75285575 C143.193746,8.28416984 143.914365,8.58299129 144.666838,8.58333319 C146.229322,8.58333319 147.5,7.31727392 147.5,5.7499999 L147.5,5.7506837 Z M139.000344,5.74948548 C139.000344,2.57415079 141.574335,0 144.750172,0 C147.925322,0 150.5,2.57415079 150.5,5.74948548 C150.5,8.92550607 147.926009,11.5 144.750859,11.5 C141.574335,11.4993139 139,8.92482017 139,5.74879959 L139.000344,5.74948548 Z" id="Fill-1"></path>
                            <path d="M54.9999999,5.7506837 C55.0010247,4.99986919 54.7030498,4.27914196 54.1714899,3.74782786 C53.63993,3.21617186 52.9189677,2.91735042 52.1668378,2.91666662 C51.4143655,2.91735042 50.6934031,3.21617186 50.1618433,3.74782786 C49.6302834,4.27914196 49.3323084,4.99986919 49.3333333,5.7506837 C49.3326509,6.50149822 49.6306259,7.22154165 50.1621858,7.75285575 C50.6937456,8.28416984 51.4143655,8.58299129 52.1668378,8.58333319 C53.7293225,8.58333319 54.9999999,7.31727392 54.9999999,5.7499999 L54.9999999,5.7506837 Z M46.5003435,5.74948548 C46.5003435,2.57415079 49.0743346,0 52.2501717,0 C55.4253217,0 58,2.57415079 58,5.74948548 C58,8.92550607 55.4260087,11.5 52.2508587,11.5 C49.0743346,11.4993139 46.5,8.92482017 46.5,5.74879959 L46.5003435,5.74948548 Z" id="Fill-1"></path>
                            <path d="M287.5,5.7506837 C287.501025,4.99986919 287.20305,4.27914196 286.67149,3.74782786 C286.13993,3.21617186 285.418968,2.91735042 284.666838,2.91666662 C283.914365,2.91735042 283.193403,3.21617186 282.661843,3.74782786 C282.130283,4.27914196 281.832308,4.99986919 281.833333,5.7506837 C281.832651,6.50149822 282.130626,7.22154165 282.662186,7.75285575 C283.193746,8.28416984 283.914365,8.58299129 284.666838,8.58333319 C286.229322,8.58333319 287.5,7.31727392 287.5,5.7499999 L287.5,5.7506837 Z M279.000344,5.74948548 C279.000344,2.57415079 281.574335,0 284.750172,0 C287.925322,0 290.5,2.57415079 290.5,5.74948548 C290.5,8.92550607 287.926009,11.5 284.750859,11.5 C281.574335,11.4993139 279,8.92482017 279,5.74879959 L279.000344,5.74948548 Z" id="Fill-1"></path>
                            <path d="M171,5.7506837 C171.001025,4.99986919 170.70305,4.27914196 170.17149,3.74782786 C169.63993,3.21617186 168.918968,2.91735042 168.166838,2.91666662 C167.414365,2.91735042 166.693403,3.21617186 166.161843,3.74782786 C165.630283,4.27914196 165.332308,4.99986919 165.333333,5.7506837 C165.332651,6.50149822 165.630626,7.22154165 166.162186,7.75285575 C166.693746,8.28416984 167.414365,8.58299129 168.166838,8.58333319 C169.729322,8.58333319 171,7.31727392 171,5.7499999 L171,5.7506837 Z M162.500344,5.74948548 C162.500344,2.57415079 165.074335,0 168.250172,0 C171.425322,0 174,2.57415079 174,5.74948548 C174,8.92550607 171.426009,11.5 168.250859,11.5 C165.074335,11.4993139 162.5,8.92482017 162.5,5.74879959 L162.500344,5.74948548 Z" id="Fill-1"></path>
                            <path d="M78.4999999,5.7506837 C78.5010247,4.99986919 78.2030498,4.27914196 77.6714899,3.74782786 C77.13993,3.21617186 76.4189677,2.91735042 75.6668378,2.91666662 C74.9143655,2.91735042 74.1934031,3.21617186 73.6618433,3.74782786 C73.1302834,4.27914196 72.8323084,4.99986919 72.8333333,5.7506837 C72.8326509,6.50149822 73.1306259,7.22154165 73.6621858,7.75285575 C74.1937456,8.28416984 74.9143655,8.58299129 75.6668378,8.58333319 C77.2293225,8.58333319 78.4999999,7.31727392 78.4999999,5.7499999 L78.4999999,5.7506837 Z M70.0003435,5.74948548 C70.0003435,2.57415079 72.5743346,0 75.7501717,0 C78.9253217,0 81.5,2.57415079 81.5,5.74948548 C81.5,8.92550607 78.9260087,11.5 75.7508587,11.5 C72.5743346,11.4993139 70,8.92482017 70,5.74879959 L70.0003435,5.74948548 Z" id="Fill-1"></path>
                            <path d="M194,5.7506837 C194.001025,4.99986919 193.70305,4.27914196 193.17149,3.74782786 C192.63993,3.21617186 191.918968,2.91735042 191.166838,2.91666662 C190.414365,2.91735042 189.693403,3.21617186 189.161843,3.74782786 C188.630283,4.27914196 188.332308,4.99986919 188.333333,5.7506837 C188.332651,6.50149822 188.630626,7.22154165 189.162186,7.75285575 C189.693746,8.28416984 190.414365,8.58299129 191.166838,8.58333319 C192.729322,8.58333319 194,7.31727392 194,5.7499999 L194,5.7506837 Z M185.500344,5.74948548 C185.500344,2.57415079 188.074335,0 191.250172,0 C194.425322,0 197,2.57415079 197,5.74948548 C197,8.92550607 194.426009,11.5 191.250859,11.5 C188.074335,11.4993139 185.5,8.92482017 185.5,5.74879959 L185.500344,5.74948548 Z" id="Fill-1"></path>
                            <path d="M102,5.7506837 C102.001025,4.99986919 101.70305,4.27914196 101.17149,3.74782786 C100.63993,3.21617186 99.9189677,2.91735042 99.1668378,2.91666662 C98.4143655,2.91735042 97.6934031,3.21617186 97.1618433,3.74782786 C96.6302834,4.27914196 96.3323084,4.99986919 96.3333333,5.7506837 C96.3326509,6.50149822 96.6306259,7.22154165 97.1621858,7.75285575 C97.6937456,8.28416984 98.4143655,8.58299129 99.1668378,8.58333319 C100.729322,8.58333319 102,7.31727392 102,5.7499999 L102,5.7506837 Z M93.5003435,5.74948548 C93.5003435,2.57415079 96.0743346,0 99.2501717,0 C102.425322,0 105,2.57415079 105,5.74948548 C105,8.92550607 102.426009,11.5 99.2508587,11.5 C96.0743346,11.4993139 93.5,8.92482017 93.5,5.74879959 L93.5003435,5.74948548 Z" id="Fill-1"></path>
                            <path d="M217.5,5.7506837 C217.501025,4.99986919 217.20305,4.27914196 216.67149,3.74782786 C216.13993,3.21617186 215.418968,2.91735042 214.666838,2.91666662 C213.914365,2.91735042 213.193403,3.21617186 212.661843,3.74782786 C212.130283,4.27914196 211.832308,4.99986919 211.833333,5.7506837 C211.832651,6.50149822 212.130626,7.22154165 212.662186,7.75285575 C213.193746,8.28416984 213.914365,8.58299129 214.666838,8.58333319 C216.229322,8.58333319 217.5,7.31727392 217.5,5.7499999 L217.5,5.7506837 Z M209.000344,5.74948548 C209.000344,2.57415079 211.574335,0 214.750172,0 C217.925322,0 220.5,2.57415079 220.5,5.74948548 C220.5,8.92550607 217.926009,11.5 214.750859,11.5 C211.574335,11.4993139 209,8.92482017 209,5.74879959 L209.000344,5.74948548 Z" id="Fill-1"></path>
                            <path d="M19.9999999,28.2506837 C20.0010247,27.4998692 19.7030498,26.779142 19.1714899,26.2478279 C18.63993,25.7161719 17.9189677,25.4173504 17.1668378,25.4166666 C16.4143655,25.4173504 15.6934031,25.7161719 15.1618433,26.2478279 C14.6302834,26.779142 14.3323084,27.4998692 14.3333333,28.2506837 C14.3326509,29.0014982 14.6306259,29.7215416 15.1621858,30.2528557 C15.6937456,30.7841698 16.4143655,31.0829913 17.1668378,31.0833332 C18.7293225,31.0833332 19.9999999,29.8172739 19.9999999,28.2499999 L19.9999999,28.2506837 Z M11.5003435,28.2494855 C11.5003435,25.0741508 14.0743346,22.5 17.2501717,22.5 C20.4253217,22.5 23,25.0741508 23,28.2494855 C23,31.4255061 20.4260087,34 17.2508587,34 C14.0743346,33.9993139 11.5,31.4248202 11.5,28.2487996 L11.5003435,28.2494855 Z" id="Fill-1"></path>
                            <path d="M8.49999986,50.7506837 C8.50102471,49.9998692 8.20304977,49.279142 7.67148989,48.7478279 C7.13993,48.2161719 6.41896766,47.9173504 5.66683782,47.9166666 C4.91436548,47.9173504 4.19340314,48.2161719 3.66184325,48.7478279 C3.13028337,49.279142 2.83230843,49.9998692 2.83333329,50.7506837 C2.83265093,51.5014982 3.13062587,52.2215416 3.66218575,52.7528557 C4.19374564,53.2841698 4.91436548,53.5829913 5.66683782,53.5833332 C7.22932248,53.5833332 8.49999986,52.3172739 8.49999986,50.7499999 L8.49999986,50.7506837 Z M0.000343519425,50.7494855 C0.000343519425,47.5741508 2.57433457,45 5.75017166,45 C8.92532171,45 11.5,47.5741508 11.5,50.7494855 C11.5,53.9255061 8.92600875,56.5 5.7508587,56.5 C2.57433457,56.4993139 0,53.9248202 0,50.7487996 L0.000343519425,50.7494855 Z" id="Fill-1"></path>
                            <path d="M252.5,28.2506837 C252.501025,27.4998692 252.20305,26.779142 251.67149,26.2478279 C251.13993,25.7161719 250.418968,25.4173504 249.666838,25.4166666 C248.914365,25.4173504 248.193403,25.7161719 247.661843,26.2478279 C247.130283,26.779142 246.832308,27.4998692 246.833333,28.2506837 C246.832651,29.0014982 247.130626,29.7215416 247.662186,30.2528557 C248.193746,30.7841698 248.914365,31.0829913 249.666838,31.0833332 C251.229322,31.0833332 252.5,29.8172739 252.5,28.2499999 L252.5,28.2506837 Z M244.000344,28.2494855 C244.000344,25.0741508 246.574335,22.5 249.750172,22.5 C252.925322,22.5 255.5,25.0741508 255.5,28.2494855 C255.5,31.4255061 252.926009,34 249.750859,34 C246.574335,33.9993139 244,31.4248202 244,28.2487996 L244.000344,28.2494855 Z" id="Fill-1"></path>
                            <path d="M241,50.7506837 C241.001025,49.9998692 240.70305,49.279142 240.17149,48.7478279 C239.63993,48.2161719 238.918968,47.9173504 238.166838,47.9166666 C237.414365,47.9173504 236.693403,48.2161719 236.161843,48.7478279 C235.630283,49.279142 235.332308,49.9998692 235.333333,50.7506837 C235.332651,51.5014982 235.630626,52.2215416 236.162186,52.7528557 C236.693746,53.2841698 237.414365,53.5829913 238.166838,53.5833332 C239.729322,53.5833332 241,52.3172739 241,50.7499999 L241,50.7506837 Z M232.500344,50.7494855 C232.500344,47.5741508 235.074335,45 238.250172,45 C241.425322,45 244,47.5741508 244,50.7494855 C244,53.9255061 241.426009,56.5 238.250859,56.5 C235.074335,56.4993139 232.5,53.9248202 232.5,50.7487996 L232.500344,50.7494855 Z" id="Fill-1"></path>
                            <path d="M137,28.2506837 C137.001025,27.4998692 136.70305,26.779142 136.17149,26.2478279 C135.63993,25.7161719 134.918968,25.4173504 134.166838,25.4166666 C133.414365,25.4173504 132.693403,25.7161719 132.161843,26.2478279 C131.630283,26.779142 131.332308,27.4998692 131.333333,28.2506837 C131.332651,29.0014982 131.630626,29.7215416 132.162186,30.2528557 C132.693746,30.7841698 133.414365,31.0829913 134.166838,31.0833332 C135.729322,31.0833332 137,29.8172739 137,28.2499999 L137,28.2506837 Z M128.500344,28.2494855 C128.500344,25.0741508 131.074335,22.5 134.250172,22.5 C137.425322,22.5 140,25.0741508 140,28.2494855 C140,31.4255061 137.426009,34 134.250859,34 C131.074335,33.9993139 128.5,31.4248202 128.5,28.2487996 L128.500344,28.2494855 Z" id="Fill-1"></path>
                            <path d="M125,50.7506837 C125.001025,49.9998692 124.70305,49.279142 124.17149,48.7478279 C123.63993,48.2161719 122.918968,47.9173504 122.166838,47.9166666 C121.414365,47.9173504 120.693403,48.2161719 120.161843,48.7478279 C119.630283,49.279142 119.332308,49.9998692 119.333333,50.7506837 C119.332651,51.5014982 119.630626,52.2215416 120.162186,52.7528557 C120.693746,53.2841698 121.414365,53.5829913 122.166838,53.5833332 C123.729322,53.5833332 125,52.3172739 125,50.7499999 L125,50.7506837 Z M116.500344,50.7494855 C116.500344,47.5741508 119.074335,45 122.250172,45 C125.425322,45 128,47.5741508 128,50.7494855 C128,53.9255061 125.426009,56.5 122.250859,56.5 C119.074335,56.4993139 116.5,53.9248202 116.5,50.7487996 L116.500344,50.7494855 Z" id="Fill-1"></path>
                            <path d="M43.4999999,28.2506837 C43.5010247,27.4998692 43.2030498,26.779142 42.6714899,26.2478279 C42.13993,25.7161719 41.4189677,25.4173504 40.6668378,25.4166666 C39.9143655,25.4173504 39.1934031,25.7161719 38.6618433,26.2478279 C38.1302834,26.779142 37.8323084,27.4998692 37.8333333,28.2506837 C37.8326509,29.0014982 38.1306259,29.7215416 38.6621858,30.2528557 C39.1937456,30.7841698 39.9143655,31.0829913 40.6668378,31.0833332 C42.2293225,31.0833332 43.4999999,29.8172739 43.4999999,28.2499999 L43.4999999,28.2506837 Z M35.0003435,28.2494855 C35.0003435,25.0741508 37.5743346,22.5 40.7501717,22.5 C43.9253217,22.5 46.5,25.0741508 46.5,28.2494855 C46.5,31.4255061 43.9260087,34 40.7508587,34 C37.5743346,33.9993139 35,31.4248202 35,28.2487996 L35.0003435,28.2494855 Z" id="Fill-1"></path>
                            <path d="M31.9999999,50.7506837 C32.0010247,49.9998692 31.7030498,49.279142 31.1714899,48.7478279 C30.63993,48.2161719 29.9189677,47.9173504 29.1668378,47.9166666 C28.4143655,47.9173504 27.6934031,48.2161719 27.1618433,48.7478279 C26.6302834,49.279142 26.3323084,49.9998692 26.3333333,50.7506837 C26.3326509,51.5014982 26.6306259,52.2215416 27.1621858,52.7528557 C27.6937456,53.2841698 28.4143655,53.5829913 29.1668378,53.5833332 C30.7293225,53.5833332 31.9999999,52.3172739 31.9999999,50.7499999 L31.9999999,50.7506837 Z M23.5003435,50.7494855 C23.5003435,47.5741508 26.0743346,45 29.2501717,45 C32.4253217,45 35,47.5741508 35,50.7494855 C35,53.9255061 32.4260087,56.5 29.2508587,56.5 C26.0743346,56.4993139 23.5,53.9248202 23.5,50.7487996 L23.5003435,50.7494855 Z" id="Fill-1"></path>
                            <path d="M276,28.2506837 C276.001025,27.4998692 275.70305,26.779142 275.17149,26.2478279 C274.63993,25.7161719 273.918968,25.4173504 273.166838,25.4166666 C272.414365,25.4173504 271.693403,25.7161719 271.161843,26.2478279 C270.630283,26.779142 270.332308,27.4998692 270.333333,28.2506837 C270.332651,29.0014982 270.630626,29.7215416 271.162186,30.2528557 C271.693746,30.7841698 272.414365,31.0829913 273.166838,31.0833332 C274.729322,31.0833332 276,29.8172739 276,28.2499999 L276,28.2506837 Z M267.500344,28.2494855 C267.500344,25.0741508 270.074335,22.5 273.250172,22.5 C276.425322,22.5 279,25.0741508 279,28.2494855 C279,31.4255061 276.426009,34 273.250859,34 C270.074335,33.9993139 267.5,31.4248202 267.5,28.2487996 L267.500344,28.2494855 Z" id="Fill-1"></path>
                            <path d="M264,50.7506837 C264.001025,49.9998692 263.70305,49.279142 263.17149,48.7478279 C262.63993,48.2161719 261.918968,47.9173504 261.166838,47.9166666 C260.414365,47.9173504 259.693403,48.2161719 259.161843,48.7478279 C258.630283,49.279142 258.332308,49.9998692 258.333333,50.7506837 C258.332651,51.5014982 258.630626,52.2215416 259.162186,52.7528557 C259.693746,53.2841698 260.414365,53.5829913 261.166838,53.5833332 C262.729322,53.5833332 264,52.3172739 264,50.7499999 L264,50.7506837 Z M255.500344,50.7494855 C255.500344,47.5741508 258.074335,45 261.250172,45 C264.425322,45 267,47.5741508 267,50.7494855 C267,53.9255061 264.426009,56.5 261.250859,56.5 C258.074335,56.4993139 255.5,53.9248202 255.5,50.7487996 L255.500344,50.7494855 Z" id="Fill-1"></path>
                            <path d="M159,28.2506837 C159.001025,27.4998692 158.70305,26.779142 158.17149,26.2478279 C157.63993,25.7161719 156.918968,25.4173504 156.166838,25.4166666 C155.414365,25.4173504 154.693403,25.7161719 154.161843,26.2478279 C153.630283,26.779142 153.332308,27.4998692 153.333333,28.2506837 C153.332651,29.0014982 153.630626,29.7215416 154.162186,30.2528557 C154.693746,30.7841698 155.414365,31.0829913 156.166838,31.0833332 C157.729322,31.0833332 159,29.8172739 159,28.2499999 L159,28.2506837 Z M150.500344,28.2494855 C150.500344,25.0741508 153.074335,22.5 156.250172,22.5 C159.425322,22.5 162,25.0741508 162,28.2494855 C162,31.4255061 159.426009,34 156.250859,34 C153.074335,33.9993139 150.5,31.4248202 150.5,28.2487996 L150.500344,28.2494855 Z" id="Fill-1"></path>
                            <path d="M147.5,50.7506837 C147.501025,49.9998692 147.20305,49.279142 146.67149,48.7478279 C146.13993,48.2161719 145.418968,47.9173504 144.666838,47.9166666 C143.914365,47.9173504 143.193403,48.2161719 142.661843,48.7478279 C142.130283,49.279142 141.832308,49.9998692 141.833333,50.7506837 C141.832651,51.5014982 142.130626,52.2215416 142.662186,52.7528557 C143.193746,53.2841698 143.914365,53.5829913 144.666838,53.5833332 C146.229322,53.5833332 147.5,52.3172739 147.5,50.7499999 L147.5,50.7506837 Z M139.000344,50.7494855 C139.000344,47.5741508 141.574335,45 144.750172,45 C147.925322,45 150.5,47.5741508 150.5,50.7494855 C150.5,53.9255061 147.926009,56.5 144.750859,56.5 C141.574335,56.4993139 139,53.9248202 139,50.7487996 L139.000344,50.7494855 Z" id="Fill-1"></path>
                            <path d="M66.9999999,28.2506837 C67.0010247,27.4998692 66.7030498,26.779142 66.1714899,26.2478279 C65.63993,25.7161719 64.9189677,25.4173504 64.1668378,25.4166666 C63.4143655,25.4173504 62.6934031,25.7161719 62.1618433,26.2478279 C61.6302834,26.779142 61.3323084,27.4998692 61.3333333,28.2506837 C61.3326509,29.0014982 61.6306259,29.7215416 62.1621858,30.2528557 C62.6937456,30.7841698 63.4143655,31.0829913 64.1668378,31.0833332 C65.7293225,31.0833332 66.9999999,29.8172739 66.9999999,28.2499999 L66.9999999,28.2506837 Z M58.5003435,28.2494855 C58.5003435,25.0741508 61.0743346,22.5 64.2501717,22.5 C67.4253217,22.5 70,25.0741508 70,28.2494855 C70,31.4255061 67.4260087,34 64.2508587,34 C61.0743346,33.9993139 58.5,31.4248202 58.5,28.2487996 L58.5003435,28.2494855 Z" id="Fill-1"></path>
                            <path d="M54.9999999,50.7506837 C55.0010247,49.9998692 54.7030498,49.279142 54.1714899,48.7478279 C53.63993,48.2161719 52.9189677,47.9173504 52.1668378,47.9166666 C51.4143655,47.9173504 50.6934031,48.2161719 50.1618433,48.7478279 C49.6302834,49.279142 49.3323084,49.9998692 49.3333333,50.7506837 C49.3326509,51.5014982 49.6306259,52.2215416 50.1621858,52.7528557 C50.6937456,53.2841698 51.4143655,53.5829913 52.1668378,53.5833332 C53.7293225,53.5833332 54.9999999,52.3172739 54.9999999,50.7499999 L54.9999999,50.7506837 Z M46.5003435,50.7494855 C46.5003435,47.5741508 49.0743346,45 52.2501717,45 C55.4253217,45 58,47.5741508 58,50.7494855 C58,53.9255061 55.4260087,56.5 52.2508587,56.5 C49.0743346,56.4993139 46.5,53.9248202 46.5,50.7487996 L46.5003435,50.7494855 Z" id="Fill-1"></path>
                            <path d="M287.5,50.7506837 C287.501025,49.9998692 287.20305,49.279142 286.67149,48.7478279 C286.13993,48.2161719 285.418968,47.9173504 284.666838,47.9166666 C283.914365,47.9173504 283.193403,48.2161719 282.661843,48.7478279 C282.130283,49.279142 281.832308,49.9998692 281.833333,50.7506837 C281.832651,51.5014982 282.130626,52.2215416 282.662186,52.7528557 C283.193746,53.2841698 283.914365,53.5829913 284.666838,53.5833332 C286.229322,53.5833332 287.5,52.3172739 287.5,50.7499999 L287.5,50.7506837 Z M279.000344,50.7494855 C279.000344,47.5741508 281.574335,45 284.750172,45 C287.925322,45 290.5,47.5741508 290.5,50.7494855 C290.5,53.9255061 287.926009,56.5 284.750859,56.5 C281.574335,56.4993139 279,53.9248202 279,50.7487996 L279.000344,50.7494855 Z" id="Fill-1"></path>
                            <path d="M182.5,28.2506837 C182.501025,27.4998692 182.20305,26.779142 181.67149,26.2478279 C181.13993,25.7161719 180.418968,25.4173504 179.666838,25.4166666 C178.914365,25.4173504 178.193403,25.7161719 177.661843,26.2478279 C177.130283,26.779142 176.832308,27.4998692 176.833333,28.2506837 C176.832651,29.0014982 177.130626,29.7215416 177.662186,30.2528557 C178.193746,30.7841698 178.914365,31.0829913 179.666838,31.0833332 C181.229322,31.0833332 182.5,29.8172739 182.5,28.2499999 L182.5,28.2506837 Z M174.000344,28.2494855 C174.000344,25.0741508 176.574335,22.5 179.750172,22.5 C182.925322,22.5 185.5,25.0741508 185.5,28.2494855 C185.5,31.4255061 182.926009,34 179.750859,34 C176.574335,33.9993139 174,31.4248202 174,28.2487996 L174.000344,28.2494855 Z" id="Fill-1"></path>
                            <path d="M171,50.7506837 C171.001025,49.9998692 170.70305,49.279142 170.17149,48.7478279 C169.63993,48.2161719 168.918968,47.9173504 168.166838,47.9166666 C167.414365,47.9173504 166.693403,48.2161719 166.161843,48.7478279 C165.630283,49.279142 165.332308,49.9998692 165.333333,50.7506837 C165.332651,51.5014982 165.630626,52.2215416 166.162186,52.7528557 C166.693746,53.2841698 167.414365,53.5829913 168.166838,53.5833332 C169.729322,53.5833332 171,52.3172739 171,50.7499999 L171,50.7506837 Z M162.500344,50.7494855 C162.500344,47.5741508 165.074335,45 168.250172,45 C171.425322,45 174,47.5741508 174,50.7494855 C174,53.9255061 171.426009,56.5 168.250859,56.5 C165.074335,56.4993139 162.5,53.9248202 162.5,50.7487996 L162.500344,50.7494855 Z" id="Fill-1"></path>
                            <path d="M89.9999999,28.2506837 C90.0010247,27.4998692 89.7030498,26.779142 89.1714899,26.2478279 C88.63993,25.7161719 87.9189677,25.4173504 87.1668378,25.4166666 C86.4143655,25.4173504 85.6934031,25.7161719 85.1618433,26.2478279 C84.6302834,26.779142 84.3323084,27.4998692 84.3333333,28.2506837 C84.3326509,29.0014982 84.6306259,29.7215416 85.1621858,30.2528557 C85.6937456,30.7841698 86.4143655,31.0829913 87.1668378,31.0833332 C88.7293225,31.0833332 89.9999999,29.8172739 89.9999999,28.2499999 L89.9999999,28.2506837 Z M81.5003435,28.2494855 C81.5003435,25.0741508 84.0743346,22.5 87.2501717,22.5 C90.4253217,22.5 93,25.0741508 93,28.2494855 C93,31.4255061 90.4260087,34 87.2508587,34 C84.0743346,33.9993139 81.5,31.4248202 81.5,28.2487996 L81.5003435,28.2494855 Z" id="Fill-1"></path>
                            <path d="M78.4999999,50.7506837 C78.5010247,49.9998692 78.2030498,49.279142 77.6714899,48.7478279 C77.13993,48.2161719 76.4189677,47.9173504 75.6668378,47.9166666 C74.9143655,47.9173504 74.1934031,48.2161719 73.6618433,48.7478279 C73.1302834,49.279142 72.8323084,49.9998692 72.8333333,50.7506837 C72.8326509,51.5014982 73.1306259,52.2215416 73.6621858,52.7528557 C74.1937456,53.2841698 74.9143655,53.5829913 75.6668378,53.5833332 C77.2293225,53.5833332 78.4999999,52.3172739 78.4999999,50.7499999 L78.4999999,50.7506837 Z M70.0003435,50.7494855 C70.0003435,47.5741508 72.5743346,45 75.7501717,45 C78.9253217,45 81.5,47.5741508 81.5,50.7494855 C81.5,53.9255061 78.9260087,56.5 75.7508587,56.5 C72.5743346,56.4993139 70,53.9248202 70,50.7487996 L70.0003435,50.7494855 Z" id="Fill-1"></path>
                            <path d="M206,28.2506837 C206.001025,27.4998692 205.70305,26.779142 205.17149,26.2478279 C204.63993,25.7161719 203.918968,25.4173504 203.166838,25.4166666 C202.414365,25.4173504 201.693403,25.7161719 201.161843,26.2478279 C200.630283,26.779142 200.332308,27.4998692 200.333333,28.2506837 C200.332651,29.0014982 200.630626,29.7215416 201.162186,30.2528557 C201.693746,30.7841698 202.414365,31.0829913 203.166838,31.0833332 C204.729322,31.0833332 206,29.8172739 206,28.2499999 L206,28.2506837 Z M197.500344,28.2494855 C197.500344,25.0741508 200.074335,22.5 203.250172,22.5 C206.425322,22.5 209,25.0741508 209,28.2494855 C209,31.4255061 206.426009,34 203.250859,34 C200.074335,33.9993139 197.5,31.4248202 197.5,28.2487996 L197.500344,28.2494855 Z" id="Fill-1"></path>
                            <path d="M194,50.7506837 C194.001025,49.9998692 193.70305,49.279142 193.17149,48.7478279 C192.63993,48.2161719 191.918968,47.9173504 191.166838,47.9166666 C190.414365,47.9173504 189.693403,48.2161719 189.161843,48.7478279 C188.630283,49.279142 188.332308,49.9998692 188.333333,50.7506837 C188.332651,51.5014982 188.630626,52.2215416 189.162186,52.7528557 C189.693746,53.2841698 190.414365,53.5829913 191.166838,53.5833332 C192.729322,53.5833332 194,52.3172739 194,50.7499999 L194,50.7506837 Z M185.500344,50.7494855 C185.500344,47.5741508 188.074335,45 191.250172,45 C194.425322,45 197,47.5741508 197,50.7494855 C197,53.9255061 194.426009,56.5 191.250859,56.5 C188.074335,56.4993139 185.5,53.9248202 185.5,50.7487996 L185.500344,50.7494855 Z" id="Fill-1"></path>
                            <path d="M113.5,28.2506837 C113.501025,27.4998692 113.20305,26.779142 112.67149,26.2478279 C112.13993,25.7161719 111.418968,25.4173504 110.666838,25.4166666 C109.914365,25.4173504 109.193403,25.7161719 108.661843,26.2478279 C108.130283,26.779142 107.832308,27.4998692 107.833333,28.2506837 C107.832651,29.0014982 108.130626,29.7215416 108.662186,30.2528557 C109.193746,30.7841698 109.914365,31.0829913 110.666838,31.0833332 C112.229322,31.0833332 113.5,29.8172739 113.5,28.2499999 L113.5,28.2506837 Z M105.000344,28.2494855 C105.000344,25.0741508 107.574335,22.5 110.750172,22.5 C113.925322,22.5 116.5,25.0741508 116.5,28.2494855 C116.5,31.4255061 113.926009,34 110.750859,34 C107.574335,33.9993139 105,31.4248202 105,28.2487996 L105.000344,28.2494855 Z" id="Fill-1"></path>
                            <path d="M102,50.7506837 C102.001025,49.9998692 101.70305,49.279142 101.17149,48.7478279 C100.63993,48.2161719 99.9189677,47.9173504 99.1668378,47.9166666 C98.4143655,47.9173504 97.6934031,48.2161719 97.1618433,48.7478279 C96.6302834,49.279142 96.3323084,49.9998692 96.3333333,50.7506837 C96.3326509,51.5014982 96.6306259,52.2215416 97.1621858,52.7528557 C97.6937456,53.2841698 98.4143655,53.5829913 99.1668378,53.5833332 C100.729322,53.5833332 102,52.3172739 102,50.7499999 L102,50.7506837 Z M93.5003435,50.7494855 C93.5003435,47.5741508 96.0743346,45 99.2501717,45 C102.425322,45 105,47.5741508 105,50.7494855 C105,53.9255061 102.426009,56.5 99.2508587,56.5 C96.0743346,56.4993139 93.5,53.9248202 93.5,50.7487996 L93.5003435,50.7494855 Z" id="Fill-1"></path>
                            <path d="M229,28.2506837 C229.001025,27.4998692 228.70305,26.779142 228.17149,26.2478279 C227.63993,25.7161719 226.918968,25.4173504 226.166838,25.4166666 C225.414365,25.4173504 224.693403,25.7161719 224.161843,26.2478279 C223.630283,26.779142 223.332308,27.4998692 223.333333,28.2506837 C223.332651,29.0014982 223.630626,29.7215416 224.162186,30.2528557 C224.693746,30.7841698 225.414365,31.0829913 226.166838,31.0833332 C227.729322,31.0833332 229,29.8172739 229,28.2499999 L229,28.2506837 Z M220.500344,28.2494855 C220.500344,25.0741508 223.074335,22.5 226.250172,22.5 C229.425322,22.5 232,25.0741508 232,28.2494855 C232,31.4255061 229.426009,34 226.250859,34 C223.074335,33.9993139 220.5,31.4248202 220.5,28.2487996 L220.500344,28.2494855 Z" id="Fill-1"></path>
                            <path d="M217.5,50.7506837 C217.501025,49.9998692 217.20305,49.279142 216.67149,48.7478279 C216.13993,48.2161719 215.418968,47.9173504 214.666838,47.9166666 C213.914365,47.9173504 213.193403,48.2161719 212.661843,48.7478279 C212.130283,49.279142 211.832308,49.9998692 211.833333,50.7506837 C211.832651,51.5014982 212.130626,52.2215416 212.662186,52.7528557 C213.193746,53.2841698 213.914365,53.5829913 214.666838,53.5833332 C216.229322,53.5833332 217.5,52.3172739 217.5,50.7499999 L217.5,50.7506837 Z M209.000344,50.7494855 C209.000344,47.5741508 211.574335,45 214.750172,45 C217.925322,45 220.5,47.5741508 220.5,50.7494855 C220.5,53.9255061 217.926009,56.5 214.750859,56.5 C211.574335,56.4993139 209,53.9248202 209,50.7487996 L209.000344,50.7494855 Z" id="Fill-1"></path>
                        </g>
                        <g id="Squiggles" transform="translate(122.000000, 41.000000)" fill="#FFFFFF">
                            <path d="M81.3305917,0.332846254 C81.3305917,-2.300857 84.5,-2.74728486 84.5,-6.99545832 C84.5,-8.95809802 83.6459019,-10.7305399 82.2724694,-12 L79.5826777,-9.45002172 C79.5896867,-9.44338691 79.5973633,-9.43801588 79.6040385,-9.43169701 C80.287584,-8.78338138 80.6707433,-7.90505904 80.669742,-6.98945539 L80.669742,-6.98977134 L80.669742,-6.98913945 L80.669742,-6.98945539 C80.669742,-4.00821453 77.5,-4.34943328 77.5,0.33916512 C77.5,4.87421508 80.669742,4.89159196 80.669742,7.66715375 L80.669742,7.6668378 L80.669742,7.66746969 L80.669742,7.66715375 C80.669742,10.6483946 77.5,10.3068599 77.5,14.9954583 C77.5,16.9577821 78.3544319,18.7302239 79.7278644,20 L82.417656,17.4500217 C82.410647,17.4433869 82.4029705,17.4380159 82.3962952,17.4313811 C81.7130835,16.7833814 81.3295904,15.905059 81.3305917,14.9894554 C81.3305917,12.3557521 84.5,11.9093243 84.5,7.66083488 C84.5,3.11441096 81.3305917,3.12325738 81.3305917,0.332846254" id="Fill-1" transform="translate(81.000000, 4.000000) rotate(-270.000000) translate(-81.000000, -4.000000) "></path>
                            <path d="M157.830592,0.332846254 C157.830592,-2.300857 161,-2.74728486 161,-6.99545832 C161,-8.95809802 160.145902,-10.7305399 158.772469,-12 L156.082678,-9.45002172 C156.089687,-9.44338691 156.097363,-9.43801588 156.104039,-9.43169701 C156.787584,-8.78338138 157.170743,-7.90505904 157.169742,-6.98945539 L157.169742,-6.98977134 L157.169742,-6.98913945 L157.169742,-6.98945539 C157.169742,-4.00821453 154,-4.34943328 154,0.33916512 C154,4.87421508 157.169742,4.89159196 157.169742,7.66715375 L157.169742,7.6668378 L157.169742,7.66746969 L157.169742,7.66715375 C157.169742,10.6483946 154,10.3068599 154,14.9954583 C154,16.9577821 154.854432,18.7302239 156.227864,20 L158.917656,17.4500217 C158.910647,17.4433869 158.90297,17.4380159 158.896295,17.4313811 C158.213083,16.7833814 157.82959,15.905059 157.830592,14.9894554 C157.830592,12.3557521 161,11.9093243 161,7.66083488 C161,3.11441096 157.830592,3.12325738 157.830592,0.332846254" id="Fill-1" transform="translate(157.500000, 4.000000) rotate(-270.000000) translate(-157.500000, -4.000000) "></path>
                            <path d="M42.8305917,0.332846254 C42.8305917,-2.300857 46,-2.74728486 46,-6.99545832 C46,-8.95809802 45.1459019,-10.7305399 43.7724694,-12 L41.0826777,-9.45002172 C41.0896867,-9.44338691 41.0973633,-9.43801588 41.1040385,-9.43169701 C41.787584,-8.78338138 42.1707433,-7.90505904 42.169742,-6.98945539 L42.169742,-6.98977134 L42.169742,-6.98913945 L42.169742,-6.98945539 C42.169742,-4.00821453 39,-4.34943328 39,0.33916512 C39,4.87421508 42.169742,4.89159196 42.169742,7.66715375 L42.169742,7.6668378 L42.169742,7.66746969 L42.169742,7.66715375 C42.169742,10.6483946 39,10.3068599 39,14.9954583 C39,16.9577821 39.8544319,18.7302239 41.2278644,20 L43.917656,17.4500217 C43.910647,17.4433869 43.9029705,17.4380159 43.8962952,17.4313811 C43.2130835,16.7833814 42.8295904,15.905059 42.8305917,14.9894554 C42.8305917,12.3557521 46,11.9093243 46,7.66083488 C46,3.11441096 42.8305917,3.12325738 42.8305917,0.332846254" id="Fill-1" transform="translate(42.500000, 4.000000) rotate(-270.000000) translate(-42.500000, -4.000000) "></path>
                            <path d="M119.830592,0.332846254 C119.830592,-2.300857 123,-2.74728486 123,-6.99545832 C123,-8.95809802 122.145902,-10.7305399 120.772469,-12 L118.082678,-9.45002172 C118.089687,-9.44338691 118.097363,-9.43801588 118.104039,-9.43169701 C118.787584,-8.78338138 119.170743,-7.90505904 119.169742,-6.98945539 L119.169742,-6.98977134 L119.169742,-6.98913945 L119.169742,-6.98945539 C119.169742,-4.00821453 116,-4.34943328 116,0.33916512 C116,4.87421508 119.169742,4.89159196 119.169742,7.66715375 L119.169742,7.6668378 L119.169742,7.66746969 L119.169742,7.66715375 C119.169742,10.6483946 116,10.3068599 116,14.9954583 C116,16.9577821 116.854432,18.7302239 118.227864,20 L120.917656,17.4500217 C120.910647,17.4433869 120.90297,17.4380159 120.896295,17.4313811 C120.213083,16.7833814 119.82959,15.905059 119.830592,14.9894554 C119.830592,12.3557521 123,11.9093243 123,7.66083488 C123,3.11441096 119.830592,3.12325738 119.830592,0.332846254" id="Fill-1" transform="translate(119.500000, 4.000000) rotate(-270.000000) translate(-119.500000, -4.000000) "></path>
                            <path d="M55.3305917,18.3328463 C55.3305917,15.699143 58.5,15.2527151 58.5,11.0045417 C58.5,9.04190198 57.6459019,7.26946013 56.2724694,6 L53.5826777,8.54997828 C53.5896867,8.55661309 53.5973633,8.56198412 53.6040385,8.56830299 C54.287584,9.21661862 54.6707433,10.094941 54.669742,11.0105446 L54.669742,11.0102287 L54.669742,11.0108606 L54.669742,11.0105446 C54.669742,13.9917855 51.5,13.6505667 51.5,18.3391651 C51.5,22.8742151 54.669742,22.891592 54.669742,25.6671537 L54.669742,25.6668378 L54.669742,25.6674697 L54.669742,25.6671537 C54.669742,28.6483946 51.5,28.3068599 51.5,32.9954583 C51.5,34.9577821 52.3544319,36.7302239 53.7278644,38 L56.417656,35.4500217 C56.410647,35.4433869 56.4029705,35.4380159 56.3962952,35.4313811 C55.7130835,34.7833814 55.3295904,33.905059 55.3305917,32.9894554 C55.3305917,30.3557521 58.5,29.9093243 58.5,25.6608349 C58.5,21.114411 55.3305917,21.1232574 55.3305917,18.3328463" id="Fill-1" transform="translate(55.000000, 22.000000) rotate(-270.000000) translate(-55.000000, -22.000000) "></path>
                            <path d="M131.830592,18.3328463 C131.830592,15.699143 135,15.2527151 135,11.0045417 C135,9.04190198 134.145902,7.26946013 132.772469,6 L130.082678,8.54997828 C130.089687,8.55661309 130.097363,8.56198412 130.104039,8.56830299 C130.787584,9.21661862 131.170743,10.094941 131.169742,11.0105446 L131.169742,11.0102287 L131.169742,11.0108606 L131.169742,11.0105446 C131.169742,13.9917855 128,13.6505667 128,18.3391651 C128,22.8742151 131.169742,22.891592 131.169742,25.6671537 L131.169742,25.6668378 L131.169742,25.6674697 L131.169742,25.6671537 C131.169742,28.6483946 128,28.3068599 128,32.9954583 C128,34.9577821 128.854432,36.7302239 130.227864,38 L132.917656,35.4500217 C132.910647,35.4433869 132.90297,35.4380159 132.896295,35.4313811 C132.213083,34.7833814 131.82959,33.905059 131.830592,32.9894554 C131.830592,30.3557521 135,29.9093243 135,25.6608349 C135,21.114411 131.830592,21.1232574 131.830592,18.3328463" id="Fill-1" transform="translate(131.500000, 22.000000) rotate(-270.000000) translate(-131.500000, -22.000000) "></path>
                            <path d="M16.8305917,18.3328463 C16.8305917,15.699143 20,15.2527151 20,11.0045417 C20,9.04190198 19.1459019,7.26946013 17.7724694,6 L15.0826777,8.54997828 C15.0896867,8.55661309 15.0973633,8.56198412 15.1040385,8.56830299 C15.787584,9.21661862 16.1707433,10.094941 16.169742,11.0105446 L16.169742,11.0102287 L16.169742,11.0108606 L16.169742,11.0105446 C16.169742,13.9917855 13,13.6505667 13,18.3391651 C13,22.8742151 16.169742,22.891592 16.169742,25.6671537 L16.169742,25.6668378 L16.169742,25.6674697 L16.169742,25.6671537 C16.169742,28.6483946 13,28.3068599 13,32.9954583 C13,34.9577821 13.8544319,36.7302239 15.2278644,38 L17.917656,35.4500217 C17.910647,35.4433869 17.9029705,35.4380159 17.8962952,35.4313811 C17.2130835,34.7833814 16.8295904,33.905059 16.8305917,32.9894554 C16.8305917,30.3557521 20,29.9093243 20,25.6608349 C20,21.114411 16.8305917,21.1232574 16.8305917,18.3328463" id="Fill-1" transform="translate(16.500000, 22.000000) rotate(-270.000000) translate(-16.500000, -22.000000) "></path>
                            <path d="M93.8305917,18.3328463 C93.8305917,15.699143 97,15.2527151 97,11.0045417 C97,9.04190198 96.1459019,7.26946013 94.7724694,6 L92.0826777,8.54997828 C92.0896867,8.55661309 92.0973633,8.56198412 92.1040385,8.56830299 C92.787584,9.21661862 93.1707433,10.094941 93.169742,11.0105446 L93.169742,11.0102287 L93.169742,11.0108606 L93.169742,11.0105446 C93.169742,13.9917855 90,13.6505667 90,18.3391651 C90,22.8742151 93.169742,22.891592 93.169742,25.6671537 L93.169742,25.6668378 L93.169742,25.6674697 L93.169742,25.6671537 C93.169742,28.6483946 90,28.3068599 90,32.9954583 C90,34.9577821 90.8544319,36.7302239 92.2278644,38 L94.917656,35.4500217 C94.910647,35.4433869 94.9029705,35.4380159 94.8962952,35.4313811 C94.2130835,34.7833814 93.8295904,33.905059 93.8305917,32.9894554 C93.8305917,30.3557521 97,29.9093243 97,25.6608349 C97,21.114411 93.8305917,21.1232574 93.8305917,18.3328463" id="Fill-1" transform="translate(93.500000, 22.000000) rotate(-270.000000) translate(-93.500000, -22.000000) "></path>
                            <path d="M235.330592,0.332846254 C235.330592,-2.300857 238.5,-2.74728486 238.5,-6.99545832 C238.5,-8.95809802 237.645902,-10.7305399 236.272469,-12 L233.582678,-9.45002172 C233.589687,-9.44338691 233.597363,-9.43801588 233.604039,-9.43169701 C234.287584,-8.78338138 234.670743,-7.90505904 234.669742,-6.98945539 L234.669742,-6.98977134 L234.669742,-6.98913945 L234.669742,-6.98945539 C234.669742,-4.00821453 231.5,-4.34943328 231.5,0.33916512 C231.5,4.87421508 234.669742,4.89159196 234.669742,7.66715375 L234.669742,7.6668378 L234.669742,7.66746969 L234.669742,7.66715375 C234.669742,10.6483946 231.5,10.3068599 231.5,14.9954583 C231.5,16.9577821 232.354432,18.7302239 233.727864,20 L236.417656,17.4500217 C236.410647,17.4433869 236.40297,17.4380159 236.396295,17.4313811 C235.713083,16.7833814 235.32959,15.905059 235.330592,14.9894554 C235.330592,12.3557521 238.5,11.9093243 238.5,7.66083488 C238.5,3.11441096 235.330592,3.12325738 235.330592,0.332846254" id="Fill-1" transform="translate(235.000000, 4.000000) rotate(-270.000000) translate(-235.000000, -4.000000) "></path>
                            <path d="M196.830592,0.332846254 C196.830592,-2.300857 200,-2.74728486 200,-6.99545832 C200,-8.95809802 199.145902,-10.7305399 197.772469,-12 L195.082678,-9.45002172 C195.089687,-9.44338691 195.097363,-9.43801588 195.104039,-9.43169701 C195.787584,-8.78338138 196.170743,-7.90505904 196.169742,-6.98945539 L196.169742,-6.98977134 L196.169742,-6.98913945 L196.169742,-6.98945539 C196.169742,-4.00821453 193,-4.34943328 193,0.33916512 C193,4.87421508 196.169742,4.89159196 196.169742,7.66715375 L196.169742,7.6668378 L196.169742,7.66746969 L196.169742,7.66715375 C196.169742,10.6483946 193,10.3068599 193,14.9954583 C193,16.9577821 193.854432,18.7302239 195.227864,20 L197.917656,17.4500217 C197.910647,17.4433869 197.90297,17.4380159 197.896295,17.4313811 C197.213083,16.7833814 196.82959,15.905059 196.830592,14.9894554 C196.830592,12.3557521 200,11.9093243 200,7.66083488 C200,3.11441096 196.830592,3.12325738 196.830592,0.332846254" id="Fill-1" transform="translate(196.500000, 4.000000) rotate(-270.000000) translate(-196.500000, -4.000000) "></path>
                            <path d="M273.830592,0.332846254 C273.830592,-2.300857 277,-2.74728486 277,-6.99545832 C277,-8.95809802 276.145902,-10.7305399 274.772469,-12 L272.082678,-9.45002172 C272.089687,-9.44338691 272.097363,-9.43801588 272.104039,-9.43169701 C272.787584,-8.78338138 273.170743,-7.90505904 273.169742,-6.98945539 L273.169742,-6.98977134 L273.169742,-6.98913945 L273.169742,-6.98945539 C273.169742,-4.00821453 270,-4.34943328 270,0.33916512 C270,4.87421508 273.169742,4.89159196 273.169742,7.66715375 L273.169742,7.6668378 L273.169742,7.66746969 L273.169742,7.66715375 C273.169742,10.6483946 270,10.3068599 270,14.9954583 C270,16.9577821 270.854432,18.7302239 272.227864,20 L274.917656,17.4500217 C274.910647,17.4433869 274.90297,17.4380159 274.896295,17.4313811 C274.213083,16.7833814 273.82959,15.905059 273.830592,14.9894554 C273.830592,12.3557521 277,11.9093243 277,7.66083488 C277,3.11441096 273.830592,3.12325738 273.830592,0.332846254" id="Fill-1" transform="translate(273.500000, 4.000000) rotate(-270.000000) translate(-273.500000, -4.000000) "></path>
                            <path d="M81.3305917,34.3328463 C81.3305917,31.699143 84.5,31.2527151 84.5,27.0045417 C84.5,25.041902 83.6459019,23.2694601 82.2724694,22 L79.5826777,24.5499783 C79.5896867,24.5566131 79.5973633,24.5619841 79.6040385,24.568303 C80.287584,25.2166186 80.6707433,26.094941 80.669742,27.0105446 L80.669742,27.0102287 L80.669742,27.0108606 L80.669742,27.0105446 C80.669742,29.9917855 77.5,29.6505667 77.5,34.3391651 C77.5,38.8742151 80.669742,38.891592 80.669742,41.6671537 L80.669742,41.6668378 L80.669742,41.6674697 L80.669742,41.6671537 C80.669742,44.6483946 77.5,44.3068599 77.5,48.9954583 C77.5,50.9577821 78.3544319,52.7302239 79.7278644,54 L82.417656,51.4500217 C82.410647,51.4433869 82.4029705,51.4380159 82.3962952,51.4313811 C81.7130835,50.7833814 81.3295904,49.905059 81.3305917,48.9894554 C81.3305917,46.3557521 84.5,45.9093243 84.5,41.6608349 C84.5,37.114411 81.3305917,37.1232574 81.3305917,34.3328463" id="Fill-1" transform="translate(81.000000, 38.000000) rotate(-270.000000) translate(-81.000000, -38.000000) "></path>
                            <path d="M157.830592,34.3328463 C157.830592,31.699143 161,31.2527151 161,27.0045417 C161,25.041902 160.145902,23.2694601 158.772469,22 L156.082678,24.5499783 C156.089687,24.5566131 156.097363,24.5619841 156.104039,24.568303 C156.787584,25.2166186 157.170743,26.094941 157.169742,27.0105446 L157.169742,27.0102287 L157.169742,27.0108606 L157.169742,27.0105446 C157.169742,29.9917855 154,29.6505667 154,34.3391651 C154,38.8742151 157.169742,38.891592 157.169742,41.6671537 L157.169742,41.6668378 L157.169742,41.6674697 L157.169742,41.6671537 C157.169742,44.6483946 154,44.3068599 154,48.9954583 C154,50.9577821 154.854432,52.7302239 156.227864,54 L158.917656,51.4500217 C158.910647,51.4433869 158.90297,51.4380159 158.896295,51.4313811 C158.213083,50.7833814 157.82959,49.905059 157.830592,48.9894554 C157.830592,46.3557521 161,45.9093243 161,41.6608349 C161,37.114411 157.830592,37.1232574 157.830592,34.3328463" id="Fill-1" transform="translate(157.500000, 38.000000) rotate(-270.000000) translate(-157.500000, -38.000000) "></path>
                            <path d="M42.8305917,34.3328463 C42.8305917,31.699143 46,31.2527151 46,27.0045417 C46,25.041902 45.1459019,23.2694601 43.7724694,22 L41.0826777,24.5499783 C41.0896867,24.5566131 41.0973633,24.5619841 41.1040385,24.568303 C41.787584,25.2166186 42.1707433,26.094941 42.169742,27.0105446 L42.169742,27.0102287 L42.169742,27.0108606 L42.169742,27.0105446 C42.169742,29.9917855 39,29.6505667 39,34.3391651 C39,38.8742151 42.169742,38.891592 42.169742,41.6671537 L42.169742,41.6668378 L42.169742,41.6674697 L42.169742,41.6671537 C42.169742,44.6483946 39,44.3068599 39,48.9954583 C39,50.9577821 39.8544319,52.7302239 41.2278644,54 L43.917656,51.4500217 C43.910647,51.4433869 43.9029705,51.4380159 43.8962952,51.4313811 C43.2130835,50.7833814 42.8295904,49.905059 42.8305917,48.9894554 C42.8305917,46.3557521 46,45.9093243 46,41.6608349 C46,37.114411 42.8305917,37.1232574 42.8305917,34.3328463" id="Fill-1" transform="translate(42.500000, 38.000000) rotate(-270.000000) translate(-42.500000, -38.000000) "></path>
                            <path d="M119.830592,34.3328463 C119.830592,31.699143 123,31.2527151 123,27.0045417 C123,25.041902 122.145902,23.2694601 120.772469,22 L118.082678,24.5499783 C118.089687,24.5566131 118.097363,24.5619841 118.104039,24.568303 C118.787584,25.2166186 119.170743,26.094941 119.169742,27.0105446 L119.169742,27.0102287 L119.169742,27.0108606 L119.169742,27.0105446 C119.169742,29.9917855 116,29.6505667 116,34.3391651 C116,38.8742151 119.169742,38.891592 119.169742,41.6671537 L119.169742,41.6668378 L119.169742,41.6674697 L119.169742,41.6671537 C119.169742,44.6483946 116,44.3068599 116,48.9954583 C116,50.9577821 116.854432,52.7302239 118.227864,54 L120.917656,51.4500217 C120.910647,51.4433869 120.90297,51.4380159 120.896295,51.4313811 C120.213083,50.7833814 119.82959,49.905059 119.830592,48.9894554 C119.830592,46.3557521 123,45.9093243 123,41.6608349 C123,37.114411 119.830592,37.1232574 119.830592,34.3328463" id="Fill-1" transform="translate(119.500000, 38.000000) rotate(-270.000000) translate(-119.500000, -38.000000) "></path>
                            <path d="M235.330592,34.3328463 C235.330592,31.699143 238.5,31.2527151 238.5,27.0045417 C238.5,25.041902 237.645902,23.2694601 236.272469,22 L233.582678,24.5499783 C233.589687,24.5566131 233.597363,24.5619841 233.604039,24.568303 C234.287584,25.2166186 234.670743,26.094941 234.669742,27.0105446 L234.669742,27.0102287 L234.669742,27.0108606 L234.669742,27.0105446 C234.669742,29.9917855 231.5,29.6505667 231.5,34.3391651 C231.5,38.8742151 234.669742,38.891592 234.669742,41.6671537 L234.669742,41.6668378 L234.669742,41.6674697 L234.669742,41.6671537 C234.669742,44.6483946 231.5,44.3068599 231.5,48.9954583 C231.5,50.9577821 232.354432,52.7302239 233.727864,54 L236.417656,51.4500217 C236.410647,51.4433869 236.40297,51.4380159 236.396295,51.4313811 C235.713083,50.7833814 235.32959,49.905059 235.330592,48.9894554 C235.330592,46.3557521 238.5,45.9093243 238.5,41.6608349 C238.5,37.114411 235.330592,37.1232574 235.330592,34.3328463" id="Fill-1" transform="translate(235.000000, 38.000000) rotate(-270.000000) translate(-235.000000, -38.000000) "></path>
                            <path d="M196.830592,34.3328463 C196.830592,31.699143 200,31.2527151 200,27.0045417 C200,25.041902 199.145902,23.2694601 197.772469,22 L195.082678,24.5499783 C195.089687,24.5566131 195.097363,24.5619841 195.104039,24.568303 C195.787584,25.2166186 196.170743,26.094941 196.169742,27.0105446 L196.169742,27.0102287 L196.169742,27.0108606 L196.169742,27.0105446 C196.169742,29.9917855 193,29.6505667 193,34.3391651 C193,38.8742151 196.169742,38.891592 196.169742,41.6671537 L196.169742,41.6668378 L196.169742,41.6674697 L196.169742,41.6671537 C196.169742,44.6483946 193,44.3068599 193,48.9954583 C193,50.9577821 193.854432,52.7302239 195.227864,54 L197.917656,51.4500217 C197.910647,51.4433869 197.90297,51.4380159 197.896295,51.4313811 C197.213083,50.7833814 196.82959,49.905059 196.830592,48.9894554 C196.830592,46.3557521 200,45.9093243 200,41.6608349 C200,37.114411 196.830592,37.1232574 196.830592,34.3328463" id="Fill-1" transform="translate(196.500000, 38.000000) rotate(-270.000000) translate(-196.500000, -38.000000) "></path>
                            <path d="M273.830592,34.3328463 C273.830592,31.699143 277,31.2527151 277,27.0045417 C277,25.041902 276.145902,23.2694601 274.772469,22 L272.082678,24.5499783 C272.089687,24.5566131 272.097363,24.5619841 272.104039,24.568303 C272.787584,25.2166186 273.170743,26.094941 273.169742,27.0105446 L273.169742,27.0102287 L273.169742,27.0108606 L273.169742,27.0105446 C273.169742,29.9917855 270,29.6505667 270,34.3391651 C270,38.8742151 273.169742,38.891592 273.169742,41.6671537 L273.169742,41.6668378 L273.169742,41.6674697 L273.169742,41.6671537 C273.169742,44.6483946 270,44.3068599 270,48.9954583 C270,50.9577821 270.854432,52.7302239 272.227864,54 L274.917656,51.4500217 C274.910647,51.4433869 274.90297,51.4380159 274.896295,51.4313811 C274.213083,50.7833814 273.82959,49.905059 273.830592,48.9894554 C273.830592,46.3557521 277,45.9093243 277,41.6608349 C277,37.114411 273.830592,37.1232574 273.830592,34.3328463" id="Fill-1" transform="translate(273.500000, 38.000000) rotate(-270.000000) translate(-273.500000, -38.000000) "></path>
                            <path d="M209.330592,18.3328463 C209.330592,15.699143 212.5,15.2527151 212.5,11.0045417 C212.5,9.04190198 211.645902,7.26946013 210.272469,6 L207.582678,8.54997828 C207.589687,8.55661309 207.597363,8.56198412 207.604039,8.56830299 C208.287584,9.21661862 208.670743,10.094941 208.669742,11.0105446 L208.669742,11.0102287 L208.669742,11.0108606 L208.669742,11.0105446 C208.669742,13.9917855 205.5,13.6505667 205.5,18.3391651 C205.5,22.8742151 208.669742,22.891592 208.669742,25.6671537 L208.669742,25.6668378 L208.669742,25.6674697 L208.669742,25.6671537 C208.669742,28.6483946 205.5,28.3068599 205.5,32.9954583 C205.5,34.9577821 206.354432,36.7302239 207.727864,38 L210.417656,35.4500217 C210.410647,35.4433869 210.40297,35.4380159 210.396295,35.4313811 C209.713083,34.7833814 209.32959,33.905059 209.330592,32.9894554 C209.330592,30.3557521 212.5,29.9093243 212.5,25.6608349 C212.5,21.114411 209.330592,21.1232574 209.330592,18.3328463" id="Fill-1" transform="translate(209.000000, 22.000000) rotate(-270.000000) translate(-209.000000, -22.000000) "></path>
                            <path d="M170.830592,18.3328463 C170.830592,15.699143 174,15.2527151 174,11.0045417 C174,9.04190198 173.145902,7.26946013 171.772469,6 L169.082678,8.54997828 C169.089687,8.55661309 169.097363,8.56198412 169.104039,8.56830299 C169.787584,9.21661862 170.170743,10.094941 170.169742,11.0105446 L170.169742,11.0102287 L170.169742,11.0108606 L170.169742,11.0105446 C170.169742,13.9917855 167,13.6505667 167,18.3391651 C167,22.8742151 170.169742,22.891592 170.169742,25.6671537 L170.169742,25.6668378 L170.169742,25.6674697 L170.169742,25.6671537 C170.169742,28.6483946 167,28.3068599 167,32.9954583 C167,34.9577821 167.854432,36.7302239 169.227864,38 L171.917656,35.4500217 C171.910647,35.4433869 171.90297,35.4380159 171.896295,35.4313811 C171.213083,34.7833814 170.82959,33.905059 170.830592,32.9894554 C170.830592,30.3557521 174,29.9093243 174,25.6608349 C174,21.114411 170.830592,21.1232574 170.830592,18.3328463" id="Fill-1" transform="translate(170.500000, 22.000000) rotate(-270.000000) translate(-170.500000, -22.000000) "></path>
                            <path d="M247.830592,18.3328463 C247.830592,15.699143 251,15.2527151 251,11.0045417 C251,9.04190198 250.145902,7.26946013 248.772469,6 L246.082678,8.54997828 C246.089687,8.55661309 246.097363,8.56198412 246.104039,8.56830299 C246.787584,9.21661862 247.170743,10.094941 247.169742,11.0105446 L247.169742,11.0102287 L247.169742,11.0108606 L247.169742,11.0105446 C247.169742,13.9917855 244,13.6505667 244,18.3391651 C244,22.8742151 247.169742,22.891592 247.169742,25.6671537 L247.169742,25.6668378 L247.169742,25.6674697 L247.169742,25.6671537 C247.169742,28.6483946 244,28.3068599 244,32.9954583 C244,34.9577821 244.854432,36.7302239 246.227864,38 L248.917656,35.4500217 C248.910647,35.4433869 248.90297,35.4380159 248.896295,35.4313811 C248.213083,34.7833814 247.82959,33.905059 247.830592,32.9894554 C247.830592,30.3557521 251,29.9093243 251,25.6608349 C251,21.114411 247.830592,21.1232574 247.830592,18.3328463" id="Fill-1" transform="translate(247.500000, 22.000000) rotate(-270.000000) translate(-247.500000, -22.000000) "></path>
                        </g>
                    </g>
                </g>
            </g>
        </g>
    </g>
</svg>